{"glyphs":{"0":{"ha":539,"x_min":25,"x_max":514,"o":"m 271 -18 q 141 11 196 -17 q 56 102 86 39 q 25 275 25 165 l 25 590 q 92 772 25 714 q 274 831 160 831 q 448 772 382 831 q 514 590 514 714 l 514 276 q 484 101 514 165 q 399 9 454 36 q 271 -18 344 -18 m 269 110 q 288 119 281 110 q 294 153 294 129 l 294 657 q 288 690 294 681 q 269 699 281 699 q 253 690 260 699 q 246 657 246 681 l 246 153 q 253 119 246 129 q 269 110 260 110 z "},"1":{"ha":413,"x_min":10,"x_max":378,"o":"m 157 0 l 157 563 l 10 563 l 10 688 l 24 689 q 119 727 83 696 q 183 821 156 758 l 378 821 l 378 0 l 157 0 z "},"2":{"ha":553,"x_min":17,"x_max":533,"o":"m 17 0 q 17 88 17 44 q 17 174 17 131 q 33 301 17 254 q 88 377 50 347 q 189 438 126 407 q 262 480 238 461 q 295 524 286 499 q 304 593 304 550 q 299 649 304 631 q 276 668 294 668 q 251 640 254 668 q 247 554 247 611 l 247 506 l 26 506 l 26 624 q 90 774 26 724 q 279 824 153 824 q 432 801 376 824 q 510 726 488 778 q 533 586 533 674 q 506 428 533 485 q 403 331 478 372 q 351 302 375 315 q 308 277 328 289 q 275 250 289 265 q 255 219 263 236 q 246 178 247 201 l 533 178 l 533 0 l 17 0 z "},"3":{"ha":536,"x_min":11,"x_max":518,"o":"m 264 -8 q 124 14 181 -8 q 40 81 68 36 q 11 192 11 125 l 11 296 l 232 296 l 232 261 q 235 176 232 204 q 261 147 239 147 q 284 169 279 147 q 289 222 289 192 l 289 304 q 265 347 289 338 q 189 356 240 356 l 135 356 l 135 472 l 190 472 q 231 475 214 472 q 260 483 249 478 q 283 503 278 492 q 289 529 289 515 l 289 593 q 284 646 289 624 q 261 668 279 668 q 235 640 239 668 q 232 554 232 611 l 232 533 l 11 533 l 11 624 q 74 774 11 724 q 264 824 138 824 q 459 781 400 824 q 518 643 518 738 l 518 564 q 483 452 518 494 q 375 407 449 410 q 480 367 442 407 q 518 257 518 328 l 518 192 q 492 73 518 117 q 410 10 465 29 q 264 -8 354 -8 z "},"4":{"ha":567,"x_min":4,"x_max":558,"o":"m 251 0 l 251 157 l 4 157 l 4 333 l 251 821 l 472 821 l 472 303 l 558 303 l 558 157 l 472 157 l 472 0 l 251 0 m 175 303 l 251 303 l 251 464 l 175 303 z "},"5":{"ha":543,"x_min":18,"x_max":525,"o":"m 271 -11 q 118 6 174 -11 q 40 69 63 22 q 18 204 18 115 l 18 296 l 239 296 l 239 222 q 247 161 239 175 q 269 147 256 147 q 290 161 283 147 q 296 222 296 175 l 296 371 q 294 397 296 385 q 288 417 293 410 q 269 425 282 425 q 246 413 253 425 q 239 379 239 401 l 18 379 l 18 821 l 511 821 l 511 667 l 236 667 l 236 518 q 270 552 243 533 q 363 571 297 571 q 490 538 454 571 q 525 426 525 504 l 525 192 q 499 71 525 115 q 417 8 472 26 q 271 -11 361 -11 z "},"6":{"ha":544,"x_min":25,"x_max":524,"o":"m 269 -17 q 140 8 196 -17 q 55 84 85 32 q 25 217 25 136 l 25 632 q 92 783 25 735 q 269 831 158 831 q 452 783 389 831 q 515 632 515 736 l 515 575 l 296 575 l 296 657 q 290 690 296 681 q 271 699 283 699 q 252 690 258 699 q 246 657 246 681 l 246 485 q 301 522 265 511 q 369 532 336 532 q 480 502 436 532 q 524 407 524 472 l 524 189 q 491 76 524 122 q 401 7 458 31 q 269 -17 344 -17 m 275 111 q 294 120 286 111 q 303 153 303 129 l 303 369 q 290 394 303 390 q 271 397 276 397 q 256 393 263 397 q 246 385 249 389 l 246 153 q 255 120 246 129 q 275 111 264 111 z "},"7":{"ha":485,"x_min":7,"x_max":471,"o":"m 29 0 l 250 667 l 7 667 l 7 821 l 471 821 l 471 664 l 250 0 l 29 0 z "},"8":{"ha":533,"x_min":18,"x_max":515,"o":"m 269 -11 q 131 12 188 -11 q 47 81 75 35 q 18 194 18 126 l 18 244 q 23 319 18 286 q 46 376 28 353 q 95 412 61 396 q 188 431 129 428 q 106 436 129 428 q 60 463 82 444 q 30 529 33 486 q 26 614 26 572 l 26 650 q 48 749 26 711 q 122 806 69 788 q 269 824 175 824 q 417 806 364 824 q 491 749 469 788 q 513 650 513 711 l 513 614 q 503 526 513 565 q 465 463 494 488 q 372 431 435 439 q 458 410 428 429 q 499 362 488 390 q 513 301 511 333 q 515 242 515 269 l 515 192 q 490 90 515 136 q 410 17 464 44 q 269 -11 356 -11 m 265 113 q 290 124 285 113 q 294 153 294 136 l 294 290 q 291 323 294 310 q 265 336 288 336 q 240 319 243 336 q 238 289 238 301 l 238 153 q 242 124 238 136 q 265 113 247 113 m 265 500 q 285 511 276 500 q 294 556 294 522 l 294 635 q 290 687 294 665 q 265 708 285 708 q 241 685 244 708 q 238 638 238 663 l 238 558 q 241 522 238 535 q 251 504 244 508 q 265 500 258 500 z "},"9":{"ha":542,"x_min":18,"x_max":517,"o":"m 272 -18 q 90 29 153 -18 q 26 181 26 76 l 26 256 l 246 256 l 246 156 q 252 123 246 132 q 271 114 258 114 q 290 123 283 114 q 296 156 296 132 l 296 342 q 241 305 276 315 q 172 294 206 294 q 93 310 128 294 q 38 367 58 326 q 18 483 18 408 l 18 624 q 51 737 18 692 q 141 806 83 782 q 272 829 199 829 q 402 805 347 829 q 487 729 457 781 q 517 596 517 678 l 517 181 q 450 30 517 78 q 272 -18 383 -18 m 271 429 q 286 433 279 429 q 296 442 293 438 l 296 660 q 287 692 296 683 q 267 701 278 701 q 247 692 256 701 q 239 660 239 683 l 239 457 q 252 433 239 436 q 271 429 265 429 z "},"\r":{"ha":833,"x_min":0,"x_max":0,"o":""}," ":{"ha":208,"x_min":0,"x_max":0,"o":""}," ":{"ha":208,"x_min":0,"x_max":0,"o":""},"A":{"ha":568,"x_min":4,"x_max":564,"o":"m 4 0 l 122 821 l 449 821 l 564 0 l 315 0 l 304 119 l 253 119 l 244 0 l 4 0 m 254 226 l 304 226 l 279 647 l 254 226 z "},"А":{"ha":568,"x_min":4,"x_max":564,"o":"m 4 0 l 122 821 l 449 821 l 564 0 l 315 0 l 304 119 l 253 119 l 244 0 l 4 0 m 254 226 l 304 226 l 279 647 l 254 226 z "},"Æ":{"ha":788,"x_min":-7,"x_max":764,"o":"m -7 0 l 211 821 l 747 821 l 747 667 l 540 667 l 543 507 l 729 507 l 729 333 l 546 333 l 549 150 l 764 150 l 764 0 l 304 0 l 307 119 l 256 119 l 233 0 l -7 0 m 271 226 l 321 226 l 344 613 l 347 647 l 340 613 l 271 226 z "},"Á":{"ha":568,"x_min":4,"x_max":564,"o":"m 4 0 l 122 821 l 449 821 l 564 0 l 315 0 l 304 119 l 253 119 l 244 0 l 4 0 m 254 226 l 304 226 l 279 647 l 254 226 m 188 882 l 294 1025 l 486 1025 l 306 882 l 188 882 z "},"Ă":{"ha":568,"x_min":4,"x_max":564,"o":"m 4 0 l 122 821 l 449 821 l 564 0 l 315 0 l 304 119 l 253 119 l 244 0 l 4 0 m 254 226 l 304 226 l 279 647 l 254 226 m 282 876 q 172 902 208 876 q 123 963 135 928 q 111 1026 111 999 l 225 1026 q 243 989 225 1001 q 283 976 261 976 q 324 988 307 976 q 343 1026 342 1000 l 458 1026 q 440 951 458 985 q 384 897 422 917 q 282 876 346 876 z "},"Ắ":{"ha":568,"x_min":4,"x_max":564,"o":"m 4 0 l 122 821 l 449 821 l 564 0 l 315 0 l 304 119 l 253 119 l 244 0 l 4 0 m 254 226 l 304 226 l 279 647 l 254 226 m 283 868 q 192 889 221 868 q 154 938 163 910 q 146 988 146 965 l 257 988 q 265 972 254 978 q 285 965 275 965 q 303 971 293 965 q 313 988 314 976 l 425 988 q 393 901 426 933 q 283 868 360 868 m 213 1019 l 269 1132 l 468 1132 l 349 1019 l 213 1019 z "},"Ặ":{"ha":568,"x_min":4,"x_max":564,"o":"m 4 0 l 122 821 l 449 821 l 564 0 l 315 0 l 304 119 l 253 119 l 244 0 l 4 0 m 254 226 l 304 226 l 279 647 l 254 226 m 283 -204 q 225 -181 249 -204 q 201 -125 201 -157 q 225 -68 201 -92 q 283 -44 249 -44 q 343 -68 318 -44 q 368 -125 368 -92 q 343 -181 368 -157 q 283 -204 318 -204 m 282 876 q 172 902 208 876 q 123 963 135 928 q 111 1026 111 999 l 225 1026 q 243 989 225 1001 q 283 976 261 976 q 324 988 307 976 q 343 1026 342 1000 l 458 1026 q 440 951 458 985 q 384 897 422 917 q 282 876 346 876 z "},"Ằ":{"ha":568,"x_min":4,"x_max":564,"o":"m 4 0 l 122 821 l 449 821 l 564 0 l 315 0 l 304 119 l 253 119 l 244 0 l 4 0 m 254 226 l 304 226 l 279 647 l 254 226 m 282 868 q 190 889 219 868 q 153 938 161 910 q 146 988 146 965 l 256 988 q 265 970 254 975 q 283 965 276 965 q 303 971 293 965 q 313 988 313 976 l 424 988 q 392 901 426 933 q 282 868 357 868 m 235 1019 l 115 1132 l 314 1132 l 371 1019 l 235 1019 z "},"Ẳ":{"ha":568,"x_min":4,"x_max":564,"o":"m 4 0 l 122 821 l 449 821 l 564 0 l 315 0 l 304 119 l 253 119 l 244 0 l 4 0 m 254 226 l 304 226 l 279 647 l 254 226 m 283 868 q 192 889 221 868 q 154 938 163 910 q 146 988 146 965 l 257 988 q 265 972 254 978 q 285 965 275 965 q 303 971 293 965 q 313 988 314 976 l 425 988 q 393 901 426 933 q 283 868 360 868 m 226 1018 l 226 1022 q 238 1046 226 1038 q 260 1060 249 1054 q 271 1075 271 1067 l 271 1083 q 269 1095 271 1093 q 264 1097 267 1097 q 258 1093 261 1097 q 256 1082 256 1089 l 172 1093 q 197 1149 174 1129 q 272 1168 219 1168 q 357 1155 333 1168 q 381 1089 381 1142 l 381 1083 q 370 1053 381 1061 q 349 1040 360 1044 q 339 1025 339 1036 l 339 1018 l 226 1018 z "},"Ẵ":{"ha":568,"x_min":4,"x_max":564,"o":"m 4 0 l 122 821 l 449 821 l 564 0 l 315 0 l 304 119 l 253 119 l 244 0 l 4 0 m 254 226 l 304 226 l 279 647 l 254 226 m 282 868 q 190 889 219 868 q 153 938 161 910 q 144 988 144 965 l 256 988 q 264 972 254 978 q 283 965 274 965 q 303 971 293 965 q 313 988 313 976 l 424 988 q 392 901 426 933 q 282 868 357 868 m 338 1010 q 302 1017 319 1010 q 267 1033 285 1025 q 243 1044 253 1040 q 218 1047 233 1047 q 199 1035 206 1047 q 194 1011 193 1024 l 142 1011 q 163 1104 140 1068 q 221 1140 186 1140 q 256 1135 239 1140 q 288 1124 274 1131 q 315 1113 303 1118 q 339 1107 326 1107 q 360 1117 356 1107 q 367 1136 365 1126 l 426 1136 q 412 1065 428 1093 q 375 1023 396 1036 q 338 1010 354 1010 z "},"Ǎ":{"ha":568,"x_min":4,"x_max":564,"o":"m 4 0 l 122 821 l 449 821 l 564 0 l 315 0 l 304 119 l 253 119 l 244 0 l 4 0 m 254 226 l 304 226 l 279 647 l 254 226 m 226 878 l 86 1029 l 221 1029 l 286 969 l 351 1028 l 483 1028 l 342 878 l 226 878 z "},"Â":{"ha":568,"x_min":4,"x_max":564,"o":"m 4 0 l 122 821 l 449 821 l 564 0 l 315 0 l 304 119 l 253 119 l 244 0 l 4 0 m 254 226 l 304 226 l 279 647 l 254 226 m 86 878 l 226 1029 l 342 1029 l 483 879 l 351 879 l 286 938 l 221 878 l 86 878 z "},"Ấ":{"ha":568,"x_min":4,"x_max":697,"o":"m 4 0 l 122 821 l 449 821 l 564 0 l 315 0 l 304 119 l 253 119 l 244 0 l 4 0 m 254 226 l 304 226 l 279 647 l 254 226 m 126 868 l 229 997 l 339 997 l 443 868 l 322 868 l 286 913 l 250 868 l 126 868 m 442 958 l 499 1071 l 697 1071 l 578 958 l 442 958 z "},"Ậ":{"ha":568,"x_min":4,"x_max":564,"o":"m 4 0 l 122 821 l 449 821 l 564 0 l 315 0 l 304 119 l 253 119 l 244 0 l 4 0 m 254 226 l 304 226 l 279 647 l 254 226 m 283 -204 q 225 -181 249 -204 q 201 -125 201 -157 q 225 -68 201 -92 q 283 -44 249 -44 q 343 -68 318 -44 q 368 -125 368 -92 q 343 -181 368 -157 q 283 -204 318 -204 m 86 878 l 226 1029 l 342 1029 l 483 879 l 351 879 l 286 938 l 221 878 l 86 878 z "},"Ầ":{"ha":568,"x_min":4,"x_max":597,"o":"m 4 0 l 122 821 l 449 821 l 564 0 l 315 0 l 304 119 l 253 119 l 244 0 l 4 0 m 254 226 l 304 226 l 279 647 l 254 226 m 126 868 l 229 997 l 339 997 l 443 868 l 322 868 l 286 913 l 250 868 l 126 868 m 461 956 l 342 1068 l 540 1068 l 597 956 l 461 956 z "},"Ẩ":{"ha":568,"x_min":4,"x_max":593,"o":"m 4 0 l 122 821 l 449 821 l 564 0 l 315 0 l 304 119 l 253 119 l 244 0 l 4 0 m 254 226 l 304 226 l 279 647 l 254 226 m 126 868 l 229 997 l 339 997 l 443 868 l 322 868 l 286 913 l 250 868 l 126 868 m 439 947 l 439 951 q 450 975 439 967 q 472 990 461 983 q 483 1004 483 996 l 483 1013 q 481 1024 483 1022 q 476 1026 479 1026 q 468 1011 468 1026 l 385 1022 q 409 1078 386 1058 q 485 1097 432 1097 q 569 1084 546 1097 q 593 1018 593 1071 l 593 1013 q 583 982 593 990 q 562 969 572 974 q 551 954 551 965 l 551 947 l 439 947 z "},"Ẫ":{"ha":568,"x_min":4,"x_max":564,"o":"m 4 0 l 122 821 l 449 821 l 564 0 l 315 0 l 304 119 l 253 119 l 244 0 l 4 0 m 254 226 l 304 226 l 279 647 l 254 226 m 126 868 l 229 997 l 339 997 l 443 868 l 322 868 l 286 913 l 250 868 l 126 868 m 339 1024 q 303 1032 321 1024 q 271 1046 285 1040 q 244 1056 257 1053 q 221 1060 232 1060 q 202 1049 208 1060 q 196 1025 196 1038 l 144 1025 q 165 1117 143 1082 q 224 1153 188 1153 q 260 1148 242 1153 q 292 1136 278 1143 q 316 1126 304 1131 q 340 1121 328 1121 q 363 1131 358 1121 q 369 1149 368 1140 l 429 1149 q 415 1079 431 1107 q 378 1038 399 1051 q 339 1024 357 1024 z "},"Ä":{"ha":568,"x_min":4,"x_max":564,"o":"m 4 0 l 122 821 l 449 821 l 564 0 l 315 0 l 304 119 l 253 119 l 244 0 l 4 0 m 254 226 l 304 226 l 279 647 l 254 226 m 189 875 q 129 898 153 875 q 106 954 106 921 q 129 1010 106 988 q 189 1032 153 1032 q 247 1010 224 1032 q 269 954 269 988 q 247 898 269 921 q 189 875 224 875 m 382 875 q 322 898 346 875 q 299 954 299 921 q 322 1010 299 988 q 382 1032 346 1032 q 440 1010 417 1032 q 463 954 463 988 q 440 898 463 921 q 382 875 417 875 z "},"Ạ":{"ha":568,"x_min":4,"x_max":564,"o":"m 4 0 l 122 821 l 449 821 l 564 0 l 315 0 l 304 119 l 253 119 l 244 0 l 4 0 m 254 226 l 304 226 l 279 647 l 254 226 m 283 -204 q 225 -181 249 -204 q 201 -125 201 -157 q 225 -68 201 -92 q 283 -44 249 -44 q 343 -68 318 -44 q 368 -125 368 -92 q 343 -181 368 -157 q 283 -204 318 -204 z "},"À":{"ha":568,"x_min":4,"x_max":564,"o":"m 4 0 l 122 821 l 449 821 l 564 0 l 315 0 l 304 119 l 253 119 l 244 0 l 4 0 m 254 226 l 304 226 l 279 647 l 254 226 m 244 882 l 79 1018 l 275 1018 l 376 882 l 244 882 z "},"Ả":{"ha":568,"x_min":4,"x_max":564,"o":"m 4 0 l 122 821 l 449 821 l 564 0 l 315 0 l 304 119 l 253 119 l 244 0 l 4 0 m 254 226 l 304 226 l 279 647 l 254 226 m 224 872 l 224 885 q 238 917 224 906 q 265 937 251 928 q 279 961 279 946 l 279 971 q 276 988 279 979 q 264 997 274 997 q 249 969 249 997 l 156 983 q 188 1050 158 1028 q 274 1072 217 1072 q 368 1056 336 1072 q 400 975 400 1040 l 400 969 q 384 926 400 938 q 353 908 368 914 q 338 885 338 901 l 338 872 l 224 872 z "},"Ā":{"ha":568,"x_min":4,"x_max":564,"o":"m 4 0 l 122 821 l 449 821 l 564 0 l 315 0 l 304 119 l 253 119 l 244 0 l 4 0 m 254 226 l 304 226 l 279 647 l 254 226 m 131 892 l 131 999 l 439 999 l 439 892 l 131 892 z "},"Ą":{"ha":568,"x_min":4,"x_max":593,"o":"m 4 0 l 122 821 l 449 821 l 564 0 l 315 0 l 304 119 l 253 119 l 244 0 l 4 0 m 254 226 l 304 226 l 279 647 l 254 226 m 486 -210 q 392 -180 426 -210 q 357 -115 357 -150 q 391 -40 357 -76 q 482 3 425 -3 l 564 0 q 510 -35 526 -10 q 493 -85 493 -61 q 510 -124 493 -110 q 544 -137 528 -137 q 560 -135 554 -137 q 569 -133 567 -133 l 593 -185 q 563 -199 586 -189 q 486 -210 539 -210 z "},"Å":{"ha":568,"x_min":4,"x_max":564,"o":"m 4 0 l 122 821 l 449 821 l 564 0 l 315 0 l 304 119 l 253 119 l 244 0 l 4 0 m 254 226 l 304 226 l 279 647 l 254 226 m 294 831 q 202 866 239 831 q 165 951 165 901 q 202 1040 165 1004 q 294 1075 239 1075 q 385 1039 347 1075 q 424 951 424 1003 q 385 866 424 901 q 294 831 347 831 m 294 913 q 325 924 313 913 q 338 951 338 935 q 325 983 338 971 q 294 994 313 994 q 264 983 276 994 q 251 951 251 971 q 264 924 251 935 q 294 913 276 913 z "},"Ã":{"ha":568,"x_min":4,"x_max":564,"o":"m 4 0 l 122 821 l 449 821 l 564 0 l 315 0 l 304 119 l 253 119 l 244 0 l 4 0 m 254 226 l 304 226 l 279 647 l 254 226 m 346 882 q 301 892 322 882 q 261 911 281 901 q 228 927 244 921 q 196 933 213 933 q 168 919 178 933 q 157 883 158 904 l 100 883 q 127 989 100 949 q 199 1029 154 1029 q 244 1022 224 1029 q 283 1004 265 1014 q 316 989 300 996 q 347 982 332 982 q 378 995 369 982 q 390 1025 388 1008 l 454 1025 q 437 946 454 978 q 394 898 419 914 q 346 882 369 882 z "},"B":{"ha":557,"x_min":35,"x_max":536,"o":"m 35 0 l 35 821 l 357 821 q 483 781 443 821 q 522 681 522 742 l 522 592 q 513 527 522 557 q 481 476 503 497 q 446 453 467 463 q 401 442 425 444 l 401 439 q 440 433 421 439 q 481 413 458 428 q 521 362 506 394 q 536 281 536 329 l 536 174 q 513 70 536 108 q 444 16 489 32 q 338 0 400 0 l 35 0 m 257 113 l 285 113 q 300 119 294 113 q 309 141 306 125 q 313 186 313 157 l 313 274 q 306 333 313 319 q 283 346 299 346 l 257 346 l 257 113 m 257 483 l 279 483 q 301 499 292 483 q 311 567 311 515 l 311 640 q 304 690 311 676 q 282 704 297 704 l 257 704 l 257 483 z "},"Б":{"ha":543,"x_min":35,"x_max":515,"o":"m 35 0 l 35 821 l 467 821 l 467 667 l 251 667 l 251 606 l 361 606 q 431 595 396 606 q 491 552 467 585 q 515 450 515 519 l 515 224 q 501 99 515 144 q 460 33 486 54 q 401 6 435 13 q 326 0 367 0 l 35 0 m 275 111 q 288 115 283 111 q 296 128 293 118 q 299 153 299 138 l 299 432 q 296 458 299 449 q 288 470 293 467 q 275 474 283 474 l 251 474 l 251 111 l 275 111 z "},"C":{"ha":549,"x_min":28,"x_max":524,"o":"m 281 -17 q 149 1 206 -17 q 60 75 92 19 q 28 240 28 131 l 28 646 q 60 756 28 715 q 149 815 92 797 q 281 833 206 833 q 411 815 357 833 q 494 756 465 797 q 524 646 524 715 l 524 454 l 303 454 l 303 657 q 300 683 303 674 q 292 695 297 692 q 281 699 288 699 q 269 695 274 699 q 261 683 264 692 q 258 657 258 674 l 258 153 q 261 128 258 138 q 269 115 264 118 q 281 111 274 111 q 292 115 288 111 q 300 128 297 118 q 303 153 303 138 l 303 344 l 524 344 l 524 242 q 494 75 524 131 q 411 1 465 19 q 281 -17 357 -17 z "},"Ć":{"ha":549,"x_min":28,"x_max":524,"o":"m 281 -17 q 149 1 206 -17 q 60 75 92 19 q 28 240 28 131 l 28 646 q 60 756 28 715 q 149 815 92 797 q 281 833 206 833 q 411 815 357 833 q 494 756 465 797 q 524 646 524 715 l 524 454 l 303 454 l 303 657 q 300 683 303 674 q 292 695 297 692 q 281 699 288 699 q 269 695 274 699 q 261 683 264 692 q 258 657 258 674 l 258 153 q 261 128 258 138 q 269 115 264 118 q 281 111 274 111 q 292 115 288 111 q 300 128 297 118 q 303 153 303 138 l 303 344 l 524 344 l 524 242 q 494 75 524 131 q 411 1 465 19 q 281 -17 357 -17 m 178 882 l 285 1025 l 476 1025 l 296 882 l 178 882 z "},"Č":{"ha":549,"x_min":28,"x_max":524,"o":"m 281 -17 q 149 1 206 -17 q 60 75 92 19 q 28 240 28 131 l 28 646 q 60 756 28 715 q 149 815 92 797 q 281 833 206 833 q 411 815 357 833 q 494 756 465 797 q 524 646 524 715 l 524 454 l 303 454 l 303 657 q 300 683 303 674 q 292 695 297 692 q 281 699 288 699 q 269 695 274 699 q 261 683 264 692 q 258 657 258 674 l 258 153 q 261 128 258 138 q 269 115 264 118 q 281 111 274 111 q 292 115 288 111 q 300 128 297 118 q 303 153 303 138 l 303 344 l 524 344 l 524 242 q 494 75 524 131 q 411 1 465 19 q 281 -17 357 -17 m 217 878 l 76 1029 l 211 1029 l 276 969 l 342 1028 l 474 1028 l 332 878 l 217 878 z "},"Ç":{"ha":549,"x_min":28,"x_max":524,"o":"m 281 -17 q 149 1 206 -17 q 60 75 92 19 q 28 240 28 131 l 28 646 q 60 756 28 715 q 149 815 92 797 q 281 833 206 833 q 411 815 357 833 q 494 756 465 797 q 524 646 524 715 l 524 454 l 303 454 l 303 657 q 300 683 303 674 q 292 695 297 692 q 281 699 288 699 q 269 695 274 699 q 261 683 264 692 q 258 657 258 674 l 258 153 q 261 128 258 138 q 269 115 264 118 q 281 111 274 111 q 292 115 288 111 q 300 128 297 118 q 303 153 303 138 l 303 344 l 524 344 l 524 242 q 494 75 524 131 q 411 1 465 19 q 281 -17 357 -17 m 268 -242 q 211 -230 238 -242 q 175 -212 185 -218 l 200 -147 q 227 -162 210 -156 q 258 -168 244 -168 q 286 -159 276 -168 q 296 -133 296 -150 q 289 -117 296 -122 q 272 -111 282 -111 q 259 -114 264 -111 q 251 -119 254 -117 l 194 -89 l 238 0 l 315 0 l 279 -74 l 269 -68 q 292 -59 278 -64 q 325 -54 306 -54 q 390 -81 367 -54 q 413 -137 413 -107 q 375 -210 413 -179 q 268 -242 338 -242 z "},"Ċ":{"ha":549,"x_min":28,"x_max":524,"o":"m 281 -17 q 149 1 206 -17 q 60 75 92 19 q 28 240 28 131 l 28 646 q 60 756 28 715 q 149 815 92 797 q 281 833 206 833 q 411 815 357 833 q 494 756 465 797 q 524 646 524 715 l 524 454 l 303 454 l 303 657 q 300 683 303 674 q 292 695 297 692 q 281 699 288 699 q 269 695 274 699 q 261 683 264 692 q 258 657 258 674 l 258 153 q 261 128 258 138 q 269 115 264 118 q 281 111 274 111 q 292 115 288 111 q 300 128 297 118 q 303 153 303 138 l 303 344 l 524 344 l 524 242 q 494 75 524 131 q 411 1 465 19 q 281 -17 357 -17 m 299 876 q 225 906 256 876 q 193 979 194 936 q 225 1051 193 1021 q 300 1081 257 1081 q 376 1051 344 1081 q 407 978 407 1021 q 376 906 408 936 q 299 876 343 876 z "},"Ч":{"ha":547,"x_min":28,"x_max":513,"o":"m 292 0 l 292 219 q 248 197 281 208 q 181 186 215 186 q 86 206 119 186 q 40 267 53 226 q 28 368 28 308 l 28 821 l 244 821 l 244 369 q 251 340 244 350 q 268 331 257 331 q 281 331 274 331 q 292 335 288 332 l 292 821 l 513 821 l 513 0 l 292 0 z "},"D":{"ha":558,"x_min":35,"x_max":531,"o":"m 35 0 l 35 821 l 357 821 q 456 803 418 821 q 513 753 494 785 q 531 681 531 722 l 531 174 q 506 70 531 108 q 435 16 481 32 q 324 0 389 0 l 35 0 m 265 111 l 286 111 q 303 120 297 111 q 310 153 310 129 l 310 657 q 303 690 310 681 q 286 699 297 699 l 265 699 l 265 111 z "},"Ď":{"ha":558,"x_min":35,"x_max":531,"o":"m 35 0 l 35 821 l 357 821 q 456 803 418 821 q 513 753 494 785 q 531 681 531 722 l 531 174 q 506 70 531 108 q 435 16 481 32 q 324 0 389 0 l 35 0 m 265 111 l 286 111 q 303 120 297 111 q 310 153 310 129 l 310 657 q 303 690 310 681 q 286 699 297 699 l 265 699 l 265 111 m 221 878 l 81 1029 l 215 1029 l 281 969 l 346 1028 l 478 1028 l 336 878 l 221 878 z "},"Đ":{"ha":619,"x_min":10,"x_max":592,"o":"m 65 0 l 65 821 l 418 821 q 517 803 479 821 q 574 753 556 785 q 592 681 592 722 l 592 174 q 567 70 592 108 q 496 16 542 32 q 385 0 450 0 l 65 0 m 10 342 l 10 465 l 328 465 l 328 342 l 10 342 m 296 111 l 331 111 q 363 120 354 111 q 371 153 371 129 l 371 657 q 363 690 371 681 q 331 699 354 699 l 296 699 l 296 111 z "},"Д":{"ha":889,"x_min":28,"x_max":861,"o":"m 28 -165 l 28 139 l 107 139 q 153 174 131 142 q 182 246 176 207 q 197 357 189 293 q 213 491 206 421 q 226 627 221 561 q 235 744 232 693 q 239 821 239 796 l 710 821 l 710 139 l 861 139 l 861 -165 l 682 -165 l 682 -44 l 207 -44 l 207 -165 l 28 -165 m 361 139 l 493 139 l 493 667 l 444 667 q 426 468 435 568 q 408 269 418 368 q 393 190 404 229 q 361 139 382 150 z "},"Δ":{"ha":803,"x_min":28,"x_max":775,"o":"m 28 0 l 293 813 l 515 813 l 775 0 l 28 0 m 279 164 l 511 164 l 394 556 l 279 164 z "},"Ђ":{"ha":667,"x_min":11,"x_max":639,"o":"m 129 0 l 129 667 l 11 667 l 11 821 l 468 821 l 468 667 l 350 667 l 350 507 q 399 546 363 528 q 485 564 436 564 q 555 553 519 564 q 615 510 590 543 q 639 408 639 478 l 639 214 q 624 91 639 135 q 584 28 610 47 q 524 4 558 8 q 450 0 490 0 q 404 6 431 0 q 365 19 378 13 l 365 114 q 382 112 372 113 q 399 111 392 111 q 416 120 410 111 q 422 153 422 129 l 422 390 q 415 423 422 414 q 386 432 407 432 q 365 428 372 432 q 350 418 357 425 l 350 0 l 129 0 z "},"Ѕ":{"ha":563,"x_min":19,"x_max":543,"o":"m 276 -11 q 137 9 194 -11 q 49 83 79 29 q 19 235 19 136 l 19 286 q 135 286 78 286 q 251 286 193 286 l 251 215 q 255 159 251 178 q 265 134 258 140 q 281 128 271 128 q 302 142 296 128 q 308 204 308 157 q 294 269 308 249 q 248 304 281 290 q 160 342 215 318 q 79 398 108 365 q 38 477 50 431 q 26 586 26 524 q 49 726 26 674 q 128 801 72 778 q 281 824 183 824 q 469 774 406 824 q 533 624 533 725 l 533 518 q 423 518 478 518 q 313 518 368 518 l 313 554 q 309 630 313 611 q 283 649 306 649 q 260 636 265 649 q 256 593 256 624 q 272 532 256 553 q 314 501 288 511 q 369 479 340 490 q 469 433 431 457 q 525 365 507 408 q 543 238 543 321 q 511 90 543 144 q 419 12 479 35 q 276 -11 360 -11 z "},"Џ":{"ha":585,"x_min":35,"x_max":550,"o":"m 224 -137 l 224 0 l 35 0 l 35 821 l 265 821 l 265 154 l 319 154 l 319 821 l 550 821 l 550 0 l 361 0 l 361 -137 l 224 -137 z "},"E":{"ha":456,"x_min":35,"x_max":432,"o":"m 35 0 l 35 821 l 432 821 l 432 667 l 265 667 l 265 507 l 418 507 l 418 333 l 265 333 l 265 150 l 432 150 l 432 0 l 35 0 z "},"É":{"ha":456,"x_min":35,"x_max":433,"o":"m 35 0 l 35 821 l 432 821 l 432 667 l 265 667 l 265 507 l 418 507 l 418 333 l 265 333 l 265 150 l 432 150 l 432 0 l 35 0 m 135 882 l 242 1025 l 433 1025 l 253 882 l 135 882 z "},"Ě":{"ha":456,"x_min":33,"x_max":432,"o":"m 35 0 l 35 821 l 432 821 l 432 667 l 265 667 l 265 507 l 418 507 l 418 333 l 265 333 l 265 150 l 432 150 l 432 0 l 35 0 m 174 878 l 33 1029 l 168 1029 l 233 969 l 299 1028 l 431 1028 l 289 878 l 174 878 z "},"Ê":{"ha":456,"x_min":33,"x_max":432,"o":"m 35 0 l 35 821 l 432 821 l 432 667 l 265 667 l 265 507 l 418 507 l 418 333 l 265 333 l 265 150 l 432 150 l 432 0 l 35 0 m 33 878 l 174 1029 l 289 1029 l 431 879 l 299 879 l 233 938 l 168 878 l 33 878 z "},"Ế":{"ha":456,"x_min":35,"x_max":644,"o":"m 35 0 l 35 821 l 432 821 l 432 667 l 265 667 l 265 507 l 418 507 l 418 333 l 265 333 l 265 150 l 432 150 l 432 0 l 35 0 m 74 868 l 176 997 l 286 997 l 390 868 l 269 868 l 233 913 l 197 868 l 74 868 m 389 958 l 446 1071 l 644 1071 l 525 958 l 389 958 z "},"Ệ":{"ha":456,"x_min":33,"x_max":432,"o":"m 35 0 l 35 821 l 432 821 l 432 667 l 265 667 l 265 507 l 418 507 l 418 333 l 265 333 l 265 150 l 432 150 l 432 0 l 35 0 m 226 -204 q 168 -181 192 -204 q 144 -125 144 -157 q 168 -68 144 -92 q 226 -44 192 -44 q 286 -68 261 -44 q 311 -125 311 -92 q 286 -181 311 -157 q 226 -204 261 -204 m 33 878 l 174 1029 l 289 1029 l 431 879 l 299 879 l 233 938 l 168 878 l 33 878 z "},"Ề":{"ha":456,"x_min":35,"x_max":544,"o":"m 35 0 l 35 821 l 432 821 l 432 667 l 265 667 l 265 507 l 418 507 l 418 333 l 265 333 l 265 150 l 432 150 l 432 0 l 35 0 m 74 868 l 176 997 l 286 997 l 390 868 l 269 868 l 233 913 l 197 868 l 74 868 m 408 956 l 289 1068 l 488 1068 l 544 956 l 408 956 z "},"Ể":{"ha":456,"x_min":35,"x_max":540,"o":"m 35 0 l 35 821 l 432 821 l 432 667 l 265 667 l 265 507 l 418 507 l 418 333 l 265 333 l 265 150 l 432 150 l 432 0 l 35 0 m 74 868 l 176 997 l 286 997 l 390 868 l 269 868 l 233 913 l 197 868 l 74 868 m 386 947 l 386 951 q 397 975 386 967 q 419 990 408 983 q 431 1004 431 996 l 431 1013 q 428 1024 431 1022 q 424 1026 426 1026 q 415 1011 415 1026 l 332 1022 q 356 1078 333 1058 q 432 1097 379 1097 q 517 1084 493 1097 q 540 1018 540 1071 l 540 1013 q 530 982 540 990 q 509 969 519 974 q 499 954 499 965 l 499 947 l 386 947 z "},"Ễ":{"ha":456,"x_min":35,"x_max":432,"o":"m 35 0 l 35 821 l 432 821 l 432 667 l 265 667 l 265 507 l 418 507 l 418 333 l 265 333 l 265 150 l 432 150 l 432 0 l 35 0 m 74 868 l 176 997 l 286 997 l 390 868 l 269 868 l 233 913 l 197 868 l 74 868 m 286 1024 q 250 1032 268 1024 q 218 1046 232 1040 q 192 1056 204 1053 q 168 1060 179 1060 q 149 1049 156 1060 q 143 1025 143 1038 l 92 1025 q 113 1117 90 1082 q 171 1153 135 1153 q 207 1148 189 1153 q 239 1136 225 1143 q 263 1126 251 1131 q 288 1121 275 1121 q 310 1131 306 1121 q 317 1149 315 1140 l 376 1149 q 362 1079 378 1107 q 325 1038 346 1051 q 286 1024 304 1024 z "},"Ë":{"ha":456,"x_min":35,"x_max":432,"o":"m 35 0 l 35 821 l 432 821 l 432 667 l 265 667 l 265 507 l 418 507 l 418 333 l 265 333 l 265 150 l 432 150 l 432 0 l 35 0 m 136 875 q 76 898 100 875 q 53 954 53 921 q 76 1010 53 988 q 136 1032 100 1032 q 194 1010 171 1032 q 217 954 217 988 q 194 898 217 921 q 136 875 171 875 m 329 875 q 269 898 293 875 q 246 954 246 921 q 269 1010 246 988 q 329 1032 293 1032 q 387 1010 364 1032 q 410 954 410 988 q 387 898 410 921 q 329 875 364 875 z "},"Ė":{"ha":456,"x_min":35,"x_max":432,"o":"m 35 0 l 35 821 l 432 821 l 432 667 l 265 667 l 265 507 l 418 507 l 418 333 l 265 333 l 265 150 l 432 150 l 432 0 l 35 0 m 256 876 q 182 906 213 876 q 150 979 151 936 q 182 1051 150 1021 q 257 1081 214 1081 q 333 1051 301 1081 q 364 978 364 1021 q 333 906 365 936 q 256 876 300 876 z "},"Ẹ":{"ha":456,"x_min":35,"x_max":432,"o":"m 35 0 l 35 821 l 432 821 l 432 667 l 265 667 l 265 507 l 418 507 l 418 333 l 265 333 l 265 150 l 432 150 l 432 0 l 35 0 m 226 -204 q 168 -181 192 -204 q 144 -125 144 -157 q 168 -68 144 -92 q 226 -44 192 -44 q 286 -68 261 -44 q 311 -125 311 -92 q 286 -181 311 -157 q 226 -204 261 -204 z "},"Ф":{"ha":789,"x_min":21,"x_max":768,"o":"m 286 -54 l 286 106 l 228 106 q 76 143 131 106 q 21 279 21 181 l 21 558 q 62 660 21 621 q 194 699 103 699 l 286 699 l 286 821 l 503 821 l 503 699 l 594 699 q 727 660 686 699 q 768 558 768 621 l 768 279 q 713 143 768 181 q 561 106 658 106 l 503 106 l 503 -54 l 286 -54 m 265 217 l 286 217 q 286 397 286 307 q 286 576 286 488 l 265 576 q 248 567 254 576 q 242 535 242 558 l 242 258 q 248 226 242 235 q 265 217 254 217 m 503 217 l 524 217 q 541 226 535 217 q 547 258 547 235 l 547 535 q 541 567 547 558 q 524 576 535 576 l 503 576 q 503 397 503 488 q 503 217 503 307 z "},"È":{"ha":456,"x_min":26,"x_max":432,"o":"m 35 0 l 35 821 l 432 821 l 432 667 l 265 667 l 265 507 l 418 507 l 418 333 l 265 333 l 265 150 l 432 150 l 432 0 l 35 0 m 192 882 l 26 1018 l 222 1018 l 324 882 l 192 882 z "},"Ẻ":{"ha":456,"x_min":35,"x_max":432,"o":"m 35 0 l 35 821 l 432 821 l 432 667 l 265 667 l 265 507 l 418 507 l 418 333 l 265 333 l 265 150 l 432 150 l 432 0 l 35 0 m 171 872 l 171 885 q 185 917 171 906 q 213 937 199 928 q 226 961 226 946 l 226 971 q 224 988 226 979 q 211 997 221 997 q 196 969 196 997 l 103 983 q 135 1050 106 1028 q 221 1072 164 1072 q 315 1056 283 1072 q 347 975 347 1040 l 347 969 q 331 926 347 938 q 300 908 315 914 q 285 885 285 901 l 285 872 l 171 872 z "},"Л":{"ha":647,"x_min":7,"x_max":613,"o":"m 7 0 l 7 110 q 57 144 32 110 q 85 217 82 178 l 129 821 l 613 821 l 613 0 l 392 0 l 392 667 l 346 667 l 306 161 q 300 103 303 132 q 284 51 297 75 q 240 14 271 28 q 151 0 210 0 l 7 0 z "},"М":{"ha":750,"x_min":35,"x_max":715,"o":"m 35 0 l 35 821 l 315 821 l 375 401 l 435 821 l 715 821 l 715 0 l 522 0 l 522 572 l 449 0 l 301 0 l 228 572 l 228 0 l 35 0 z "},"Ē":{"ha":456,"x_min":35,"x_max":432,"o":"m 35 0 l 35 821 l 432 821 l 432 667 l 265 667 l 265 507 l 418 507 l 418 333 l 265 333 l 265 150 l 432 150 l 432 0 l 35 0 m 78 892 l 78 999 l 386 999 l 386 892 l 78 892 z "},"Н":{"ha":561,"x_min":35,"x_max":526,"o":"m 35 0 l 35 821 l 256 821 l 256 503 l 306 503 l 306 821 l 526 821 l 526 0 l 306 0 l 306 340 l 256 340 l 256 0 l 35 0 z "},"Ŋ":{"ha":556,"x_min":35,"x_max":521,"o":"m 297 -272 q 260 -272 286 -272 q 222 -271 233 -272 l 222 -121 l 263 -121 q 315 -108 303 -121 q 328 -54 328 -96 l 328 3 l 228 340 l 228 0 l 35 0 l 36 821 l 228 821 l 326 439 l 328 821 l 521 821 l 519 -50 q 497 -187 519 -139 q 426 -253 475 -235 q 297 -272 376 -272 z "},"Ę":{"ha":456,"x_min":35,"x_max":432,"o":"m 35 0 l 35 821 l 432 821 l 432 667 l 265 667 l 265 507 l 418 507 l 418 333 l 265 333 l 265 150 l 432 150 l 432 0 l 35 0 m 321 -210 q 226 -180 261 -210 q 192 -115 192 -150 q 226 -40 192 -76 q 317 3 260 -3 l 399 0 q 344 -35 361 -10 q 328 -85 328 -61 q 345 -124 328 -110 q 379 -137 363 -137 q 395 -135 389 -137 q 404 -133 401 -133 l 428 -185 q 397 -199 421 -189 q 321 -210 374 -210 z "},"Р":{"ha":553,"x_min":35,"x_max":531,"o":"m 35 0 l 35 821 l 357 821 q 490 781 449 821 q 531 681 531 742 l 531 544 q 517 430 531 483 q 467 344 503 376 q 368 311 432 311 l 265 311 l 265 0 l 35 0 m 265 431 l 282 431 q 304 460 297 431 q 311 567 311 490 l 311 581 q 308 676 311 649 q 286 704 304 704 l 265 704 l 265 431 z "},"Э":{"ha":558,"x_min":28,"x_max":524,"o":"m 271 -17 q 141 1 196 -17 q 57 75 86 19 q 28 242 28 131 l 28 268 l 249 268 l 249 157 q 251 132 249 142 q 260 119 254 122 q 271 115 265 115 q 284 119 279 115 q 291 132 289 122 q 293 157 293 142 l 293 319 l 132 319 l 132 465 l 293 465 l 293 651 q 291 677 293 668 q 284 690 289 686 q 271 693 279 693 q 260 690 265 693 q 251 677 254 686 q 249 651 249 668 l 249 522 l 28 522 l 28 646 q 57 756 28 715 q 141 815 86 797 q 271 833 196 833 q 403 815 347 833 q 492 756 460 797 q 524 646 524 715 l 524 240 q 492 75 524 131 q 403 1 460 19 q 271 -17 347 -17 z "},"С":{"ha":549,"x_min":28,"x_max":524,"o":"m 281 -17 q 149 1 206 -17 q 60 75 92 19 q 28 240 28 131 l 28 646 q 60 756 28 715 q 149 815 92 797 q 281 833 206 833 q 411 815 357 833 q 494 756 465 797 q 524 646 524 715 l 524 454 l 303 454 l 303 657 q 300 683 303 674 q 292 695 297 692 q 281 699 288 699 q 269 695 274 699 q 261 683 264 692 q 258 657 258 674 l 258 153 q 261 128 258 138 q 269 115 264 118 q 281 111 274 111 q 292 115 288 111 q 300 128 297 118 q 303 153 303 138 l 303 344 l 524 344 l 524 242 q 494 75 524 131 q 411 1 465 19 q 281 -17 357 -17 z "},"Ð":{"ha":619,"x_min":10,"x_max":592,"o":"m 65 0 l 65 821 l 418 821 q 517 803 479 821 q 574 753 556 785 q 592 681 592 722 l 592 174 q 567 70 592 108 q 496 16 542 32 q 385 0 450 0 l 65 0 m 10 342 l 10 465 l 328 465 l 328 342 l 10 342 m 296 111 l 331 111 q 363 120 354 111 q 371 153 371 129 l 371 657 q 363 690 371 681 q 331 699 354 699 l 296 699 l 296 111 z "},"Ẽ":{"ha":456,"x_min":35,"x_max":432,"o":"m 35 0 l 35 821 l 432 821 l 432 667 l 265 667 l 265 507 l 418 507 l 418 333 l 265 333 l 265 150 l 432 150 l 432 0 l 35 0 m 293 882 q 249 892 269 882 q 208 911 228 901 q 176 927 192 921 q 143 933 160 933 q 115 919 125 933 q 104 883 106 904 l 47 883 q 74 989 47 949 q 146 1029 101 1029 q 192 1022 171 1029 q 231 1004 213 1014 q 263 989 247 996 q 294 982 279 982 q 326 995 317 982 q 338 1025 335 1008 l 401 1025 q 384 946 401 978 q 342 898 367 914 q 293 882 317 882 z "},"F":{"ha":453,"x_min":35,"x_max":432,"o":"m 35 0 l 35 821 l 432 821 l 432 667 l 265 667 l 265 507 l 418 507 l 418 333 l 265 333 l 265 0 l 35 0 z "},"G":{"ha":549,"x_min":28,"x_max":524,"o":"m 207 -14 q 123 2 164 -14 q 55 67 82 18 q 28 210 28 115 l 28 643 q 58 753 28 713 q 144 813 89 794 q 272 831 199 831 q 403 813 346 831 q 492 753 460 794 q 524 643 524 713 l 524 518 l 310 518 l 310 657 q 306 683 310 674 q 295 695 301 692 q 279 699 289 699 q 264 695 271 699 q 253 683 257 692 q 249 657 249 674 l 249 153 q 253 128 249 138 q 264 115 257 118 q 279 111 271 111 q 301 120 293 111 q 310 153 310 129 l 310 308 l 275 308 l 275 432 l 524 432 l 524 0 l 357 0 l 346 53 q 346 53 346 53 q 346 53 346 53 q 304 9 336 32 q 207 -14 272 -14 z "},"Ğ":{"ha":549,"x_min":28,"x_max":524,"o":"m 207 -14 q 123 2 164 -14 q 55 67 82 18 q 28 210 28 115 l 28 643 q 58 753 28 713 q 144 813 89 794 q 272 831 199 831 q 403 813 346 831 q 492 753 460 794 q 524 643 524 713 l 524 518 l 310 518 l 310 657 q 306 683 310 674 q 295 695 301 692 q 279 699 289 699 q 264 695 271 699 q 253 683 257 692 q 249 657 249 674 l 249 153 q 253 128 249 138 q 264 115 257 118 q 279 111 271 111 q 301 120 293 111 q 310 153 310 129 l 310 308 l 275 308 l 275 432 l 524 432 l 524 0 l 357 0 l 346 53 q 346 53 346 53 q 346 53 346 53 q 304 9 336 32 q 207 -14 272 -14 m 272 876 q 162 902 199 876 q 113 963 125 928 q 101 1026 101 999 l 215 1026 q 233 989 215 1001 q 274 976 251 976 q 315 988 297 976 q 333 1026 332 1000 l 449 1026 q 431 951 449 985 q 374 897 413 917 q 272 876 336 876 z "},"Ģ":{"ha":549,"x_min":28,"x_max":524,"o":"m 207 -14 q 123 2 164 -14 q 55 67 82 18 q 28 210 28 115 l 28 643 q 58 753 28 713 q 144 813 89 794 q 272 831 199 831 q 403 813 346 831 q 492 753 460 794 q 524 643 524 713 l 524 518 l 310 518 l 310 657 q 306 683 310 674 q 295 695 301 692 q 279 699 289 699 q 264 695 271 699 q 253 683 257 692 q 249 657 249 674 l 249 153 q 253 128 249 138 q 264 115 257 118 q 279 111 271 111 q 301 120 293 111 q 310 153 310 129 l 310 308 l 275 308 l 275 432 l 524 432 l 524 0 l 357 0 l 346 53 q 346 53 346 53 q 346 53 346 53 q 304 9 336 32 q 207 -14 272 -14 m 185 -293 q 221 -233 208 -260 q 233 -190 233 -207 q 222 -171 233 -179 q 199 -150 210 -162 q 188 -117 188 -137 q 212 -71 188 -92 q 275 -50 236 -50 q 341 -72 315 -50 q 367 -126 367 -93 q 351 -178 367 -147 q 315 -240 336 -210 q 271 -293 293 -271 l 185 -293 z "},"Ġ":{"ha":549,"x_min":28,"x_max":524,"o":"m 207 -14 q 123 2 164 -14 q 55 67 82 18 q 28 210 28 115 l 28 643 q 58 753 28 713 q 144 813 89 794 q 272 831 199 831 q 403 813 346 831 q 492 753 460 794 q 524 643 524 713 l 524 518 l 310 518 l 310 657 q 306 683 310 674 q 295 695 301 692 q 279 699 289 699 q 264 695 271 699 q 253 683 257 692 q 249 657 249 674 l 249 153 q 253 128 249 138 q 264 115 257 118 q 279 111 271 111 q 301 120 293 111 q 310 153 310 129 l 310 308 l 275 308 l 275 432 l 524 432 l 524 0 l 357 0 l 346 53 q 346 53 346 53 q 346 53 346 53 q 304 9 336 32 q 207 -14 272 -14 m 299 876 q 225 906 256 876 q 193 979 194 936 q 225 1051 193 1021 q 300 1081 257 1081 q 376 1051 344 1081 q 407 978 407 1021 q 376 906 408 936 q 299 876 343 876 z "},"Г":{"ha":446,"x_min":35,"x_max":432,"o":"m 35 0 l 35 821 l 432 821 l 432 667 l 265 667 l 265 0 l 35 0 z "},"ẞ":{"ha":1131,"x_min":28,"x_max":1103,"o":"m 832 -11 q 693 9 750 -11 q 608 83 636 29 q 579 235 579 136 l 579 286 q 695 286 638 286 q 811 286 753 286 l 811 215 q 815 159 811 178 q 824 134 818 140 q 840 128 831 128 q 862 142 856 128 q 868 204 868 157 q 854 269 868 249 q 808 304 840 290 q 719 342 775 318 q 639 398 668 365 q 598 477 610 431 q 586 586 586 524 q 609 726 586 674 q 688 801 632 778 q 840 824 743 824 q 1029 774 965 824 q 1093 624 1093 725 l 1093 518 q 983 518 1038 518 q 872 518 928 518 l 872 554 q 869 630 872 611 q 843 649 865 649 q 820 636 825 649 q 815 593 815 624 q 831 532 815 553 q 874 501 847 511 q 929 479 900 490 q 1028 433 990 457 q 1085 365 1067 408 q 1103 238 1103 321 q 1069 90 1103 144 q 976 12 1036 35 q 832 -11 915 -11 m 281 -11 q 142 9 199 -11 q 56 83 85 29 q 28 235 28 136 l 28 286 q 144 286 86 286 q 260 286 201 286 l 260 215 q 263 159 260 178 q 273 134 267 140 q 289 128 279 128 q 310 142 304 128 q 317 204 317 157 q 303 269 317 249 q 256 304 289 290 q 168 342 224 318 q 88 398 117 365 q 47 477 58 431 q 35 586 35 524 q 58 726 35 674 q 136 801 81 778 q 289 824 192 824 q 478 774 414 824 q 542 624 542 725 l 542 518 q 431 518 486 518 q 321 518 376 518 l 321 554 q 317 630 321 611 q 292 649 314 649 q 269 636 274 649 q 264 593 264 624 q 280 532 264 553 q 322 501 296 511 q 378 479 349 490 q 477 433 439 457 q 533 365 515 408 q 551 238 551 321 q 518 90 551 144 q 424 12 485 35 q 281 -11 364 -11 z "},"Ѓ":{"ha":446,"x_min":35,"x_max":432,"o":"m 35 0 l 35 821 l 432 821 l 432 667 l 265 667 l 265 0 l 35 0 m 126 882 l 233 1025 l 425 1025 l 244 882 l 126 882 z "},"H":{"ha":561,"x_min":35,"x_max":526,"o":"m 35 0 l 35 821 l 256 821 l 256 503 l 306 503 l 306 821 l 526 821 l 526 0 l 306 0 l 306 340 l 256 340 l 256 0 l 35 0 z "},"Х":{"ha":561,"x_min":7,"x_max":554,"o":"m 7 0 l 119 426 l 10 821 l 231 821 l 279 606 l 319 821 l 554 821 l 447 426 l 551 0 l 331 0 l 282 214 l 242 0 l 7 0 z "},"Ъ":{"ha":590,"x_min":7,"x_max":556,"o":"m 75 0 l 75 667 l 7 667 l 7 821 l 292 821 l 292 606 l 401 606 q 472 595 436 606 q 531 552 507 585 q 556 450 556 519 l 556 224 q 541 99 556 144 q 501 33 526 54 q 441 6 475 13 q 367 0 407 0 l 75 0 m 292 111 l 317 111 q 331 118 326 111 q 338 150 336 125 q 339 231 339 175 l 339 404 q 338 447 339 432 q 331 467 336 461 q 315 474 326 474 l 292 474 l 292 111 z "},"Ħ":{"ha":561,"x_min":0,"x_max":564,"o":"m 0 656 l 0 756 l 564 756 l 564 656 l 0 656 m 35 0 l 35 821 l 256 821 l 256 503 l 306 503 l 306 821 l 526 821 l 526 0 l 306 0 l 306 340 l 256 340 l 256 0 l 35 0 z "},"I":{"ha":290,"x_min":35,"x_max":256,"o":"m 35 0 l 35 821 l 256 821 l 256 0 l 35 0 z "},"І":{"ha":290,"x_min":35,"x_max":256,"o":"m 35 0 l 35 821 l 256 821 l 256 0 l 35 0 z "},"Я":{"ha":589,"x_min":7,"x_max":554,"o":"m 554 0 l 324 0 l 324 329 l 319 329 q 313 322 317 329 q 307 302 310 315 q 300 269 304 289 l 253 0 l 7 0 l 79 283 q 110 355 92 333 q 178 386 129 376 l 178 389 q 76 447 104 397 q 47 556 47 496 l 47 681 q 88 781 47 742 q 221 821 129 821 l 554 821 l 554 0 m 324 482 l 324 704 l 297 704 q 272 691 279 704 q 264 640 264 678 l 264 550 q 274 497 264 513 q 301 482 283 482 l 324 482 z "},"Í":{"ha":290,"x_min":35,"x_max":347,"o":"m 35 0 l 35 821 l 256 821 l 256 0 l 35 0 m 49 882 l 156 1025 l 347 1025 l 167 882 l 49 882 z "},"Ǐ":{"ha":290,"x_min":-53,"x_max":344,"o":"m 35 0 l 35 821 l 256 821 l 256 0 l 35 0 m 88 878 l -53 1029 l 82 1029 l 147 969 l 213 1028 l 344 1028 l 203 878 l 88 878 z "},"Î":{"ha":290,"x_min":-53,"x_max":344,"o":"m 35 0 l 35 821 l 256 821 l 256 0 l 35 0 m -53 878 l 88 1029 l 203 1029 l 344 879 l 213 879 l 147 938 l 82 878 l -53 878 z "},"Ï":{"ha":290,"x_min":-33,"x_max":324,"o":"m 35 0 l 35 821 l 256 821 l 256 0 l 35 0 m 50 875 q -10 898 14 875 q -33 954 -33 921 q -10 1010 -33 988 q 50 1032 14 1032 q 108 1010 85 1032 q 131 954 131 988 q 108 898 131 921 q 50 875 85 875 m 243 875 q 183 898 207 875 q 160 954 160 921 q 183 1010 160 988 q 243 1032 207 1032 q 301 1010 278 1032 q 324 954 324 988 q 301 898 324 921 q 243 875 278 875 z "},"İ":{"ha":290,"x_min":35,"x_max":279,"o":"m 35 0 l 35 821 l 256 821 l 256 0 l 35 0 m 169 876 q 96 906 126 876 q 64 979 65 936 q 96 1051 64 1021 q 171 1081 128 1081 q 247 1051 215 1081 q 278 978 278 1021 q 247 906 279 936 q 169 876 214 876 z "},"Ị":{"ha":290,"x_min":35,"x_max":256,"o":"m 35 0 l 35 821 l 256 821 l 256 0 l 35 0 m 144 -204 q 86 -181 110 -204 q 63 -125 63 -157 q 86 -68 63 -92 q 144 -44 110 -44 q 204 -68 179 -44 q 229 -125 229 -92 q 204 -181 229 -157 q 144 -204 179 -204 z "},"Е":{"ha":456,"x_min":35,"x_max":432,"o":"m 35 0 l 35 821 l 432 821 l 432 667 l 265 667 l 265 507 l 418 507 l 418 333 l 265 333 l 265 150 l 432 150 l 432 0 l 35 0 z "},"Ѐ":{"ha":456,"x_min":31,"x_max":432,"o":"m 35 0 l 35 821 l 432 821 l 432 667 l 265 667 l 265 507 l 418 507 l 418 333 l 265 333 l 265 150 l 432 150 l 432 0 l 35 0 m 196 882 l 31 1018 l 226 1018 l 328 882 l 196 882 z "},"Ì":{"ha":290,"x_min":-60,"x_max":256,"o":"m 35 0 l 35 821 l 256 821 l 256 0 l 35 0 m 106 882 l -60 1018 l 136 1018 l 238 882 l 106 882 z "},"Ỉ":{"ha":290,"x_min":17,"x_max":261,"o":"m 35 0 l 35 821 l 256 821 l 256 0 l 35 0 m 85 872 l 85 885 q 99 917 85 906 q 126 937 113 928 q 140 961 140 946 l 140 971 q 138 988 140 979 q 125 997 135 997 q 110 969 110 997 l 17 983 q 49 1050 19 1028 q 135 1072 78 1072 q 229 1056 197 1072 q 261 975 261 1040 l 261 969 q 245 926 261 938 q 214 908 229 914 q 199 885 199 901 l 199 872 l 85 872 z "},"И":{"ha":554,"x_min":35,"x_max":519,"o":"m 35 0 l 35 821 l 228 821 l 228 439 l 328 821 l 519 821 l 519 0 l 326 0 l 326 340 l 225 0 l 35 0 z "},"Ѝ":{"ha":554,"x_min":35,"x_max":519,"o":"m 35 0 l 35 821 l 228 821 l 228 439 l 328 821 l 519 821 l 519 0 l 326 0 l 326 340 l 225 0 l 35 0 m 238 882 l 72 1018 l 268 1018 l 369 882 l 238 882 z "},"Й":{"ha":554,"x_min":35,"x_max":519,"o":"m 35 0 l 35 821 l 228 821 l 228 439 l 328 821 l 519 821 l 519 0 l 326 0 l 326 340 l 225 0 l 35 0 m 275 876 q 165 902 201 876 q 116 963 128 928 q 104 1026 104 999 l 218 1026 q 236 989 218 1001 q 276 976 254 976 q 317 988 300 976 q 336 1026 335 1000 l 451 1026 q 433 951 451 985 q 377 897 415 917 q 275 876 339 876 z "},"Ī":{"ha":290,"x_min":-8,"x_max":300,"o":"m 35 0 l 35 821 l 256 821 l 256 0 l 35 0 m -8 892 l -8 999 l 300 999 l 300 892 l -8 892 z "},"Ё":{"ha":456,"x_min":35,"x_max":432,"o":"m 35 0 l 35 821 l 432 821 l 432 667 l 265 667 l 265 507 l 418 507 l 418 333 l 265 333 l 265 150 l 432 150 l 432 0 l 35 0 m 140 875 q 81 898 104 875 q 57 954 57 921 q 81 1010 57 988 q 140 1032 104 1032 q 198 1010 175 1032 q 221 954 221 988 q 198 898 221 921 q 140 875 175 875 m 333 875 q 274 898 297 875 q 250 954 250 921 q 274 1010 250 988 q 333 1032 297 1032 q 391 1010 368 1032 q 414 954 414 988 q 391 898 414 921 q 333 875 368 875 z "},"Į":{"ha":290,"x_min":35,"x_max":285,"o":"m 35 0 l 35 821 l 256 821 l 256 0 l 35 0 m 178 -210 q 83 -180 118 -210 q 49 -115 49 -150 q 83 -40 49 -76 q 174 3 117 -3 l 256 0 q 201 -35 218 -10 q 185 -85 185 -61 q 202 -124 185 -110 q 236 -137 219 -137 q 252 -135 246 -137 q 261 -133 258 -133 l 285 -185 q 254 -199 278 -189 q 178 -210 231 -210 z "},"Ĩ":{"ha":290,"x_min":-39,"x_max":315,"o":"m 35 0 l 35 821 l 256 821 l 256 0 l 35 0 m 207 882 q 163 892 183 882 q 122 911 142 901 q 90 927 106 921 q 57 933 74 933 q 29 919 39 933 q 18 883 19 904 l -39 883 q -12 989 -39 949 q 60 1029 15 1029 q 106 1022 85 1029 q 144 1004 126 1014 q 177 989 161 996 q 208 982 193 982 q 240 995 231 982 q 251 1025 249 1008 l 315 1025 q 298 946 315 978 q 256 898 281 914 q 207 882 231 882 z "},"Ю":{"ha":836,"x_min":35,"x_max":801,"o":"m 558 -17 q 426 1 483 -17 q 338 75 369 19 q 306 240 306 131 l 306 340 l 256 340 l 256 0 l 35 0 l 35 821 l 256 821 l 256 503 l 306 503 l 306 646 q 338 756 306 715 q 426 815 369 797 q 558 833 483 833 q 689 815 635 833 q 772 756 743 797 q 801 646 801 715 l 801 242 q 772 75 801 131 q 689 1 743 19 q 558 -17 635 -17 m 558 111 q 570 115 565 111 q 578 128 575 118 q 581 153 581 138 l 581 657 q 578 683 581 674 q 570 695 575 692 q 558 699 565 699 q 546 695 551 699 q 538 683 540 692 q 536 657 536 674 l 536 153 q 538 128 536 138 q 546 115 540 118 q 558 111 551 111 z "},"J":{"ha":367,"x_min":7,"x_max":332,"o":"m 82 -1 q 44 -1 71 -1 q 7 0 18 -1 l 7 150 l 47 150 q 99 163 88 150 q 111 217 111 176 l 111 821 l 332 821 l 332 221 q 306 85 332 133 q 226 17 281 36 q 82 -1 171 -1 z "},"Ј":{"ha":367,"x_min":7,"x_max":332,"o":"m 82 -1 q 44 -1 71 -1 q 7 0 18 -1 l 7 150 l 47 150 q 99 163 88 150 q 111 217 111 176 l 111 821 l 332 821 l 332 221 q 306 85 332 133 q 226 17 281 36 q 82 -1 171 -1 z "},"K":{"ha":610,"x_min":35,"x_max":603,"o":"m 365 0 l 253 425 l 365 821 l 600 821 l 467 426 l 603 0 l 365 0 m 35 0 l 35 821 l 256 821 l 256 0 l 35 0 z "},"К":{"ha":650,"x_min":35,"x_max":643,"o":"m 35 0 l 35 821 l 256 821 l 256 478 l 308 478 l 406 821 l 640 821 l 507 426 l 643 0 l 406 0 l 317 333 l 256 333 l 256 0 l 35 0 z "},"Ķ":{"ha":610,"x_min":35,"x_max":603,"o":"m 365 0 l 253 425 l 365 821 l 600 821 l 467 426 l 603 0 l 365 0 m 35 0 l 35 821 l 256 821 l 256 0 l 35 0 m 213 -293 q 249 -233 236 -260 q 261 -190 261 -207 q 249 -171 261 -179 q 226 -150 238 -162 q 215 -117 215 -137 q 240 -71 215 -92 q 303 -50 264 -50 q 369 -72 343 -50 q 394 -126 394 -93 q 379 -178 394 -147 q 342 -240 364 -210 q 299 -293 321 -271 l 213 -293 z "},"Ќ":{"ha":650,"x_min":35,"x_max":643,"o":"m 35 0 l 35 821 l 256 821 l 256 478 l 308 478 l 406 821 l 640 821 l 507 426 l 643 0 l 406 0 l 317 333 l 256 333 l 256 0 l 35 0 m 228 882 l 335 1025 l 526 1025 l 346 882 l 228 882 z "},"L":{"ha":418,"x_min":35,"x_max":404,"o":"m 35 0 l 35 821 l 253 821 l 253 150 l 404 150 l 404 0 l 35 0 z "},"Ĺ":{"ha":418,"x_min":35,"x_max":411,"o":"m 35 0 l 35 821 l 253 821 l 253 150 l 404 150 l 404 0 l 35 0 m 113 882 l 219 1025 l 411 1025 l 231 882 l 113 882 z "},"Ľ":{"ha":457,"x_min":35,"x_max":468,"o":"m 35 0 l 35 821 l 253 821 l 253 150 l 404 150 l 404 0 l 35 0 m 301 619 l 340 843 l 468 843 l 375 619 l 301 619 z "},"Ļ":{"ha":418,"x_min":35,"x_max":404,"o":"m 35 0 l 35 821 l 253 821 l 253 150 l 404 150 l 404 0 l 35 0 m 122 -293 q 158 -233 146 -260 q 171 -190 171 -207 q 159 -171 171 -179 q 136 -150 147 -162 q 125 -117 125 -137 q 149 -71 125 -92 q 213 -50 174 -50 q 278 -72 253 -50 q 304 -126 304 -93 q 289 -178 304 -147 q 252 -240 274 -210 q 208 -293 231 -271 l 122 -293 z "},"Љ":{"ha":907,"x_min":7,"x_max":872,"o":"m 7 0 l 7 110 q 57 144 32 110 q 85 217 82 178 l 129 821 l 613 821 l 613 0 l 392 0 l 392 667 l 346 667 l 306 161 q 300 103 303 132 q 284 51 297 75 q 240 14 271 28 q 151 0 210 0 l 7 0 m 614 111 l 639 111 q 653 118 649 111 q 660 150 658 125 q 661 231 661 175 l 661 404 q 660 447 661 432 q 653 467 658 461 q 638 474 649 474 l 614 474 l 614 111 m 392 0 l 392 821 l 608 821 l 608 606 l 718 606 q 788 595 753 606 q 848 552 824 585 q 872 450 872 519 l 872 224 q 858 99 872 144 q 817 33 843 54 q 758 6 792 13 q 683 0 724 0 l 392 0 z "},"Ł":{"ha":490,"x_min":21,"x_max":463,"o":"m 93 0 l 93 215 l 21 183 l 21 272 l 93 304 l 93 813 l 311 813 l 311 401 l 396 439 l 396 351 l 311 313 l 311 150 l 463 150 l 463 0 l 93 0 z "},"M":{"ha":750,"x_min":35,"x_max":715,"o":"m 35 0 l 35 821 l 315 821 l 375 401 l 435 821 l 715 821 l 715 0 l 522 0 l 522 572 l 449 0 l 301 0 l 228 572 l 228 0 l 35 0 z "},"N":{"ha":554,"x_min":35,"x_max":519,"o":"m 35 0 l 35 821 l 226 821 l 326 439 l 326 821 l 519 821 l 519 0 l 329 0 l 228 340 l 228 0 l 35 0 z "},"Ń":{"ha":554,"x_min":35,"x_max":519,"o":"m 35 0 l 35 821 l 226 821 l 326 439 l 326 821 l 519 821 l 519 0 l 329 0 l 228 340 l 228 0 l 35 0 m 185 882 l 292 1025 l 483 1025 l 303 882 l 185 882 z "},"Ň":{"ha":554,"x_min":35,"x_max":519,"o":"m 35 0 l 35 821 l 226 821 l 326 439 l 326 821 l 519 821 l 519 0 l 329 0 l 228 340 l 228 0 l 35 0 m 224 878 l 83 1029 l 218 1029 l 283 969 l 349 1028 l 481 1028 l 339 878 l 224 878 z "},"Ņ":{"ha":554,"x_min":35,"x_max":519,"o":"m 35 0 l 35 821 l 226 821 l 326 439 l 326 821 l 519 821 l 519 0 l 329 0 l 228 340 l 228 0 l 35 0 m 185 -293 q 221 -233 208 -260 q 233 -190 233 -207 q 222 -171 233 -179 q 199 -150 210 -162 q 188 -117 188 -137 q 212 -71 188 -92 q 275 -50 236 -50 q 341 -72 315 -50 q 367 -126 367 -93 q 351 -178 367 -147 q 315 -240 336 -210 q 271 -293 293 -271 l 185 -293 z "},"Њ":{"ha":833,"x_min":35,"x_max":790,"o":"m 35 0 l 35 821 l 256 821 l 256 503 l 306 503 l 306 821 l 526 821 l 526 606 l 636 606 q 706 595 671 606 q 766 552 742 585 q 790 450 790 519 l 790 224 q 776 99 790 144 q 735 33 761 54 q 676 6 710 13 q 601 0 642 0 l 306 0 l 306 340 l 256 340 l 256 0 l 35 0 m 526 113 l 551 113 q 566 119 561 113 q 572 149 571 125 q 574 225 574 174 l 574 364 q 572 438 574 414 q 566 467 571 461 q 550 474 561 474 l 526 474 l 526 113 z "},"Ñ":{"ha":554,"x_min":35,"x_max":519,"o":"m 35 0 l 35 821 l 226 821 l 326 439 l 326 821 l 519 821 l 519 0 l 329 0 l 228 340 l 228 0 l 35 0 m 343 882 q 299 892 319 882 q 258 911 278 901 q 226 927 242 921 q 193 933 210 933 q 165 919 175 933 q 154 883 156 904 l 97 883 q 124 989 97 949 q 196 1029 151 1029 q 242 1022 221 1029 q 281 1004 263 1014 q 313 989 297 996 q 344 982 329 982 q 376 995 367 982 q 388 1025 385 1008 l 451 1025 q 434 946 451 978 q 392 898 417 914 q 343 882 367 882 z "},"O":{"ha":551,"x_min":28,"x_max":524,"o":"m 274 -17 q 144 1 200 -17 q 58 75 89 19 q 28 240 28 131 l 28 646 q 58 756 28 715 q 144 815 89 797 q 274 833 200 833 q 403 815 347 833 q 492 756 460 797 q 524 646 524 715 l 524 242 q 492 75 524 131 q 403 1 460 19 q 274 -17 347 -17 m 274 111 q 289 116 282 111 q 299 131 296 121 q 303 153 303 140 l 303 657 q 299 679 303 669 q 289 694 296 689 q 274 699 282 699 q 259 694 265 699 q 249 679 253 689 q 244 657 244 669 l 244 153 q 249 131 244 140 q 259 116 253 121 q 274 111 265 111 z "},"О":{"ha":551,"x_min":28,"x_max":524,"o":"m 274 -17 q 144 1 200 -17 q 58 75 89 19 q 28 240 28 131 l 28 646 q 58 756 28 715 q 144 815 89 797 q 274 833 200 833 q 403 815 347 833 q 492 756 460 797 q 524 646 524 715 l 524 242 q 492 75 524 131 q 403 1 460 19 q 274 -17 347 -17 m 274 111 q 289 116 282 111 q 299 131 296 121 q 303 153 303 140 l 303 657 q 299 679 303 669 q 289 694 296 689 q 274 699 282 699 q 259 694 265 699 q 249 679 253 689 q 244 657 244 669 l 244 153 q 249 131 244 140 q 259 116 253 121 q 274 111 265 111 z "},"Œ":{"ha":753,"x_min":28,"x_max":729,"o":"m 274 -17 q 144 1 200 -17 q 58 75 89 19 q 28 240 28 131 l 28 646 q 58 756 28 715 q 144 815 89 797 q 274 833 200 833 q 389 815 339 833 q 467 756 439 797 q 496 646 496 715 l 496 242 q 467 75 496 131 q 389 1 439 19 q 274 -17 339 -17 m 274 111 q 289 116 282 111 q 299 131 296 121 q 303 153 303 140 l 303 657 q 299 679 303 669 q 289 694 296 689 q 274 699 282 699 q 259 694 265 699 q 249 679 253 689 q 244 657 244 669 l 244 153 q 249 131 244 140 q 259 116 253 121 q 274 111 265 111 m 304 0 l 304 821 l 729 821 l 729 667 l 524 667 l 524 507 l 715 507 l 715 333 l 524 333 l 524 150 l 729 150 l 729 0 l 304 0 z "},"Ó":{"ha":551,"x_min":28,"x_max":524,"o":"m 274 -17 q 144 1 200 -17 q 58 75 89 19 q 28 240 28 131 l 28 646 q 58 756 28 715 q 144 815 89 797 q 274 833 200 833 q 403 815 347 833 q 492 756 460 797 q 524 646 524 715 l 524 242 q 492 75 524 131 q 403 1 460 19 q 274 -17 347 -17 m 274 111 q 289 116 282 111 q 299 131 296 121 q 303 153 303 140 l 303 657 q 299 679 303 669 q 289 694 296 689 q 274 699 282 699 q 259 694 265 699 q 249 679 253 689 q 244 657 244 669 l 244 153 q 249 131 244 140 q 259 116 253 121 q 274 111 265 111 m 179 882 l 286 1025 l 478 1025 l 297 882 l 179 882 z "},"Ǒ":{"ha":551,"x_min":28,"x_max":524,"o":"m 274 -17 q 144 1 200 -17 q 58 75 89 19 q 28 240 28 131 l 28 646 q 58 756 28 715 q 144 815 89 797 q 274 833 200 833 q 403 815 347 833 q 492 756 460 797 q 524 646 524 715 l 524 242 q 492 75 524 131 q 403 1 460 19 q 274 -17 347 -17 m 274 111 q 289 116 282 111 q 299 131 296 121 q 303 153 303 140 l 303 657 q 299 679 303 669 q 289 694 296 689 q 274 699 282 699 q 259 694 265 699 q 249 679 253 689 q 244 657 244 669 l 244 153 q 249 131 244 140 q 259 116 253 121 q 274 111 265 111 m 218 878 l 78 1029 l 213 1029 l 278 969 l 343 1028 l 475 1028 l 333 878 l 218 878 z "},"Ô":{"ha":551,"x_min":28,"x_max":524,"o":"m 274 -17 q 144 1 200 -17 q 58 75 89 19 q 28 240 28 131 l 28 646 q 58 756 28 715 q 144 815 89 797 q 274 833 200 833 q 403 815 347 833 q 492 756 460 797 q 524 646 524 715 l 524 242 q 492 75 524 131 q 403 1 460 19 q 274 -17 347 -17 m 274 111 q 289 116 282 111 q 299 131 296 121 q 303 153 303 140 l 303 657 q 299 679 303 669 q 289 694 296 689 q 274 699 282 699 q 259 694 265 699 q 249 679 253 689 q 244 657 244 669 l 244 153 q 249 131 244 140 q 259 116 253 121 q 274 111 265 111 m 78 878 l 218 1029 l 333 1029 l 475 879 l 343 879 l 278 938 l 213 878 l 78 878 z "},"Ố":{"ha":551,"x_min":28,"x_max":689,"o":"m 274 -17 q 144 1 200 -17 q 58 75 89 19 q 28 240 28 131 l 28 646 q 58 756 28 715 q 144 815 89 797 q 274 833 200 833 q 403 815 347 833 q 492 756 460 797 q 524 646 524 715 l 524 242 q 492 75 524 131 q 403 1 460 19 q 274 -17 347 -17 m 274 111 q 289 116 282 111 q 299 131 296 121 q 303 153 303 140 l 303 657 q 299 679 303 669 q 289 694 296 689 q 274 699 282 699 q 259 694 265 699 q 249 679 253 689 q 244 657 244 669 l 244 153 q 249 131 244 140 q 259 116 253 121 q 274 111 265 111 m 118 868 l 221 997 l 331 997 l 435 868 l 314 868 l 278 913 l 242 868 l 118 868 m 433 958 l 490 1071 l 689 1071 l 569 958 l 433 958 z "},"Ộ":{"ha":551,"x_min":28,"x_max":524,"o":"m 274 -17 q 144 1 200 -17 q 58 75 89 19 q 28 240 28 131 l 28 646 q 58 756 28 715 q 144 815 89 797 q 274 833 200 833 q 403 815 347 833 q 492 756 460 797 q 524 646 524 715 l 524 242 q 492 75 524 131 q 403 1 460 19 q 274 -17 347 -17 m 274 111 q 289 116 282 111 q 299 131 296 121 q 303 153 303 140 l 303 657 q 299 679 303 669 q 289 694 296 689 q 274 699 282 699 q 259 694 265 699 q 249 679 253 689 q 244 657 244 669 l 244 153 q 249 131 244 140 q 259 116 253 121 q 274 111 265 111 m 275 -204 q 217 -181 240 -204 q 193 -125 193 -157 q 217 -68 193 -92 q 275 -44 240 -44 q 335 -68 310 -44 q 360 -125 360 -92 q 335 -181 360 -157 q 275 -204 310 -204 m 78 878 l 218 1029 l 333 1029 l 475 879 l 343 879 l 278 938 l 213 878 l 78 878 z "},"Ồ":{"ha":551,"x_min":28,"x_max":589,"o":"m 274 -17 q 144 1 200 -17 q 58 75 89 19 q 28 240 28 131 l 28 646 q 58 756 28 715 q 144 815 89 797 q 274 833 200 833 q 403 815 347 833 q 492 756 460 797 q 524 646 524 715 l 524 242 q 492 75 524 131 q 403 1 460 19 q 274 -17 347 -17 m 274 111 q 289 116 282 111 q 299 131 296 121 q 303 153 303 140 l 303 657 q 299 679 303 669 q 289 694 296 689 q 274 699 282 699 q 259 694 265 699 q 249 679 253 689 q 244 657 244 669 l 244 153 q 249 131 244 140 q 259 116 253 121 q 274 111 265 111 m 118 868 l 221 997 l 331 997 l 435 868 l 314 868 l 278 913 l 242 868 l 118 868 m 453 956 l 333 1068 l 532 1068 l 589 956 l 453 956 z "},"Ổ":{"ha":551,"x_min":28,"x_max":585,"o":"m 274 -17 q 144 1 200 -17 q 58 75 89 19 q 28 240 28 131 l 28 646 q 58 756 28 715 q 144 815 89 797 q 274 833 200 833 q 403 815 347 833 q 492 756 460 797 q 524 646 524 715 l 524 242 q 492 75 524 131 q 403 1 460 19 q 274 -17 347 -17 m 274 111 q 289 116 282 111 q 299 131 296 121 q 303 153 303 140 l 303 657 q 299 679 303 669 q 289 694 296 689 q 274 699 282 699 q 259 694 265 699 q 249 679 253 689 q 244 657 244 669 l 244 153 q 249 131 244 140 q 259 116 253 121 q 274 111 265 111 m 118 868 l 221 997 l 331 997 l 435 868 l 314 868 l 278 913 l 242 868 l 118 868 m 431 947 l 431 951 q 442 975 431 967 q 464 990 453 983 q 475 1004 475 996 l 475 1013 q 473 1024 475 1022 q 468 1026 471 1026 q 460 1011 460 1026 l 376 1022 q 401 1078 378 1058 q 476 1097 424 1097 q 561 1084 538 1097 q 585 1018 585 1071 l 585 1013 q 574 982 585 990 q 553 969 564 974 q 543 954 543 965 l 543 947 l 431 947 z "},"Ỗ":{"ha":551,"x_min":28,"x_max":524,"o":"m 274 -17 q 144 1 200 -17 q 58 75 89 19 q 28 240 28 131 l 28 646 q 58 756 28 715 q 144 815 89 797 q 274 833 200 833 q 403 815 347 833 q 492 756 460 797 q 524 646 524 715 l 524 242 q 492 75 524 131 q 403 1 460 19 q 274 -17 347 -17 m 274 111 q 289 116 282 111 q 299 131 296 121 q 303 153 303 140 l 303 657 q 299 679 303 669 q 289 694 296 689 q 274 699 282 699 q 259 694 265 699 q 249 679 253 689 q 244 657 244 669 l 244 153 q 249 131 244 140 q 259 116 253 121 q 274 111 265 111 m 118 868 l 221 997 l 331 997 l 435 868 l 314 868 l 278 913 l 242 868 l 118 868 m 331 1024 q 294 1032 313 1024 q 263 1046 276 1040 q 236 1056 249 1053 q 213 1060 224 1060 q 194 1049 200 1060 q 188 1025 188 1038 l 136 1025 q 157 1117 135 1082 q 215 1153 179 1153 q 251 1148 233 1153 q 283 1136 269 1143 q 308 1126 296 1131 q 332 1121 319 1121 q 355 1131 350 1121 q 361 1149 360 1140 l 421 1149 q 406 1079 422 1107 q 369 1038 390 1051 q 331 1024 349 1024 z "},"Ö":{"ha":551,"x_min":28,"x_max":524,"o":"m 274 -17 q 144 1 200 -17 q 58 75 89 19 q 28 240 28 131 l 28 646 q 58 756 28 715 q 144 815 89 797 q 274 833 200 833 q 403 815 347 833 q 492 756 460 797 q 524 646 524 715 l 524 242 q 492 75 524 131 q 403 1 460 19 q 274 -17 347 -17 m 274 111 q 289 116 282 111 q 299 131 296 121 q 303 153 303 140 l 303 657 q 299 679 303 669 q 289 694 296 689 q 274 699 282 699 q 259 694 265 699 q 249 679 253 689 q 244 657 244 669 l 244 153 q 249 131 244 140 q 259 116 253 121 q 274 111 265 111 m 181 875 q 121 898 144 875 q 97 954 97 921 q 121 1010 97 988 q 181 1032 144 1032 q 238 1010 215 1032 q 261 954 261 988 q 238 898 261 921 q 181 875 215 875 m 374 875 q 314 898 338 875 q 290 954 290 921 q 314 1010 290 988 q 374 1032 338 1032 q 431 1010 408 1032 q 454 954 454 988 q 431 898 454 921 q 374 875 408 875 z "},"Ọ":{"ha":551,"x_min":28,"x_max":524,"o":"m 274 -17 q 144 1 200 -17 q 58 75 89 19 q 28 240 28 131 l 28 646 q 58 756 28 715 q 144 815 89 797 q 274 833 200 833 q 403 815 347 833 q 492 756 460 797 q 524 646 524 715 l 524 242 q 492 75 524 131 q 403 1 460 19 q 274 -17 347 -17 m 274 111 q 289 116 282 111 q 299 131 296 121 q 303 153 303 140 l 303 657 q 299 679 303 669 q 289 694 296 689 q 274 699 282 699 q 259 694 265 699 q 249 679 253 689 q 244 657 244 669 l 244 153 q 249 131 244 140 q 259 116 253 121 q 274 111 265 111 m 275 -204 q 217 -181 240 -204 q 193 -125 193 -157 q 217 -68 193 -92 q 275 -44 240 -44 q 335 -68 310 -44 q 360 -125 360 -92 q 335 -181 360 -157 q 275 -204 310 -204 z "},"Ò":{"ha":551,"x_min":28,"x_max":524,"o":"m 274 -17 q 144 1 200 -17 q 58 75 89 19 q 28 240 28 131 l 28 646 q 58 756 28 715 q 144 815 89 797 q 274 833 200 833 q 403 815 347 833 q 492 756 460 797 q 524 646 524 715 l 524 242 q 492 75 524 131 q 403 1 460 19 q 274 -17 347 -17 m 274 111 q 289 116 282 111 q 299 131 296 121 q 303 153 303 140 l 303 657 q 299 679 303 669 q 289 694 296 689 q 274 699 282 699 q 259 694 265 699 q 249 679 253 689 q 244 657 244 669 l 244 153 q 249 131 244 140 q 259 116 253 121 q 274 111 265 111 m 236 882 l 71 1018 l 267 1018 l 368 882 l 236 882 z "},"Ỏ":{"ha":551,"x_min":28,"x_max":524,"o":"m 274 -17 q 144 1 200 -17 q 58 75 89 19 q 28 240 28 131 l 28 646 q 58 756 28 715 q 144 815 89 797 q 274 833 200 833 q 403 815 347 833 q 492 756 460 797 q 524 646 524 715 l 524 242 q 492 75 524 131 q 403 1 460 19 q 274 -17 347 -17 m 274 111 q 289 116 282 111 q 299 131 296 121 q 303 153 303 140 l 303 657 q 299 679 303 669 q 289 694 296 689 q 274 699 282 699 q 259 694 265 699 q 249 679 253 689 q 244 657 244 669 l 244 153 q 249 131 244 140 q 259 116 253 121 q 274 111 265 111 m 215 872 l 215 885 q 229 917 215 906 q 257 937 243 928 q 271 961 271 946 l 271 971 q 268 988 271 979 q 256 997 265 997 q 240 969 240 997 l 147 983 q 179 1050 150 1028 q 265 1072 208 1072 q 360 1056 328 1072 q 392 975 392 1040 l 392 969 q 376 926 392 938 q 344 908 360 914 q 329 885 329 901 l 329 872 l 215 872 z "},"Ơ":{"ha":551,"x_min":28,"x_max":561,"o":"m 274 -17 q 144 1 200 -17 q 58 75 89 19 q 28 240 28 131 l 28 646 q 58 756 28 715 q 144 815 89 797 q 274 833 200 833 q 403 815 347 833 q 492 756 460 797 q 524 646 524 715 l 524 242 q 492 75 524 131 q 403 1 460 19 q 274 -17 347 -17 m 274 111 q 289 116 282 111 q 299 131 296 121 q 303 153 303 140 l 303 657 q 299 679 303 669 q 289 694 296 689 q 274 699 282 699 q 259 694 265 699 q 249 679 253 689 q 244 657 244 669 l 244 153 q 249 131 244 140 q 259 116 253 121 q 274 111 265 111 m 335 729 l 335 821 l 364 821 q 422 886 422 821 l 422 914 l 561 914 l 561 886 q 505 764 561 799 q 335 729 449 729 z "},"Ớ":{"ha":551,"x_min":28,"x_max":561,"o":"m 274 -17 q 144 1 200 -17 q 58 75 89 19 q 28 240 28 131 l 28 646 q 58 756 28 715 q 144 815 89 797 q 274 833 200 833 q 403 815 347 833 q 492 756 460 797 q 524 646 524 715 l 524 242 q 492 75 524 131 q 403 1 460 19 q 274 -17 347 -17 m 274 111 q 289 116 282 111 q 299 131 296 121 q 303 153 303 140 l 303 657 q 299 679 303 669 q 289 694 296 689 q 274 699 282 699 q 259 694 265 699 q 249 679 253 689 q 244 657 244 669 l 244 153 q 249 131 244 140 q 259 116 253 121 q 274 111 265 111 m 335 729 l 335 821 l 364 821 q 422 886 422 821 l 422 914 l 561 914 l 561 886 q 505 764 561 799 q 335 729 449 729 m 179 882 l 286 1025 l 478 1025 l 297 882 l 179 882 z "},"Ợ":{"ha":551,"x_min":28,"x_max":561,"o":"m 274 -17 q 144 1 200 -17 q 58 75 89 19 q 28 240 28 131 l 28 646 q 58 756 28 715 q 144 815 89 797 q 274 833 200 833 q 403 815 347 833 q 492 756 460 797 q 524 646 524 715 l 524 242 q 492 75 524 131 q 403 1 460 19 q 274 -17 347 -17 m 274 111 q 289 116 282 111 q 299 131 296 121 q 303 153 303 140 l 303 657 q 299 679 303 669 q 289 694 296 689 q 274 699 282 699 q 259 694 265 699 q 249 679 253 689 q 244 657 244 669 l 244 153 q 249 131 244 140 q 259 116 253 121 q 274 111 265 111 m 335 729 l 335 821 l 364 821 q 422 886 422 821 l 422 914 l 561 914 l 561 886 q 505 764 561 799 q 335 729 449 729 m 275 -204 q 217 -181 240 -204 q 193 -125 193 -157 q 217 -68 193 -92 q 275 -44 240 -44 q 335 -68 310 -44 q 360 -125 360 -92 q 335 -181 360 -157 q 275 -204 310 -204 z "},"Ờ":{"ha":551,"x_min":28,"x_max":561,"o":"m 274 -17 q 144 1 200 -17 q 58 75 89 19 q 28 240 28 131 l 28 646 q 58 756 28 715 q 144 815 89 797 q 274 833 200 833 q 403 815 347 833 q 492 756 460 797 q 524 646 524 715 l 524 242 q 492 75 524 131 q 403 1 460 19 q 274 -17 347 -17 m 274 111 q 289 116 282 111 q 299 131 296 121 q 303 153 303 140 l 303 657 q 299 679 303 669 q 289 694 296 689 q 274 699 282 699 q 259 694 265 699 q 249 679 253 689 q 244 657 244 669 l 244 153 q 249 131 244 140 q 259 116 253 121 q 274 111 265 111 m 335 729 l 335 821 l 364 821 q 422 886 422 821 l 422 914 l 561 914 l 561 886 q 505 764 561 799 q 335 729 449 729 m 236 882 l 71 1018 l 267 1018 l 368 882 l 236 882 z "},"Ở":{"ha":551,"x_min":28,"x_max":561,"o":"m 274 -17 q 144 1 200 -17 q 58 75 89 19 q 28 240 28 131 l 28 646 q 58 756 28 715 q 144 815 89 797 q 274 833 200 833 q 403 815 347 833 q 492 756 460 797 q 524 646 524 715 l 524 242 q 492 75 524 131 q 403 1 460 19 q 274 -17 347 -17 m 274 111 q 289 116 282 111 q 299 131 296 121 q 303 153 303 140 l 303 657 q 299 679 303 669 q 289 694 296 689 q 274 699 282 699 q 259 694 265 699 q 249 679 253 689 q 244 657 244 669 l 244 153 q 249 131 244 140 q 259 116 253 121 q 274 111 265 111 m 335 729 l 335 821 l 364 821 q 422 886 422 821 l 422 914 l 561 914 l 561 886 q 505 764 561 799 q 335 729 449 729 m 215 872 l 215 885 q 229 917 215 906 q 257 937 243 928 q 271 961 271 946 l 271 971 q 268 988 271 979 q 256 997 265 997 q 240 969 240 997 l 147 983 q 179 1050 150 1028 q 265 1072 208 1072 q 360 1056 328 1072 q 392 975 392 1040 l 392 969 q 376 926 392 938 q 344 908 360 914 q 329 885 329 901 l 329 872 l 215 872 z "},"Ỡ":{"ha":551,"x_min":28,"x_max":561,"o":"m 274 -17 q 144 1 200 -17 q 58 75 89 19 q 28 240 28 131 l 28 646 q 58 756 28 715 q 144 815 89 797 q 274 833 200 833 q 403 815 347 833 q 492 756 460 797 q 524 646 524 715 l 524 242 q 492 75 524 131 q 403 1 460 19 q 274 -17 347 -17 m 274 111 q 289 116 282 111 q 299 131 296 121 q 303 153 303 140 l 303 657 q 299 679 303 669 q 289 694 296 689 q 274 699 282 699 q 259 694 265 699 q 249 679 253 689 q 244 657 244 669 l 244 153 q 249 131 244 140 q 259 116 253 121 q 274 111 265 111 m 335 729 l 335 821 l 364 821 q 422 886 422 821 l 422 914 l 561 914 l 561 886 q 505 764 561 799 q 335 729 449 729 m 338 882 q 293 892 314 882 q 253 911 272 901 q 220 927 236 921 q 188 933 204 933 q 160 919 169 933 q 149 883 150 904 l 92 883 q 119 989 92 949 q 190 1029 146 1029 q 236 1022 215 1029 q 275 1004 257 1014 q 308 989 292 996 q 339 982 324 982 q 370 995 361 982 q 382 1025 379 1008 l 446 1025 q 428 946 446 978 q 386 898 411 914 q 338 882 361 882 z "},"Ő":{"ha":551,"x_min":28,"x_max":524,"o":"m 274 -17 q 144 1 200 -17 q 58 75 89 19 q 28 240 28 131 l 28 646 q 58 756 28 715 q 144 815 89 797 q 274 833 200 833 q 403 815 347 833 q 492 756 460 797 q 524 646 524 715 l 524 242 q 492 75 524 131 q 403 1 460 19 q 274 -17 347 -17 m 274 111 q 289 116 282 111 q 299 131 296 121 q 303 153 303 140 l 303 657 q 299 679 303 669 q 289 694 296 689 q 274 699 282 699 q 259 694 265 699 q 249 679 253 689 q 244 657 244 669 l 244 153 q 249 131 244 140 q 259 116 253 121 q 274 111 265 111 m 138 876 l 149 1024 l 310 1024 l 219 876 l 138 876 m 294 876 l 333 1024 l 494 1024 l 390 876 l 294 876 z "},"Ō":{"ha":551,"x_min":28,"x_max":524,"o":"m 274 -17 q 144 1 200 -17 q 58 75 89 19 q 28 240 28 131 l 28 646 q 58 756 28 715 q 144 815 89 797 q 274 833 200 833 q 403 815 347 833 q 492 756 460 797 q 524 646 524 715 l 524 242 q 492 75 524 131 q 403 1 460 19 q 274 -17 347 -17 m 274 111 q 289 116 282 111 q 299 131 296 121 q 303 153 303 140 l 303 657 q 299 679 303 669 q 289 694 296 689 q 274 699 282 699 q 259 694 265 699 q 249 679 253 689 q 244 657 244 669 l 244 153 q 249 131 244 140 q 259 116 253 121 q 274 111 265 111 m 122 892 l 122 999 l 431 999 l 431 892 l 122 892 z "},"Ω":{"ha":833,"x_min":50,"x_max":844,"o":"m 50 0 l 50 158 l 254 153 l 214 176 q 152 231 183 199 q 100 314 121 263 q 79 444 79 365 q 96 574 79 513 q 154 683 113 635 q 268 758 196 731 q 451 785 340 785 q 633 756 563 785 q 744 681 704 728 q 799 575 783 633 q 815 457 815 517 q 793 318 815 372 q 740 231 771 264 q 678 176 708 199 l 638 153 l 844 158 l 844 0 l 494 0 l 494 128 q 546 181 524 154 q 583 238 568 207 q 604 309 597 269 q 611 403 611 349 q 599 524 611 468 q 551 613 586 579 q 449 647 515 647 q 347 614 383 647 q 297 525 311 581 q 283 401 283 469 q 290 314 283 354 q 311 240 297 274 q 348 178 325 206 q 401 128 371 151 l 401 0 l 50 0 z "},"Ø":{"ha":571,"x_min":28,"x_max":546,"o":"m 28 -21 l 453 821 l 546 821 l 119 -21 l 28 -21 m 288 -17 q 156 1 213 -17 q 67 75 99 19 q 35 240 35 131 l 35 646 q 67 756 35 715 q 156 815 99 797 q 288 833 213 833 q 418 815 364 833 q 501 756 472 797 q 531 646 531 715 l 531 242 q 501 75 531 131 q 418 1 472 19 q 288 -17 364 -17 m 288 111 q 299 115 294 111 q 307 128 304 118 q 310 153 310 138 l 310 657 q 307 683 310 674 q 299 695 304 692 q 288 699 294 699 q 276 695 281 699 q 268 683 271 692 q 265 657 265 674 l 265 153 q 268 128 265 138 q 276 115 271 118 q 288 111 281 111 z "},"Õ":{"ha":551,"x_min":28,"x_max":524,"o":"m 274 -17 q 144 1 200 -17 q 58 75 89 19 q 28 240 28 131 l 28 646 q 58 756 28 715 q 144 815 89 797 q 274 833 200 833 q 403 815 347 833 q 492 756 460 797 q 524 646 524 715 l 524 242 q 492 75 524 131 q 403 1 460 19 q 274 -17 347 -17 m 274 111 q 289 116 282 111 q 299 131 296 121 q 303 153 303 140 l 303 657 q 299 679 303 669 q 289 694 296 689 q 274 699 282 699 q 259 694 265 699 q 249 679 253 689 q 244 657 244 669 l 244 153 q 249 131 244 140 q 259 116 253 121 q 274 111 265 111 m 338 882 q 293 892 314 882 q 253 911 272 901 q 220 927 236 921 q 188 933 204 933 q 160 919 169 933 q 149 883 150 904 l 92 883 q 119 989 92 949 q 190 1029 146 1029 q 236 1022 215 1029 q 275 1004 257 1014 q 308 989 292 996 q 339 982 324 982 q 370 995 361 982 q 382 1025 379 1008 l 446 1025 q 428 946 446 978 q 386 898 411 914 q 338 882 361 882 z "},"P":{"ha":553,"x_min":35,"x_max":531,"o":"m 35 0 l 35 821 l 357 821 q 490 781 449 821 q 531 681 531 742 l 531 544 q 517 430 531 483 q 467 344 503 376 q 368 311 432 311 l 265 311 l 265 0 l 35 0 m 265 431 l 282 431 q 304 460 297 431 q 311 567 311 490 l 311 581 q 308 676 311 649 q 286 704 304 704 l 265 704 l 265 431 z "},"П":{"ha":576,"x_min":35,"x_max":542,"o":"m 35 0 l 35 821 l 542 821 l 542 0 l 311 0 l 311 667 l 265 667 l 265 0 l 35 0 z "},"Q":{"ha":563,"x_min":28,"x_max":535,"o":"m 390 -179 l 296 -11 q 286 -11 290 -11 q 276 -11 282 -11 q 147 7 203 -11 q 59 81 90 25 q 28 246 28 136 l 28 646 q 60 756 28 715 q 151 815 93 797 q 286 833 210 833 q 419 815 364 833 q 505 756 475 797 q 535 646 535 715 l 535 247 q 516 112 535 163 q 463 33 497 61 l 535 -94 l 390 -179 m 286 117 q 301 120 294 117 q 310 133 307 124 q 314 158 314 143 l 314 657 q 310 683 314 674 q 301 695 307 692 q 286 699 294 699 q 272 695 278 699 q 262 683 265 692 q 258 657 258 674 l 258 158 q 262 133 258 143 q 272 120 265 124 q 286 117 278 117 z "},"R":{"ha":589,"x_min":35,"x_max":582,"o":"m 35 0 l 35 821 l 368 821 q 501 781 460 821 q 542 681 542 742 l 542 556 q 513 447 542 496 q 411 389 485 397 l 411 386 q 478 355 460 376 q 510 283 497 333 l 582 0 l 336 0 l 289 269 q 283 302 286 289 q 276 322 279 315 q 269 329 274 329 l 265 329 l 265 0 l 35 0 m 265 482 l 288 482 q 315 497 306 482 q 325 550 325 513 l 325 640 q 317 691 325 678 q 292 704 310 704 l 265 704 l 265 482 z "},"Ŕ":{"ha":589,"x_min":35,"x_max":582,"o":"m 35 0 l 35 821 l 368 821 q 501 781 460 821 q 542 681 542 742 l 542 556 q 513 447 542 496 q 411 389 485 397 l 411 386 q 478 355 460 376 q 510 283 497 333 l 582 0 l 336 0 l 289 269 q 283 302 286 289 q 276 322 279 315 q 269 329 274 329 l 265 329 l 265 0 l 35 0 m 265 482 l 288 482 q 315 497 306 482 q 325 550 325 513 l 325 640 q 317 691 325 678 q 292 704 310 704 l 265 704 l 265 482 m 197 882 l 304 1025 l 496 1025 l 315 882 l 197 882 z "},"Ř":{"ha":589,"x_min":35,"x_max":582,"o":"m 35 0 l 35 821 l 368 821 q 501 781 460 821 q 542 681 542 742 l 542 556 q 513 447 542 496 q 411 389 485 397 l 411 386 q 478 355 460 376 q 510 283 497 333 l 582 0 l 336 0 l 289 269 q 283 302 286 289 q 276 322 279 315 q 269 329 274 329 l 265 329 l 265 0 l 35 0 m 265 482 l 288 482 q 315 497 306 482 q 325 550 325 513 l 325 640 q 317 691 325 678 q 292 704 310 704 l 265 704 l 265 482 m 236 878 l 96 1029 l 231 1029 l 296 969 l 361 1028 l 493 1028 l 351 878 l 236 878 z "},"Ŗ":{"ha":589,"x_min":35,"x_max":582,"o":"m 35 0 l 35 821 l 368 821 q 501 781 460 821 q 542 681 542 742 l 542 556 q 513 447 542 496 q 411 389 485 397 l 411 386 q 478 355 460 376 q 510 283 497 333 l 582 0 l 336 0 l 289 269 q 283 302 286 289 q 276 322 279 315 q 269 329 274 329 l 265 329 l 265 0 l 35 0 m 265 482 l 288 482 q 315 497 306 482 q 325 550 325 513 l 325 640 q 317 691 325 678 q 292 704 310 704 l 265 704 l 265 482 m 201 -293 q 238 -233 225 -260 q 250 -190 250 -207 q 238 -171 250 -179 q 215 -150 226 -162 q 204 -117 204 -137 q 228 -71 204 -92 q 292 -50 253 -50 q 358 -72 332 -50 q 383 -126 383 -93 q 368 -178 383 -147 q 331 -240 353 -210 q 288 -293 310 -271 l 201 -293 z "},"S":{"ha":563,"x_min":19,"x_max":543,"o":"m 276 -11 q 137 9 194 -11 q 49 83 79 29 q 19 235 19 136 l 19 286 q 135 286 78 286 q 251 286 193 286 l 251 215 q 255 159 251 178 q 265 134 258 140 q 281 128 271 128 q 302 142 296 128 q 308 204 308 157 q 294 269 308 249 q 248 304 281 290 q 160 342 215 318 q 79 398 108 365 q 38 477 50 431 q 26 586 26 524 q 49 726 26 674 q 128 801 72 778 q 281 824 183 824 q 469 774 406 824 q 533 624 533 725 l 533 518 q 423 518 478 518 q 313 518 368 518 l 313 554 q 309 630 313 611 q 283 649 306 649 q 260 636 265 649 q 256 593 256 624 q 272 532 256 553 q 314 501 288 511 q 369 479 340 490 q 469 433 431 457 q 525 365 507 408 q 543 238 543 321 q 511 90 543 144 q 419 12 479 35 q 276 -11 360 -11 z "},"Ś":{"ha":563,"x_min":19,"x_max":543,"o":"m 276 -11 q 137 9 194 -11 q 49 83 79 29 q 19 235 19 136 l 19 286 q 135 286 78 286 q 251 286 193 286 l 251 215 q 255 159 251 178 q 265 134 258 140 q 281 128 271 128 q 302 142 296 128 q 308 204 308 157 q 294 269 308 249 q 248 304 281 290 q 160 342 215 318 q 79 398 108 365 q 38 477 50 431 q 26 586 26 524 q 49 726 26 674 q 128 801 72 778 q 281 824 183 824 q 469 774 406 824 q 533 624 533 725 l 533 518 q 423 518 478 518 q 313 518 368 518 l 313 554 q 309 630 313 611 q 283 649 306 649 q 260 636 265 649 q 256 593 256 624 q 272 532 256 553 q 314 501 288 511 q 369 479 340 490 q 469 433 431 457 q 525 365 507 408 q 543 238 543 321 q 511 90 543 144 q 419 12 479 35 q 276 -11 360 -11 m 185 882 l 292 1025 l 483 1025 l 303 882 l 185 882 z "},"Š":{"ha":563,"x_min":19,"x_max":543,"o":"m 276 -11 q 137 9 194 -11 q 49 83 79 29 q 19 235 19 136 l 19 286 q 135 286 78 286 q 251 286 193 286 l 251 215 q 255 159 251 178 q 265 134 258 140 q 281 128 271 128 q 302 142 296 128 q 308 204 308 157 q 294 269 308 249 q 248 304 281 290 q 160 342 215 318 q 79 398 108 365 q 38 477 50 431 q 26 586 26 524 q 49 726 26 674 q 128 801 72 778 q 281 824 183 824 q 469 774 406 824 q 533 624 533 725 l 533 518 q 423 518 478 518 q 313 518 368 518 l 313 554 q 309 630 313 611 q 283 649 306 649 q 260 636 265 649 q 256 593 256 624 q 272 532 256 553 q 314 501 288 511 q 369 479 340 490 q 469 433 431 457 q 525 365 507 408 q 543 238 543 321 q 511 90 543 144 q 419 12 479 35 q 276 -11 360 -11 m 224 878 l 83 1029 l 218 1029 l 283 969 l 349 1028 l 481 1028 l 339 878 l 224 878 z "},"Ş":{"ha":563,"x_min":19,"x_max":543,"o":"m 276 -11 q 137 9 194 -11 q 49 83 79 29 q 19 235 19 136 l 19 286 q 135 286 78 286 q 251 286 193 286 l 251 215 q 255 159 251 178 q 265 134 258 140 q 281 128 271 128 q 302 142 296 128 q 308 204 308 157 q 294 269 308 249 q 248 304 281 290 q 160 342 215 318 q 79 398 108 365 q 38 477 50 431 q 26 586 26 524 q 49 726 26 674 q 128 801 72 778 q 281 824 183 824 q 469 774 406 824 q 533 624 533 725 l 533 518 q 423 518 478 518 q 313 518 368 518 l 313 554 q 309 630 313 611 q 283 649 306 649 q 260 636 265 649 q 256 593 256 624 q 272 532 256 553 q 314 501 288 511 q 369 479 340 490 q 469 433 431 457 q 525 365 507 408 q 543 238 543 321 q 511 90 543 144 q 419 12 479 35 q 276 -11 360 -11 m 275 -242 q 218 -230 244 -242 q 182 -212 192 -218 l 207 -147 q 234 -162 217 -156 q 265 -168 251 -168 q 293 -159 283 -168 q 303 -133 303 -150 q 296 -117 303 -122 q 279 -111 289 -111 q 266 -114 271 -111 q 258 -119 261 -117 l 201 -89 l 244 0 l 322 0 l 286 -74 l 276 -68 q 299 -59 285 -64 q 332 -54 313 -54 q 397 -81 374 -54 q 419 -137 419 -107 q 382 -210 419 -179 q 275 -242 344 -242 z "},"Ș":{"ha":563,"x_min":19,"x_max":543,"o":"m 276 -11 q 137 9 194 -11 q 49 83 79 29 q 19 235 19 136 l 19 286 q 135 286 78 286 q 251 286 193 286 l 251 215 q 255 159 251 178 q 265 134 258 140 q 281 128 271 128 q 302 142 296 128 q 308 204 308 157 q 294 269 308 249 q 248 304 281 290 q 160 342 215 318 q 79 398 108 365 q 38 477 50 431 q 26 586 26 524 q 49 726 26 674 q 128 801 72 778 q 281 824 183 824 q 469 774 406 824 q 533 624 533 725 l 533 518 q 423 518 478 518 q 313 518 368 518 l 313 554 q 309 630 313 611 q 283 649 306 649 q 260 636 265 649 q 256 593 256 624 q 272 532 256 553 q 314 501 288 511 q 369 479 340 490 q 469 433 431 457 q 525 365 507 408 q 543 238 543 321 q 511 90 543 144 q 419 12 479 35 q 276 -11 360 -11 m 189 -293 q 225 -233 213 -260 q 238 -190 238 -207 q 226 -171 238 -179 q 203 -150 214 -162 q 192 -117 192 -137 q 216 -71 192 -92 q 279 -50 240 -50 q 345 -72 319 -50 q 371 -126 371 -93 q 356 -178 371 -147 q 319 -240 340 -210 q 275 -293 297 -271 l 189 -293 z "},"Ш":{"ha":869,"x_min":35,"x_max":835,"o":"m 35 0 l 35 821 l 265 821 l 265 154 l 319 154 l 319 821 l 550 821 l 550 154 l 604 154 l 604 821 l 835 821 l 835 0 l 35 0 z "},"Щ":{"ha":976,"x_min":35,"x_max":949,"o":"m 776 -137 l 776 0 l 35 0 l 35 821 l 265 821 l 265 154 l 319 154 l 319 821 l 550 821 l 550 154 l 604 154 l 604 821 l 835 821 l 835 96 l 949 96 l 949 -137 l 776 -137 z "},"Ь":{"ha":550,"x_min":35,"x_max":515,"o":"m 35 0 l 35 821 l 251 821 l 251 606 l 361 606 q 431 595 396 606 q 491 552 467 585 q 515 450 515 519 l 515 224 q 501 99 515 144 q 460 33 486 54 q 401 6 435 13 q 326 0 367 0 l 35 0 m 251 111 l 276 111 q 291 118 286 111 q 297 150 296 125 q 299 231 299 175 l 299 404 q 297 447 299 432 q 291 467 296 461 q 275 474 286 474 l 251 474 l 251 111 z "},"T":{"ha":479,"x_min":11,"x_max":468,"o":"m 129 0 l 129 667 l 11 667 l 11 821 l 468 821 l 468 667 l 350 667 l 350 0 l 129 0 z "},"Ŧ":{"ha":471,"x_min":11,"x_max":468,"o":"m 67 475 l 67 585 l 401 585 l 401 475 l 67 475 m 129 0 l 129 667 l 11 667 l 11 821 l 468 821 l 468 667 l 350 667 l 350 0 l 129 0 z "},"Ť":{"ha":479,"x_min":11,"x_max":468,"o":"m 129 0 l 129 667 l 11 667 l 11 821 l 468 821 l 468 667 l 350 667 l 350 0 l 129 0 m 182 878 l 42 1029 l 176 1029 l 242 969 l 307 1028 l 439 1028 l 297 878 l 182 878 z "},"Ţ":{"ha":479,"x_min":11,"x_max":468,"o":"m 129 0 l 129 667 l 11 667 l 11 821 l 468 821 l 468 667 l 350 667 l 350 0 l 129 0 m 233 -242 q 176 -230 203 -242 q 140 -212 150 -218 l 165 -147 q 192 -162 175 -156 q 224 -168 210 -168 q 251 -159 242 -168 q 261 -133 261 -150 q 254 -117 261 -122 q 238 -111 247 -111 q 224 -114 229 -111 q 217 -119 219 -117 l 160 -89 l 203 0 l 281 0 l 244 -74 l 235 -68 q 257 -59 243 -64 q 290 -54 271 -54 q 355 -81 332 -54 q 378 -137 378 -107 q 340 -210 378 -179 q 233 -242 303 -242 z "},"Ț":{"ha":479,"x_min":11,"x_max":468,"o":"m 129 0 l 129 667 l 11 667 l 11 821 l 468 821 l 468 667 l 350 667 l 350 0 l 129 0 m 147 -293 q 183 -233 171 -260 q 196 -190 196 -207 q 184 -171 196 -179 q 161 -150 172 -162 q 150 -117 150 -137 q 174 -71 150 -92 q 238 -50 199 -50 q 303 -72 278 -50 q 329 -126 329 -93 q 314 -178 329 -147 q 277 -240 299 -210 q 233 -293 256 -271 l 147 -293 z "},"Т":{"ha":479,"x_min":11,"x_max":468,"o":"m 129 0 l 129 667 l 11 667 l 11 821 l 468 821 l 468 667 l 350 667 l 350 0 l 129 0 z "},"Þ":{"ha":565,"x_min":35,"x_max":531,"o":"m 35 0 l 35 821 l 267 821 l 267 686 l 357 686 q 490 647 449 686 q 531 546 531 608 l 531 410 q 517 294 531 347 q 467 209 503 242 q 368 176 432 176 l 265 176 l 265 0 l 35 0 m 265 296 l 282 296 q 304 326 297 296 q 311 432 311 356 l 311 446 q 308 542 311 515 q 286 569 306 569 l 265 569 l 265 296 z "},"Ц":{"ha":685,"x_min":35,"x_max":664,"o":"m 492 -137 l 492 0 l 35 0 l 35 821 l 265 821 l 265 154 l 319 154 l 319 821 l 550 821 l 550 96 l 664 96 l 664 -137 l 492 -137 z "},"Ћ":{"ha":644,"x_min":7,"x_max":610,"o":"m 125 0 l 125 667 l 7 667 l 7 821 l 464 821 l 464 667 l 346 667 l 346 568 q 390 590 357 579 q 457 601 422 601 q 551 581 518 601 q 597 521 585 561 q 610 419 610 481 l 610 0 l 393 0 l 393 418 q 390 440 393 432 q 383 453 388 449 q 369 457 378 457 q 357 456 364 457 q 346 453 350 456 l 346 0 l 125 0 z "},"U":{"ha":558,"x_min":35,"x_max":524,"o":"m 279 -17 q 178 -9 224 -17 q 101 22 133 -1 q 52 94 69 46 q 35 226 35 143 l 35 821 l 256 821 l 256 160 q 258 135 256 144 q 267 122 261 125 q 279 118 272 118 q 292 122 286 118 q 300 135 297 125 q 303 160 303 144 l 303 821 l 524 821 l 524 228 q 506 95 524 144 q 457 22 489 46 q 380 -9 425 -1 q 279 -17 335 -17 z "},"У":{"ha":547,"x_min":7,"x_max":540,"o":"m 188 -28 q 94 -21 140 -28 q 21 -7 47 -14 l 21 104 q 47 98 32 100 q 75 96 61 96 q 119 101 97 96 q 140 138 140 107 q 137 165 140 151 q 129 200 133 178 l 7 821 l 231 821 l 281 344 l 283 344 l 335 821 l 540 821 l 421 219 q 341 28 394 85 q 188 -28 288 -28 z "},"Ú":{"ha":558,"x_min":35,"x_max":524,"o":"m 279 -17 q 178 -9 224 -17 q 101 22 133 -1 q 52 94 69 46 q 35 226 35 143 l 35 821 l 256 821 l 256 160 q 258 135 256 144 q 267 122 261 125 q 279 118 272 118 q 292 122 286 118 q 300 135 297 125 q 303 160 303 144 l 303 821 l 524 821 l 524 228 q 506 95 524 144 q 457 22 489 46 q 380 -9 425 -1 q 279 -17 335 -17 m 182 882 l 289 1025 l 481 1025 l 300 882 l 182 882 z "},"Ǔ":{"ha":558,"x_min":35,"x_max":524,"o":"m 279 -17 q 178 -9 224 -17 q 101 22 133 -1 q 52 94 69 46 q 35 226 35 143 l 35 821 l 256 821 l 256 160 q 258 135 256 144 q 267 122 261 125 q 279 118 272 118 q 292 122 286 118 q 300 135 297 125 q 303 160 303 144 l 303 821 l 524 821 l 524 228 q 506 95 524 144 q 457 22 489 46 q 380 -9 425 -1 q 279 -17 335 -17 m 221 878 l 81 1029 l 215 1029 l 281 969 l 346 1028 l 478 1028 l 336 878 l 221 878 z "},"Û":{"ha":558,"x_min":35,"x_max":524,"o":"m 279 -17 q 178 -9 224 -17 q 101 22 133 -1 q 52 94 69 46 q 35 226 35 143 l 35 821 l 256 821 l 256 160 q 258 135 256 144 q 267 122 261 125 q 279 118 272 118 q 292 122 286 118 q 300 135 297 125 q 303 160 303 144 l 303 821 l 524 821 l 524 228 q 506 95 524 144 q 457 22 489 46 q 380 -9 425 -1 q 279 -17 335 -17 m 81 878 l 221 1029 l 336 1029 l 478 879 l 346 879 l 281 938 l 215 878 l 81 878 z "},"Ü":{"ha":558,"x_min":35,"x_max":524,"o":"m 279 -17 q 178 -9 224 -17 q 101 22 133 -1 q 52 94 69 46 q 35 226 35 143 l 35 821 l 256 821 l 256 160 q 258 135 256 144 q 267 122 261 125 q 279 118 272 118 q 292 122 286 118 q 300 135 297 125 q 303 160 303 144 l 303 821 l 524 821 l 524 228 q 506 95 524 144 q 457 22 489 46 q 380 -9 425 -1 q 279 -17 335 -17 m 183 875 q 124 898 147 875 q 100 954 100 921 q 124 1010 100 988 q 183 1032 147 1032 q 241 1010 218 1032 q 264 954 264 988 q 241 898 264 921 q 183 875 218 875 m 376 875 q 317 898 340 875 q 293 954 293 921 q 317 1010 293 988 q 376 1032 340 1032 q 434 1010 411 1032 q 457 954 457 988 q 434 898 457 921 q 376 875 411 875 z "},"Ǘ":{"ha":558,"x_min":35,"x_max":524,"o":"m 279 -17 q 178 -9 224 -17 q 101 22 133 -1 q 52 94 69 46 q 35 226 35 143 l 35 821 l 256 821 l 256 160 q 258 135 256 144 q 267 122 261 125 q 279 118 272 118 q 292 122 286 118 q 300 135 297 125 q 303 160 303 144 l 303 821 l 524 821 l 524 228 q 506 95 524 144 q 457 22 489 46 q 380 -9 425 -1 q 279 -17 335 -17 m 183 875 q 124 898 147 875 q 100 954 100 921 q 124 1010 100 988 q 183 1032 147 1032 q 241 1010 218 1032 q 264 954 264 988 q 241 898 264 921 q 183 875 218 875 m 376 875 q 317 898 340 875 q 293 954 293 921 q 317 1010 293 988 q 376 1032 340 1032 q 434 1010 411 1032 q 457 954 457 988 q 434 898 457 921 q 376 875 411 875 m 182 1061 l 289 1204 l 481 1204 l 300 1061 l 182 1061 z "},"Ǚ":{"ha":558,"x_min":35,"x_max":524,"o":"m 279 -17 q 178 -9 224 -17 q 101 22 133 -1 q 52 94 69 46 q 35 226 35 143 l 35 821 l 256 821 l 256 160 q 258 135 256 144 q 267 122 261 125 q 279 118 272 118 q 292 122 286 118 q 300 135 297 125 q 303 160 303 144 l 303 821 l 524 821 l 524 228 q 506 95 524 144 q 457 22 489 46 q 380 -9 425 -1 q 279 -17 335 -17 m 183 875 q 124 898 147 875 q 100 954 100 921 q 124 1010 100 988 q 183 1032 147 1032 q 241 1010 218 1032 q 264 954 264 988 q 241 898 264 921 q 183 875 218 875 m 376 875 q 317 898 340 875 q 293 954 293 921 q 317 1010 293 988 q 376 1032 340 1032 q 434 1010 411 1032 q 457 954 457 988 q 434 898 457 921 q 376 875 411 875 m 221 1057 l 81 1208 l 215 1208 l 281 1149 l 346 1207 l 478 1207 l 336 1057 l 221 1057 z "},"Ǜ":{"ha":558,"x_min":35,"x_max":524,"o":"m 279 -17 q 178 -9 224 -17 q 101 22 133 -1 q 52 94 69 46 q 35 226 35 143 l 35 821 l 256 821 l 256 160 q 258 135 256 144 q 267 122 261 125 q 279 118 272 118 q 292 122 286 118 q 300 135 297 125 q 303 160 303 144 l 303 821 l 524 821 l 524 228 q 506 95 524 144 q 457 22 489 46 q 380 -9 425 -1 q 279 -17 335 -17 m 183 875 q 124 898 147 875 q 100 954 100 921 q 124 1010 100 988 q 183 1032 147 1032 q 241 1010 218 1032 q 264 954 264 988 q 241 898 264 921 q 183 875 218 875 m 376 875 q 317 898 340 875 q 293 954 293 921 q 317 1010 293 988 q 376 1032 340 1032 q 434 1010 411 1032 q 457 954 457 988 q 434 898 457 921 q 376 875 411 875 m 239 1061 l 74 1197 l 269 1197 l 371 1061 l 239 1061 z "},"Ǖ":{"ha":558,"x_min":35,"x_max":524,"o":"m 279 -17 q 178 -9 224 -17 q 101 22 133 -1 q 52 94 69 46 q 35 226 35 143 l 35 821 l 256 821 l 256 160 q 258 135 256 144 q 267 122 261 125 q 279 118 272 118 q 292 122 286 118 q 300 135 297 125 q 303 160 303 144 l 303 821 l 524 821 l 524 228 q 506 95 524 144 q 457 22 489 46 q 380 -9 425 -1 q 279 -17 335 -17 m 183 875 q 124 898 147 875 q 100 954 100 921 q 124 1010 100 988 q 183 1032 147 1032 q 241 1010 218 1032 q 264 954 264 988 q 241 898 264 921 q 183 875 218 875 m 376 875 q 317 898 340 875 q 293 954 293 921 q 317 1010 293 988 q 376 1032 340 1032 q 434 1010 411 1032 q 457 954 457 988 q 434 898 457 921 q 376 875 411 875 m 125 1071 l 125 1178 l 433 1178 l 433 1071 l 125 1071 z "},"Ụ":{"ha":558,"x_min":35,"x_max":524,"o":"m 279 -17 q 178 -9 224 -17 q 101 22 133 -1 q 52 94 69 46 q 35 226 35 143 l 35 821 l 256 821 l 256 160 q 258 135 256 144 q 267 122 261 125 q 279 118 272 118 q 292 122 286 118 q 300 135 297 125 q 303 160 303 144 l 303 821 l 524 821 l 524 228 q 506 95 524 144 q 457 22 489 46 q 380 -9 425 -1 q 279 -17 335 -17 m 278 -204 q 219 -181 243 -204 q 196 -125 196 -157 q 219 -68 196 -92 q 278 -44 243 -44 q 338 -68 313 -44 q 363 -125 363 -92 q 338 -181 363 -157 q 278 -204 313 -204 z "},"Ù":{"ha":558,"x_min":35,"x_max":524,"o":"m 279 -17 q 178 -9 224 -17 q 101 22 133 -1 q 52 94 69 46 q 35 226 35 143 l 35 821 l 256 821 l 256 160 q 258 135 256 144 q 267 122 261 125 q 279 118 272 118 q 292 122 286 118 q 300 135 297 125 q 303 160 303 144 l 303 821 l 524 821 l 524 228 q 506 95 524 144 q 457 22 489 46 q 380 -9 425 -1 q 279 -17 335 -17 m 239 882 l 74 1018 l 269 1018 l 371 882 l 239 882 z "},"Ủ":{"ha":558,"x_min":35,"x_max":524,"o":"m 279 -17 q 178 -9 224 -17 q 101 22 133 -1 q 52 94 69 46 q 35 226 35 143 l 35 821 l 256 821 l 256 160 q 258 135 256 144 q 267 122 261 125 q 279 118 272 118 q 292 122 286 118 q 300 135 297 125 q 303 160 303 144 l 303 821 l 524 821 l 524 228 q 506 95 524 144 q 457 22 489 46 q 380 -9 425 -1 q 279 -17 335 -17 m 218 872 l 218 885 q 232 917 218 906 q 260 937 246 928 q 274 961 274 946 l 274 971 q 271 988 274 979 q 258 997 268 997 q 243 969 243 997 l 150 983 q 182 1050 153 1028 q 268 1072 211 1072 q 363 1056 331 1072 q 394 975 394 1040 l 394 969 q 378 926 394 938 q 347 908 363 914 q 332 885 332 901 l 332 872 l 218 872 z "},"Ư":{"ha":558,"x_min":35,"x_max":575,"o":"m 279 -17 q 178 -9 224 -17 q 101 22 133 -1 q 52 94 69 46 q 35 226 35 143 l 35 821 l 256 821 l 256 160 q 258 135 256 144 q 267 122 261 125 q 279 118 272 118 q 292 122 286 118 q 300 135 297 125 q 303 160 303 144 l 303 821 l 524 821 l 524 228 q 506 95 524 144 q 457 22 489 46 q 380 -9 425 -1 q 279 -17 335 -17 m 349 729 l 349 821 l 378 821 q 436 886 436 821 l 436 914 l 575 914 l 575 886 q 519 764 575 799 q 349 729 463 729 z "},"Ứ":{"ha":558,"x_min":35,"x_max":575,"o":"m 279 -17 q 178 -9 224 -17 q 101 22 133 -1 q 52 94 69 46 q 35 226 35 143 l 35 821 l 256 821 l 256 160 q 258 135 256 144 q 267 122 261 125 q 279 118 272 118 q 292 122 286 118 q 300 135 297 125 q 303 160 303 144 l 303 821 l 524 821 l 524 228 q 506 95 524 144 q 457 22 489 46 q 380 -9 425 -1 q 279 -17 335 -17 m 349 729 l 349 821 l 378 821 q 436 886 436 821 l 436 914 l 575 914 l 575 886 q 519 764 575 799 q 349 729 463 729 m 182 882 l 289 1025 l 481 1025 l 300 882 l 182 882 z "},"Ự":{"ha":558,"x_min":35,"x_max":575,"o":"m 279 -17 q 178 -9 224 -17 q 101 22 133 -1 q 52 94 69 46 q 35 226 35 143 l 35 821 l 256 821 l 256 160 q 258 135 256 144 q 267 122 261 125 q 279 118 272 118 q 292 122 286 118 q 300 135 297 125 q 303 160 303 144 l 303 821 l 524 821 l 524 228 q 506 95 524 144 q 457 22 489 46 q 380 -9 425 -1 q 279 -17 335 -17 m 349 729 l 349 821 l 378 821 q 436 886 436 821 l 436 914 l 575 914 l 575 886 q 519 764 575 799 q 349 729 463 729 m 278 -204 q 219 -181 243 -204 q 196 -125 196 -157 q 219 -68 196 -92 q 278 -44 243 -44 q 338 -68 313 -44 q 363 -125 363 -92 q 338 -181 363 -157 q 278 -204 313 -204 z "},"Ừ":{"ha":558,"x_min":35,"x_max":575,"o":"m 279 -17 q 178 -9 224 -17 q 101 22 133 -1 q 52 94 69 46 q 35 226 35 143 l 35 821 l 256 821 l 256 160 q 258 135 256 144 q 267 122 261 125 q 279 118 272 118 q 292 122 286 118 q 300 135 297 125 q 303 160 303 144 l 303 821 l 524 821 l 524 228 q 506 95 524 144 q 457 22 489 46 q 380 -9 425 -1 q 279 -17 335 -17 m 349 729 l 349 821 l 378 821 q 436 886 436 821 l 436 914 l 575 914 l 575 886 q 519 764 575 799 q 349 729 463 729 m 239 882 l 74 1018 l 269 1018 l 371 882 l 239 882 z "},"Ử":{"ha":558,"x_min":35,"x_max":575,"o":"m 279 -17 q 178 -9 224 -17 q 101 22 133 -1 q 52 94 69 46 q 35 226 35 143 l 35 821 l 256 821 l 256 160 q 258 135 256 144 q 267 122 261 125 q 279 118 272 118 q 292 122 286 118 q 300 135 297 125 q 303 160 303 144 l 303 821 l 524 821 l 524 228 q 506 95 524 144 q 457 22 489 46 q 380 -9 425 -1 q 279 -17 335 -17 m 349 729 l 349 821 l 378 821 q 436 886 436 821 l 436 914 l 575 914 l 575 886 q 519 764 575 799 q 349 729 463 729 m 218 872 l 218 885 q 232 917 218 906 q 260 937 246 928 q 274 961 274 946 l 274 971 q 271 988 274 979 q 258 997 268 997 q 243 969 243 997 l 150 983 q 182 1050 153 1028 q 268 1072 211 1072 q 363 1056 331 1072 q 394 975 394 1040 l 394 969 q 378 926 394 938 q 347 908 363 914 q 332 885 332 901 l 332 872 l 218 872 z "},"Ữ":{"ha":558,"x_min":35,"x_max":575,"o":"m 279 -17 q 178 -9 224 -17 q 101 22 133 -1 q 52 94 69 46 q 35 226 35 143 l 35 821 l 256 821 l 256 160 q 258 135 256 144 q 267 122 261 125 q 279 118 272 118 q 292 122 286 118 q 300 135 297 125 q 303 160 303 144 l 303 821 l 524 821 l 524 228 q 506 95 524 144 q 457 22 489 46 q 380 -9 425 -1 q 279 -17 335 -17 m 349 729 l 349 821 l 378 821 q 436 886 436 821 l 436 914 l 575 914 l 575 886 q 519 764 575 799 q 349 729 463 729 m 340 882 q 296 892 317 882 q 256 911 275 901 q 223 927 239 921 q 190 933 207 933 q 163 919 172 933 q 151 883 153 904 l 94 883 q 122 989 94 949 q 193 1029 149 1029 q 239 1022 218 1029 q 278 1004 260 1014 q 310 989 294 996 q 342 982 326 982 q 373 995 364 982 q 385 1025 382 1008 l 449 1025 q 431 946 449 978 q 389 898 414 914 q 340 882 364 882 z "},"Ű":{"ha":558,"x_min":35,"x_max":524,"o":"m 279 -17 q 178 -9 224 -17 q 101 22 133 -1 q 52 94 69 46 q 35 226 35 143 l 35 821 l 256 821 l 256 160 q 258 135 256 144 q 267 122 261 125 q 279 118 272 118 q 292 122 286 118 q 300 135 297 125 q 303 160 303 144 l 303 821 l 524 821 l 524 228 q 506 95 524 144 q 457 22 489 46 q 380 -9 425 -1 q 279 -17 335 -17 m 140 876 l 151 1024 l 313 1024 l 222 876 l 140 876 m 297 876 l 336 1024 l 497 1024 l 393 876 l 297 876 z "},"Ū":{"ha":558,"x_min":35,"x_max":524,"o":"m 279 -17 q 178 -9 224 -17 q 101 22 133 -1 q 52 94 69 46 q 35 226 35 143 l 35 821 l 256 821 l 256 160 q 258 135 256 144 q 267 122 261 125 q 279 118 272 118 q 292 122 286 118 q 300 135 297 125 q 303 160 303 144 l 303 821 l 524 821 l 524 228 q 506 95 524 144 q 457 22 489 46 q 380 -9 425 -1 q 279 -17 335 -17 m 125 892 l 125 999 l 433 999 l 433 892 l 125 892 z "},"Ų":{"ha":558,"x_min":35,"x_max":524,"o":"m 279 -17 q 178 -9 224 -17 q 101 22 133 -1 q 52 94 69 46 q 35 226 35 143 l 35 821 l 256 821 l 256 160 q 258 135 256 144 q 267 122 261 125 q 279 118 272 118 q 292 122 286 118 q 300 135 297 125 q 303 160 303 144 l 303 821 l 524 821 l 524 228 q 506 95 524 144 q 457 22 489 46 q 380 -9 425 -1 q 279 -17 335 -17 m 297 -210 q 203 -180 238 -210 q 168 -115 168 -150 q 202 -40 168 -76 q 293 3 236 -3 l 375 0 q 321 -35 338 -10 q 304 -85 304 -61 q 322 -124 304 -110 q 356 -137 339 -137 q 372 -135 365 -137 q 381 -133 378 -133 l 404 -185 q 374 -199 397 -189 q 297 -210 350 -210 z "},"Ů":{"ha":558,"x_min":35,"x_max":524,"o":"m 279 -17 q 178 -9 224 -17 q 101 22 133 -1 q 52 94 69 46 q 35 226 35 143 l 35 821 l 256 821 l 256 160 q 258 135 256 144 q 267 122 261 125 q 279 118 272 118 q 292 122 286 118 q 300 135 297 125 q 303 160 303 144 l 303 821 l 524 821 l 524 228 q 506 95 524 144 q 457 22 489 46 q 380 -9 425 -1 q 279 -17 335 -17 m 279 869 q 187 905 224 869 q 150 990 150 940 q 187 1078 150 1043 q 279 1114 224 1114 q 370 1078 332 1114 q 408 990 408 1042 q 370 905 408 940 q 279 869 332 869 m 279 951 q 310 963 297 951 q 322 990 322 974 q 310 1022 322 1010 q 279 1033 297 1033 q 249 1022 261 1033 q 236 990 236 1010 q 249 963 236 974 q 279 951 261 951 z "},"Ў":{"ha":547,"x_min":7,"x_max":540,"o":"m 188 -28 q 94 -21 140 -28 q 21 -7 47 -14 l 21 104 q 47 98 32 100 q 75 96 61 96 q 119 101 97 96 q 140 138 140 107 q 137 165 140 151 q 129 200 133 178 l 7 821 l 231 821 l 281 344 l 283 344 l 335 821 l 540 821 l 421 219 q 341 28 394 85 q 188 -28 288 -28 m 271 876 q 160 902 197 876 q 112 963 124 928 q 100 1026 100 999 l 214 1026 q 232 989 214 1001 q 272 976 250 976 q 313 988 296 976 q 332 1026 331 1000 l 447 1026 q 429 951 447 985 q 373 897 411 917 q 271 876 335 876 z "},"Ũ":{"ha":558,"x_min":35,"x_max":524,"o":"m 279 -17 q 178 -9 224 -17 q 101 22 133 -1 q 52 94 69 46 q 35 226 35 143 l 35 821 l 256 821 l 256 160 q 258 135 256 144 q 267 122 261 125 q 279 118 272 118 q 292 122 286 118 q 300 135 297 125 q 303 160 303 144 l 303 821 l 524 821 l 524 228 q 506 95 524 144 q 457 22 489 46 q 380 -9 425 -1 q 279 -17 335 -17 m 340 882 q 296 892 317 882 q 256 911 275 901 q 223 927 239 921 q 190 933 207 933 q 163 919 172 933 q 151 883 153 904 l 94 883 q 122 989 94 949 q 193 1029 149 1029 q 239 1022 218 1029 q 278 1004 260 1014 q 310 989 294 996 q 342 982 326 982 q 373 995 364 982 q 385 1025 382 1008 l 449 1025 q 431 946 449 978 q 389 898 414 914 q 340 882 364 882 z "},"V":{"ha":582,"x_min":11,"x_max":571,"o":"m 131 0 l 11 821 l 240 821 l 290 218 l 293 218 l 350 821 l 571 821 l 449 0 l 131 0 z "},"В":{"ha":557,"x_min":35,"x_max":536,"o":"m 35 0 l 35 821 l 357 821 q 483 781 443 821 q 522 681 522 742 l 522 592 q 513 527 522 557 q 481 476 503 497 q 446 453 467 463 q 401 442 425 444 l 401 439 q 440 433 421 439 q 481 413 458 428 q 521 362 506 394 q 536 281 536 329 l 536 174 q 513 70 536 108 q 444 16 489 32 q 338 0 400 0 l 35 0 m 257 113 l 285 113 q 300 119 294 113 q 309 141 306 125 q 313 186 313 157 l 313 274 q 306 333 313 319 q 283 346 299 346 l 257 346 l 257 113 m 257 483 l 279 483 q 301 499 292 483 q 311 567 311 515 l 311 640 q 304 690 311 676 q 282 704 297 704 l 257 704 l 257 483 z "},"W":{"ha":885,"x_min":11,"x_max":874,"o":"m 131 0 l 11 821 l 240 821 l 297 278 l 350 821 l 535 821 l 588 278 l 644 821 l 874 821 l 754 0 l 496 0 l 442 358 l 389 0 l 131 0 z "},"Ẃ":{"ha":885,"x_min":11,"x_max":874,"o":"m 131 0 l 11 821 l 240 821 l 297 278 l 350 821 l 535 821 l 588 278 l 644 821 l 874 821 l 754 0 l 496 0 l 442 358 l 389 0 l 131 0 m 346 882 l 453 1025 l 644 1025 l 464 882 l 346 882 z "},"Ŵ":{"ha":885,"x_min":11,"x_max":874,"o":"m 131 0 l 11 821 l 240 821 l 297 278 l 350 821 l 535 821 l 588 278 l 644 821 l 874 821 l 754 0 l 496 0 l 442 358 l 389 0 l 131 0 m 244 878 l 385 1029 l 500 1029 l 642 879 l 510 879 l 444 938 l 379 878 l 244 878 z "},"Ẅ":{"ha":885,"x_min":11,"x_max":874,"o":"m 131 0 l 11 821 l 240 821 l 297 278 l 350 821 l 535 821 l 588 278 l 644 821 l 874 821 l 754 0 l 496 0 l 442 358 l 389 0 l 131 0 m 347 875 q 288 898 311 875 q 264 954 264 921 q 288 1010 264 988 q 347 1032 311 1032 q 405 1010 382 1032 q 428 954 428 988 q 405 898 428 921 q 347 875 382 875 m 540 875 q 481 898 504 875 q 457 954 457 921 q 481 1010 457 988 q 540 1032 504 1032 q 598 1010 575 1032 q 621 954 621 988 q 598 898 621 921 q 540 875 575 875 z "},"Ẁ":{"ha":885,"x_min":11,"x_max":874,"o":"m 131 0 l 11 821 l 240 821 l 297 278 l 350 821 l 535 821 l 588 278 l 644 821 l 874 821 l 754 0 l 496 0 l 442 358 l 389 0 l 131 0 m 403 882 l 238 1018 l 433 1018 l 535 882 l 403 882 z "},"X":{"ha":561,"x_min":7,"x_max":554,"o":"m 7 0 l 119 426 l 10 821 l 231 821 l 279 606 l 319 821 l 554 821 l 447 426 l 551 0 l 331 0 l 282 214 l 242 0 l 7 0 z "},"Y":{"ha":544,"x_min":6,"x_max":539,"o":"m 160 0 l 160 340 l 6 821 l 224 821 l 268 649 l 281 576 l 293 649 l 339 821 l 539 821 l 381 328 l 381 0 l 160 0 z "},"Ý":{"ha":544,"x_min":6,"x_max":539,"o":"m 160 0 l 160 340 l 6 821 l 224 821 l 268 649 l 281 576 l 293 649 l 339 821 l 539 821 l 381 328 l 381 0 l 160 0 m 185 882 l 292 1025 l 483 1025 l 303 882 l 185 882 z "},"Ѣ":{"ha":631,"x_min":22,"x_max":596,"o":"m 115 0 l 115 821 l 332 821 l 332 606 l 442 606 q 512 595 476 606 q 572 552 547 585 q 596 450 596 519 l 596 224 q 581 99 596 144 q 541 33 567 54 q 481 6 515 13 q 407 0 447 0 l 115 0 m 332 111 l 357 111 q 372 118 367 111 q 378 150 376 125 q 379 231 379 175 l 379 404 q 378 447 379 432 q 372 467 376 461 q 356 474 367 474 l 332 474 l 332 111 m 22 668 l 22 769 l 475 769 l 475 668 l 22 668 z "},"Ŷ":{"ha":544,"x_min":6,"x_max":539,"o":"m 160 0 l 160 340 l 6 821 l 224 821 l 268 649 l 281 576 l 293 649 l 339 821 l 539 821 l 381 328 l 381 0 l 160 0 m 83 878 l 224 1029 l 339 1029 l 481 879 l 349 879 l 283 938 l 218 878 l 83 878 z "},"Ÿ":{"ha":544,"x_min":6,"x_max":539,"o":"m 160 0 l 160 340 l 6 821 l 224 821 l 268 649 l 281 576 l 293 649 l 339 821 l 539 821 l 381 328 l 381 0 l 160 0 m 186 875 q 126 898 150 875 q 103 954 103 921 q 126 1010 103 988 q 186 1032 150 1032 q 244 1010 221 1032 q 267 954 267 988 q 244 898 267 921 q 186 875 221 875 m 379 875 q 319 898 343 875 q 296 954 296 921 q 319 1010 296 988 q 379 1032 343 1032 q 437 1010 414 1032 q 460 954 460 988 q 437 898 460 921 q 379 875 414 875 z "},"Ỵ":{"ha":544,"x_min":6,"x_max":539,"o":"m 160 0 l 160 340 l 6 821 l 224 821 l 268 649 l 281 576 l 293 649 l 339 821 l 539 821 l 381 328 l 381 0 l 160 0 m 271 -204 q 213 -181 236 -204 q 189 -125 189 -157 q 213 -68 189 -92 q 271 -44 236 -44 q 331 -68 306 -44 q 356 -125 356 -92 q 331 -181 356 -157 q 271 -204 306 -204 z "},"Ы":{"ha":842,"x_min":35,"x_max":807,"o":"m 35 0 l 35 821 l 251 821 l 251 606 l 361 606 q 431 595 396 606 q 491 552 467 585 q 515 450 515 519 l 515 224 q 501 99 515 144 q 460 33 486 54 q 401 6 435 13 q 326 0 367 0 l 35 0 m 251 111 l 276 111 q 291 118 286 111 q 297 150 296 125 q 299 231 299 175 l 299 404 q 297 447 299 432 q 291 467 296 461 q 275 474 286 474 l 251 474 l 251 111 m 586 0 l 586 821 l 807 821 l 807 0 l 586 0 z "},"Ỳ":{"ha":544,"x_min":6,"x_max":539,"o":"m 160 0 l 160 340 l 6 821 l 224 821 l 268 649 l 281 576 l 293 649 l 339 821 l 539 821 l 381 328 l 381 0 l 160 0 m 242 882 l 76 1018 l 272 1018 l 374 882 l 242 882 z "},"Ỷ":{"ha":544,"x_min":6,"x_max":539,"o":"m 160 0 l 160 340 l 6 821 l 224 821 l 268 649 l 281 576 l 293 649 l 339 821 l 539 821 l 381 328 l 381 0 l 160 0 m 221 872 l 221 885 q 235 917 221 906 q 263 937 249 928 q 276 961 276 946 l 276 971 q 274 988 276 979 q 261 997 271 997 q 246 969 246 997 l 153 983 q 185 1050 156 1028 q 271 1072 214 1072 q 365 1056 333 1072 q 397 975 397 1040 l 397 969 q 381 926 397 938 q 350 908 365 914 q 335 885 335 901 l 335 872 l 221 872 z "},"Ї":{"ha":290,"x_min":-33,"x_max":324,"o":"m 35 0 l 35 821 l 256 821 l 256 0 l 35 0 m 50 875 q -10 898 14 875 q -33 954 -33 921 q -10 1010 -33 988 q 50 1032 14 1032 q 108 1010 85 1032 q 131 954 131 988 q 108 898 131 921 q 50 875 85 875 m 243 875 q 183 898 207 875 q 160 954 160 921 q 183 1010 160 988 q 243 1032 207 1032 q 301 1010 278 1032 q 324 954 324 988 q 301 898 324 921 q 243 875 278 875 z "},"Ỹ":{"ha":544,"x_min":6,"x_max":539,"o":"m 160 0 l 160 340 l 6 821 l 224 821 l 268 649 l 281 576 l 293 649 l 339 821 l 539 821 l 381 328 l 381 0 l 160 0 m 343 882 q 299 892 319 882 q 258 911 278 901 q 226 927 242 921 q 193 933 210 933 q 165 919 175 933 q 154 883 156 904 l 97 883 q 124 989 97 949 q 196 1029 151 1029 q 242 1022 221 1029 q 281 1004 263 1014 q 313 989 297 996 q 344 982 329 982 q 376 995 367 982 q 388 1025 385 1008 l 451 1025 q 434 946 451 978 q 392 898 417 914 q 343 882 367 882 z "},"Ѫ":{"ha":918,"x_min":28,"x_max":890,"o":"m 28 0 l 104 351 q 126 408 111 383 q 165 449 142 433 q 218 467 188 465 l 276 469 l 31 672 l 31 821 l 878 821 l 878 672 l 633 471 l 701 465 q 753 449 731 464 q 791 409 775 433 q 814 351 807 385 l 890 0 l 644 0 l 593 311 q 585 363 589 338 q 578 415 582 389 l 575 415 l 575 0 l 343 0 l 342 415 l 339 415 q 331 367 335 392 q 324 319 328 343 l 274 0 l 28 0 m 454 549 l 625 672 l 283 672 l 454 549 z "},"Z":{"ha":428,"x_min":14,"x_max":414,"o":"m 14 0 l 14 136 l 163 667 l 28 667 l 28 821 l 414 821 l 414 717 l 254 154 l 414 154 l 414 0 l 14 0 z "},"Ź":{"ha":428,"x_min":14,"x_max":428,"o":"m 14 0 l 14 136 l 163 667 l 28 667 l 28 821 l 414 821 l 414 717 l 254 154 l 414 154 l 414 0 l 14 0 m 129 882 l 236 1025 l 428 1025 l 247 882 l 129 882 z "},"Ž":{"ha":428,"x_min":14,"x_max":425,"o":"m 14 0 l 14 136 l 163 667 l 28 667 l 28 821 l 414 821 l 414 717 l 254 154 l 414 154 l 414 0 l 14 0 m 168 878 l 28 1029 l 163 1029 l 228 969 l 293 1028 l 425 1028 l 283 878 l 168 878 z "},"Ż":{"ha":428,"x_min":14,"x_max":414,"o":"m 14 0 l 14 136 l 163 667 l 28 667 l 28 821 l 414 821 l 414 717 l 254 154 l 414 154 l 414 0 l 14 0 m 250 876 q 176 906 207 876 q 144 979 146 936 q 176 1051 144 1021 q 251 1081 208 1081 q 327 1051 296 1081 q 358 978 358 1021 q 327 906 360 936 q 250 876 294 876 z "},"З":{"ha":576,"x_min":11,"x_max":518,"o":"m 264 -8 q 124 14 181 -8 q 40 81 68 36 q 11 192 11 125 l 11 296 l 232 296 l 232 261 q 235 176 232 204 q 261 147 239 147 q 284 169 279 147 q 289 222 289 192 l 289 304 q 265 347 289 338 q 189 356 240 356 l 135 356 l 135 472 l 190 472 q 231 475 214 472 q 260 483 249 478 q 283 503 278 492 q 289 529 289 515 l 289 593 q 284 646 289 624 q 261 668 279 668 q 235 640 239 668 q 232 554 232 611 l 232 533 l 11 533 l 11 624 q 74 774 11 724 q 264 824 138 824 q 459 781 400 824 q 518 643 518 738 l 518 564 q 483 452 518 494 q 375 407 449 410 q 480 367 442 407 q 518 257 518 328 l 518 192 q 492 73 518 117 q 410 10 465 29 q 264 -8 354 -8 z "},"Ж":{"ha":971,"x_min":14,"x_max":957,"o":"m 14 0 l 156 426 l 17 821 l 271 821 l 340 486 l 372 486 l 372 821 l 593 821 l 593 486 l 631 486 l 700 821 l 954 821 l 815 426 l 957 0 l 711 0 l 631 368 l 593 368 l 593 0 l 372 0 l 372 368 l 340 368 l 260 0 l 14 0 z "},"a":{"ha":525,"x_min":19,"x_max":497,"o":"m 156 -11 q 86 -1 117 -11 q 38 39 56 10 q 19 124 19 68 l 19 236 q 55 336 19 297 q 179 403 90 375 q 240 427 219 417 q 269 455 261 438 q 276 507 276 472 l 276 551 q 274 570 276 563 q 267 583 272 578 q 253 588 263 588 q 234 570 239 588 q 229 504 229 553 l 229 446 l 33 446 l 33 525 q 49 616 33 576 q 111 678 64 656 q 253 701 158 701 q 400 688 347 701 q 475 638 453 674 q 497 536 497 603 l 497 0 l 281 0 l 281 68 q 237 11 274 33 q 156 -11 200 -11 m 253 129 q 273 144 269 129 q 276 194 276 160 l 276 335 q 264 324 274 329 q 247 311 254 319 q 233 292 238 301 q 229 264 229 282 l 229 179 q 231 155 229 167 q 237 136 232 143 q 253 129 242 129 z "},"а":{"ha":525,"x_min":19,"x_max":497,"o":"m 156 -11 q 86 -1 117 -11 q 38 39 56 10 q 19 124 19 68 l 19 236 q 55 336 19 297 q 179 403 90 375 q 240 427 219 417 q 269 455 261 438 q 276 507 276 472 l 276 551 q 274 570 276 563 q 267 583 272 578 q 253 588 263 588 q 234 570 239 588 q 229 504 229 553 l 229 446 l 33 446 l 33 525 q 49 616 33 576 q 111 678 64 656 q 253 701 158 701 q 400 688 347 701 q 475 638 453 674 q 497 536 497 603 l 497 0 l 281 0 l 281 68 q 237 11 274 33 q 156 -11 200 -11 m 253 129 q 273 144 269 129 q 276 194 276 160 l 276 335 q 264 324 274 329 q 247 311 254 319 q 233 292 238 301 q 229 264 229 282 l 229 179 q 231 155 229 167 q 237 136 232 143 q 253 129 242 129 z "},"á":{"ha":525,"x_min":19,"x_max":497,"o":"m 156 -11 q 86 -1 117 -11 q 38 39 56 10 q 19 124 19 68 l 19 236 q 55 336 19 297 q 179 403 90 375 q 240 427 219 417 q 269 455 261 438 q 276 507 276 472 l 276 551 q 274 570 276 563 q 267 583 272 578 q 253 588 263 588 q 234 570 239 588 q 229 504 229 553 l 229 446 l 33 446 l 33 525 q 49 616 33 576 q 111 678 64 656 q 253 701 158 701 q 400 688 347 701 q 475 638 453 674 q 497 536 497 603 l 497 0 l 281 0 l 281 68 q 237 11 274 33 q 156 -11 200 -11 m 253 129 q 273 144 269 129 q 276 194 276 160 l 276 335 q 264 324 274 329 q 247 311 254 319 q 233 292 238 301 q 229 264 229 282 l 229 179 q 231 155 229 167 q 237 136 232 143 q 253 129 242 129 m 185 764 l 265 911 l 468 911 l 321 764 l 185 764 z "},"ă":{"ha":525,"x_min":19,"x_max":497,"o":"m 156 -11 q 86 -1 117 -11 q 38 39 56 10 q 19 124 19 68 l 19 236 q 55 336 19 297 q 179 403 90 375 q 240 427 219 417 q 269 455 261 438 q 276 507 276 472 l 276 551 q 274 570 276 563 q 267 583 272 578 q 253 588 263 588 q 234 570 239 588 q 229 504 229 553 l 229 446 l 33 446 l 33 525 q 49 616 33 576 q 111 678 64 656 q 253 701 158 701 q 400 688 347 701 q 475 638 453 674 q 497 536 497 603 l 497 0 l 281 0 l 281 68 q 237 11 274 33 q 156 -11 200 -11 m 253 129 q 273 144 269 129 q 276 194 276 160 l 276 335 q 264 324 274 329 q 247 311 254 319 q 233 292 238 301 q 229 264 229 282 l 229 179 q 231 155 229 167 q 237 136 232 143 q 253 129 242 129 m 265 757 q 155 783 192 757 q 106 844 118 808 q 94 907 94 879 l 208 907 q 226 869 208 882 q 267 857 244 857 q 308 869 290 857 q 326 907 325 881 l 442 907 q 424 831 442 865 q 367 777 406 797 q 265 757 329 757 z "},"ắ":{"ha":525,"x_min":19,"x_max":497,"o":"m 156 -11 q 86 -1 117 -11 q 38 39 56 10 q 19 124 19 68 l 19 236 q 55 336 19 297 q 179 403 90 375 q 240 427 219 417 q 269 455 261 438 q 276 507 276 472 l 276 551 q 274 570 276 563 q 267 583 272 578 q 253 588 263 588 q 234 570 239 588 q 229 504 229 553 l 229 446 l 33 446 l 33 525 q 49 616 33 576 q 111 678 64 656 q 253 701 158 701 q 400 688 347 701 q 475 638 453 674 q 497 536 497 603 l 497 0 l 281 0 l 281 68 q 237 11 274 33 q 156 -11 200 -11 m 253 129 q 273 144 269 129 q 276 194 276 160 l 276 335 q 264 324 274 329 q 247 311 254 319 q 233 292 238 301 q 229 264 229 282 l 229 179 q 231 155 229 167 q 237 136 232 143 q 253 129 242 129 m 265 757 q 155 783 192 757 q 106 844 118 808 q 94 907 94 879 l 208 907 q 226 869 208 882 q 267 857 244 857 q 308 869 290 857 q 326 907 325 881 l 442 907 q 424 831 442 865 q 367 777 406 797 q 265 757 329 757 m 185 943 l 265 1090 l 468 1090 l 321 943 l 185 943 z "},"ặ":{"ha":525,"x_min":19,"x_max":497,"o":"m 156 -11 q 86 -1 117 -11 q 38 39 56 10 q 19 124 19 68 l 19 236 q 55 336 19 297 q 179 403 90 375 q 240 427 219 417 q 269 455 261 438 q 276 507 276 472 l 276 551 q 274 570 276 563 q 267 583 272 578 q 253 588 263 588 q 234 570 239 588 q 229 504 229 553 l 229 446 l 33 446 l 33 525 q 49 616 33 576 q 111 678 64 656 q 253 701 158 701 q 400 688 347 701 q 475 638 453 674 q 497 536 497 603 l 497 0 l 281 0 l 281 68 q 237 11 274 33 q 156 -11 200 -11 m 253 129 q 273 144 269 129 q 276 194 276 160 l 276 335 q 264 324 274 329 q 247 311 254 319 q 233 292 238 301 q 229 264 229 282 l 229 179 q 231 155 229 167 q 237 136 232 143 q 253 129 242 129 m 261 -204 q 203 -181 226 -204 q 179 -125 179 -157 q 203 -68 179 -92 q 261 -44 226 -44 q 321 -68 296 -44 q 346 -125 346 -92 q 321 -181 346 -157 q 261 -204 296 -204 m 265 757 q 155 783 192 757 q 106 844 118 808 q 94 907 94 879 l 208 907 q 226 869 208 882 q 267 857 244 857 q 308 869 290 857 q 326 907 325 881 l 442 907 q 424 831 442 865 q 367 777 406 797 q 265 757 329 757 z "},"ằ":{"ha":525,"x_min":19,"x_max":497,"o":"m 156 -11 q 86 -1 117 -11 q 38 39 56 10 q 19 124 19 68 l 19 236 q 55 336 19 297 q 179 403 90 375 q 240 427 219 417 q 269 455 261 438 q 276 507 276 472 l 276 551 q 274 570 276 563 q 267 583 272 578 q 253 588 263 588 q 234 570 239 588 q 229 504 229 553 l 229 446 l 33 446 l 33 525 q 49 616 33 576 q 111 678 64 656 q 253 701 158 701 q 400 688 347 701 q 475 638 453 674 q 497 536 497 603 l 497 0 l 281 0 l 281 68 q 237 11 274 33 q 156 -11 200 -11 m 253 129 q 273 144 269 129 q 276 194 276 160 l 276 335 q 264 324 274 329 q 247 311 254 319 q 233 292 238 301 q 229 264 229 282 l 229 179 q 231 155 229 167 q 237 136 232 143 q 253 129 242 129 m 265 757 q 155 783 192 757 q 106 844 118 808 q 94 907 94 879 l 208 907 q 226 869 208 882 q 267 857 244 857 q 308 869 290 857 q 326 907 325 881 l 442 907 q 424 831 442 865 q 367 777 406 797 q 265 757 329 757 m 226 943 l 79 1090 l 282 1090 l 363 943 l 226 943 z "},"ẳ":{"ha":525,"x_min":19,"x_max":497,"o":"m 156 -11 q 86 -1 117 -11 q 38 39 56 10 q 19 124 19 68 l 19 236 q 55 336 19 297 q 179 403 90 375 q 240 427 219 417 q 269 455 261 438 q 276 507 276 472 l 276 551 q 274 570 276 563 q 267 583 272 578 q 253 588 263 588 q 234 570 239 588 q 229 504 229 553 l 229 446 l 33 446 l 33 525 q 49 616 33 576 q 111 678 64 656 q 253 701 158 701 q 400 688 347 701 q 475 638 453 674 q 497 536 497 603 l 497 0 l 281 0 l 281 68 q 237 11 274 33 q 156 -11 200 -11 m 253 129 q 273 144 269 129 q 276 194 276 160 l 276 335 q 264 324 274 329 q 247 311 254 319 q 233 292 238 301 q 229 264 229 282 l 229 179 q 231 155 229 167 q 237 136 232 143 q 253 129 242 129 m 265 757 q 155 783 192 757 q 106 844 118 808 q 94 907 94 879 l 208 907 q 226 869 208 882 q 267 857 244 857 q 308 869 290 857 q 326 907 325 881 l 442 907 q 424 831 442 865 q 367 777 406 797 q 265 757 329 757 m 208 943 l 208 956 q 222 988 208 976 q 250 1008 236 999 q 264 1032 264 1017 l 264 1042 q 261 1059 264 1050 q 249 1068 258 1068 q 233 1040 233 1068 l 140 1054 q 172 1121 143 1099 q 258 1143 201 1143 q 353 1127 321 1143 q 385 1046 385 1111 l 385 1040 q 369 997 385 1008 q 338 978 353 985 q 322 956 322 972 l 322 943 l 208 943 z "},"ẵ":{"ha":525,"x_min":19,"x_max":497,"o":"m 156 -11 q 86 -1 117 -11 q 38 39 56 10 q 19 124 19 68 l 19 236 q 55 336 19 297 q 179 403 90 375 q 240 427 219 417 q 269 455 261 438 q 276 507 276 472 l 276 551 q 274 570 276 563 q 267 583 272 578 q 253 588 263 588 q 234 570 239 588 q 229 504 229 553 l 229 446 l 33 446 l 33 525 q 49 616 33 576 q 111 678 64 656 q 253 701 158 701 q 400 688 347 701 q 475 638 453 674 q 497 536 497 603 l 497 0 l 281 0 l 281 68 q 237 11 274 33 q 156 -11 200 -11 m 253 129 q 273 144 269 129 q 276 194 276 160 l 276 335 q 264 324 274 329 q 247 311 254 319 q 233 292 238 301 q 229 264 229 282 l 229 179 q 231 155 229 167 q 237 136 232 143 q 253 129 242 129 m 265 757 q 155 783 192 757 q 106 844 118 808 q 94 907 94 879 l 208 907 q 226 869 208 882 q 267 857 244 857 q 308 869 290 857 q 326 907 325 881 l 442 907 q 424 831 442 865 q 367 777 406 797 q 265 757 329 757 m 336 940 q 292 950 313 940 q 251 969 271 960 q 219 985 235 979 q 186 992 203 992 q 158 977 168 992 q 147 942 149 963 l 90 942 q 117 1047 90 1007 q 189 1088 144 1088 q 235 1080 214 1088 q 274 1063 256 1072 q 306 1047 290 1054 q 338 1040 322 1040 q 369 1053 360 1040 q 381 1083 378 1067 l 444 1083 q 427 1004 444 1036 q 385 956 410 972 q 336 940 360 940 z "},"ǎ":{"ha":525,"x_min":19,"x_max":497,"o":"m 156 -11 q 86 -1 117 -11 q 38 39 56 10 q 19 124 19 68 l 19 236 q 55 336 19 297 q 179 403 90 375 q 240 427 219 417 q 269 455 261 438 q 276 507 276 472 l 276 551 q 274 570 276 563 q 267 583 272 578 q 253 588 263 588 q 234 570 239 588 q 229 504 229 553 l 229 446 l 33 446 l 33 525 q 49 616 33 576 q 111 678 64 656 q 253 701 158 701 q 400 688 347 701 q 475 638 453 674 q 497 536 497 603 l 497 0 l 281 0 l 281 68 q 237 11 274 33 q 156 -11 200 -11 m 253 129 q 273 144 269 129 q 276 194 276 160 l 276 335 q 264 324 274 329 q 247 311 254 319 q 233 292 238 301 q 229 264 229 282 l 229 179 q 231 155 229 167 q 237 136 232 143 q 253 129 242 129 m 210 757 l 72 918 l 200 918 l 269 846 l 339 918 l 464 918 l 325 757 l 210 757 z "},"â":{"ha":525,"x_min":19,"x_max":497,"o":"m 156 -11 q 86 -1 117 -11 q 38 39 56 10 q 19 124 19 68 l 19 236 q 55 336 19 297 q 179 403 90 375 q 240 427 219 417 q 269 455 261 438 q 276 507 276 472 l 276 551 q 274 570 276 563 q 267 583 272 578 q 253 588 263 588 q 234 570 239 588 q 229 504 229 553 l 229 446 l 33 446 l 33 525 q 49 616 33 576 q 111 678 64 656 q 253 701 158 701 q 400 688 347 701 q 475 638 453 674 q 497 536 497 603 l 497 0 l 281 0 l 281 68 q 237 11 274 33 q 156 -11 200 -11 m 253 129 q 273 144 269 129 q 276 194 276 160 l 276 335 q 264 324 274 329 q 247 311 254 319 q 233 292 238 301 q 229 264 229 282 l 229 179 q 231 155 229 167 q 237 136 232 143 q 253 129 242 129 m 72 757 l 210 918 l 325 918 l 464 757 l 339 757 l 269 829 l 200 757 l 72 757 z "},"ấ":{"ha":525,"x_min":19,"x_max":736,"o":"m 156 -11 q 86 -1 117 -11 q 38 39 56 10 q 19 124 19 68 l 19 236 q 55 336 19 297 q 179 403 90 375 q 240 427 219 417 q 269 455 261 438 q 276 507 276 472 l 276 551 q 274 570 276 563 q 267 583 272 578 q 253 588 263 588 q 234 570 239 588 q 229 504 229 553 l 229 446 l 33 446 l 33 525 q 49 616 33 576 q 111 678 64 656 q 253 701 158 701 q 400 688 347 701 q 475 638 453 674 q 497 536 497 603 l 497 0 l 281 0 l 281 68 q 237 11 274 33 q 156 -11 200 -11 m 253 129 q 273 144 269 129 q 276 194 276 160 l 276 335 q 264 324 274 329 q 247 311 254 319 q 233 292 238 301 q 229 264 229 282 l 229 179 q 231 155 229 167 q 237 136 232 143 q 253 129 242 129 m 72 757 l 210 918 l 325 918 l 464 757 l 339 757 l 269 829 l 200 757 l 72 757 m 453 840 l 533 988 l 736 988 l 589 840 l 453 840 z "},"ậ":{"ha":525,"x_min":19,"x_max":497,"o":"m 156 -11 q 86 -1 117 -11 q 38 39 56 10 q 19 124 19 68 l 19 236 q 55 336 19 297 q 179 403 90 375 q 240 427 219 417 q 269 455 261 438 q 276 507 276 472 l 276 551 q 274 570 276 563 q 267 583 272 578 q 253 588 263 588 q 234 570 239 588 q 229 504 229 553 l 229 446 l 33 446 l 33 525 q 49 616 33 576 q 111 678 64 656 q 253 701 158 701 q 400 688 347 701 q 475 638 453 674 q 497 536 497 603 l 497 0 l 281 0 l 281 68 q 237 11 274 33 q 156 -11 200 -11 m 253 129 q 273 144 269 129 q 276 194 276 160 l 276 335 q 264 324 274 329 q 247 311 254 319 q 233 292 238 301 q 229 264 229 282 l 229 179 q 231 155 229 167 q 237 136 232 143 q 253 129 242 129 m 261 -204 q 203 -181 226 -204 q 179 -125 179 -157 q 203 -68 179 -92 q 261 -44 226 -44 q 321 -68 296 -44 q 346 -125 346 -92 q 321 -181 346 -157 q 261 -204 296 -204 m 72 757 l 210 918 l 325 918 l 464 757 l 339 757 l 269 829 l 200 757 l 72 757 z "},"ầ":{"ha":525,"x_min":19,"x_max":631,"o":"m 156 -11 q 86 -1 117 -11 q 38 39 56 10 q 19 124 19 68 l 19 236 q 55 336 19 297 q 179 403 90 375 q 240 427 219 417 q 269 455 261 438 q 276 507 276 472 l 276 551 q 274 570 276 563 q 267 583 272 578 q 253 588 263 588 q 234 570 239 588 q 229 504 229 553 l 229 446 l 33 446 l 33 525 q 49 616 33 576 q 111 678 64 656 q 253 701 158 701 q 400 688 347 701 q 475 638 453 674 q 497 536 497 603 l 497 0 l 281 0 l 281 68 q 237 11 274 33 q 156 -11 200 -11 m 253 129 q 273 144 269 129 q 276 194 276 160 l 276 335 q 264 324 274 329 q 247 311 254 319 q 233 292 238 301 q 229 264 229 282 l 229 179 q 231 155 229 167 q 237 136 232 143 q 253 129 242 129 m 72 757 l 210 918 l 325 918 l 464 757 l 339 757 l 269 829 l 200 757 l 72 757 m 494 840 l 347 988 l 550 988 l 631 840 l 494 840 z "},"ẩ":{"ha":525,"x_min":19,"x_max":653,"o":"m 156 -11 q 86 -1 117 -11 q 38 39 56 10 q 19 124 19 68 l 19 236 q 55 336 19 297 q 179 403 90 375 q 240 427 219 417 q 269 455 261 438 q 276 507 276 472 l 276 551 q 274 570 276 563 q 267 583 272 578 q 253 588 263 588 q 234 570 239 588 q 229 504 229 553 l 229 446 l 33 446 l 33 525 q 49 616 33 576 q 111 678 64 656 q 253 701 158 701 q 400 688 347 701 q 475 638 453 674 q 497 536 497 603 l 497 0 l 281 0 l 281 68 q 237 11 274 33 q 156 -11 200 -11 m 253 129 q 273 144 269 129 q 276 194 276 160 l 276 335 q 264 324 274 329 q 247 311 254 319 q 233 292 238 301 q 229 264 229 282 l 229 179 q 231 155 229 167 q 237 136 232 143 q 253 129 242 129 m 72 757 l 210 918 l 325 918 l 464 757 l 339 757 l 269 829 l 200 757 l 72 757 m 476 840 l 476 853 q 490 885 476 874 q 518 905 504 896 q 532 929 532 914 l 532 939 q 529 956 532 947 q 517 965 526 965 q 501 938 501 965 l 408 951 q 440 1018 411 996 q 526 1040 469 1040 q 621 1024 589 1040 q 653 943 653 1008 l 653 938 q 637 894 653 906 q 606 876 621 882 q 590 853 590 869 l 590 840 l 476 840 z "},"ẫ":{"ha":525,"x_min":19,"x_max":497,"o":"m 156 -11 q 86 -1 117 -11 q 38 39 56 10 q 19 124 19 68 l 19 236 q 55 336 19 297 q 179 403 90 375 q 240 427 219 417 q 269 455 261 438 q 276 507 276 472 l 276 551 q 274 570 276 563 q 267 583 272 578 q 253 588 263 588 q 234 570 239 588 q 229 504 229 553 l 229 446 l 33 446 l 33 525 q 49 616 33 576 q 111 678 64 656 q 253 701 158 701 q 400 688 347 701 q 475 638 453 674 q 497 536 497 603 l 497 0 l 281 0 l 281 68 q 237 11 274 33 q 156 -11 200 -11 m 253 129 q 273 144 269 129 q 276 194 276 160 l 276 335 q 264 324 274 329 q 247 311 254 319 q 233 292 238 301 q 229 264 229 282 l 229 179 q 231 155 229 167 q 237 136 232 143 q 253 129 242 129 m 72 757 l 210 918 l 325 918 l 464 757 l 339 757 l 269 829 l 200 757 l 72 757 m 338 953 q 293 963 314 953 q 253 982 272 972 q 220 998 236 992 q 188 1004 204 1004 q 160 990 169 1004 q 149 954 150 975 l 92 954 q 119 1060 92 1019 q 190 1100 146 1100 q 236 1092 215 1100 q 275 1075 257 1085 q 308 1060 292 1067 q 339 1053 324 1053 q 370 1066 361 1053 q 382 1096 379 1079 l 446 1096 q 428 1017 446 1049 q 386 969 411 985 q 338 953 361 953 z "},"´":{"ha":311,"x_min":0,"x_max":283,"o":"m 0 764 l 81 911 l 283 911 l 136 764 l 0 764 z "},"́":{"ha":0,"x_min":0,"x_max":283,"o":"m 0 764 l 81 911 l 283 911 l 136 764 l 0 764 z "},"ä":{"ha":525,"x_min":19,"x_max":497,"o":"m 156 -11 q 86 -1 117 -11 q 38 39 56 10 q 19 124 19 68 l 19 236 q 55 336 19 297 q 179 403 90 375 q 240 427 219 417 q 269 455 261 438 q 276 507 276 472 l 276 551 q 274 570 276 563 q 267 583 272 578 q 253 588 263 588 q 234 570 239 588 q 229 504 229 553 l 229 446 l 33 446 l 33 525 q 49 616 33 576 q 111 678 64 656 q 253 701 158 701 q 400 688 347 701 q 475 638 453 674 q 497 536 497 603 l 497 0 l 281 0 l 281 68 q 237 11 274 33 q 156 -11 200 -11 m 253 129 q 273 144 269 129 q 276 194 276 160 l 276 335 q 264 324 274 329 q 247 311 254 319 q 233 292 238 301 q 229 264 229 282 l 229 179 q 231 155 229 167 q 237 136 232 143 q 253 129 242 129 m 172 754 q 113 777 136 754 q 89 833 89 800 q 113 889 89 867 q 172 911 136 911 q 230 889 207 911 q 253 833 253 867 q 230 777 253 800 q 172 754 207 754 m 365 754 q 306 777 329 754 q 282 833 282 800 q 306 889 282 867 q 365 911 329 911 q 423 889 400 911 q 446 833 446 867 q 423 777 446 800 q 365 754 400 754 z "},"ạ":{"ha":525,"x_min":19,"x_max":497,"o":"m 156 -11 q 86 -1 117 -11 q 38 39 56 10 q 19 124 19 68 l 19 236 q 55 336 19 297 q 179 403 90 375 q 240 427 219 417 q 269 455 261 438 q 276 507 276 472 l 276 551 q 274 570 276 563 q 267 583 272 578 q 253 588 263 588 q 234 570 239 588 q 229 504 229 553 l 229 446 l 33 446 l 33 525 q 49 616 33 576 q 111 678 64 656 q 253 701 158 701 q 400 688 347 701 q 475 638 453 674 q 497 536 497 603 l 497 0 l 281 0 l 281 68 q 237 11 274 33 q 156 -11 200 -11 m 253 129 q 273 144 269 129 q 276 194 276 160 l 276 335 q 264 324 274 329 q 247 311 254 319 q 233 292 238 301 q 229 264 229 282 l 229 179 q 231 155 229 167 q 237 136 232 143 q 253 129 242 129 m 261 -204 q 203 -181 226 -204 q 179 -125 179 -157 q 203 -68 179 -92 q 261 -44 226 -44 q 321 -68 296 -44 q 346 -125 346 -92 q 321 -181 346 -157 q 261 -204 296 -204 z "},"æ":{"ha":782,"x_min":19,"x_max":761,"o":"m 156 -10 q 117 -8 140 -10 q 72 6 94 -6 q 35 44 50 17 q 19 124 19 72 l 19 236 q 63 344 19 308 q 174 401 106 379 q 236 424 214 415 q 267 451 258 433 q 276 507 276 469 l 276 551 q 274 570 276 563 q 267 583 272 578 q 253 588 263 588 q 234 570 239 588 q 229 504 229 553 l 229 446 l 33 446 l 33 525 q 49 616 33 576 q 111 678 64 656 q 253 701 158 701 q 375 683 331 701 q 438 627 419 664 q 456 536 456 590 l 456 0 l 324 108 q 252 15 300 40 q 156 -10 204 -10 m 253 129 q 273 144 269 129 q 276 194 276 160 l 276 335 q 264 324 274 329 q 247 311 254 319 q 233 292 238 301 q 229 264 229 282 l 229 179 q 231 155 229 167 q 237 136 232 143 q 253 129 242 129 m 521 -3 q 433 3 472 -3 q 365 31 393 10 q 323 100 338 53 q 308 231 308 147 l 308 518 q 364 646 308 593 q 521 699 419 699 q 699 660 636 699 q 761 518 761 621 l 761 324 l 497 324 l 497 136 q 500 111 497 121 q 508 98 503 101 q 521 94 514 94 q 533 98 528 94 q 542 111 539 101 q 544 136 544 121 l 544 261 l 761 261 l 761 232 q 744 101 761 149 q 697 31 728 53 q 621 3 665 10 q 521 -3 576 -3 m 497 417 l 544 417 l 544 546 q 538 578 544 569 q 521 588 532 588 q 504 578 511 588 q 497 546 497 569 l 497 417 z "},"à":{"ha":525,"x_min":19,"x_max":497,"o":"m 156 -11 q 86 -1 117 -11 q 38 39 56 10 q 19 124 19 68 l 19 236 q 55 336 19 297 q 179 403 90 375 q 240 427 219 417 q 269 455 261 438 q 276 507 276 472 l 276 551 q 274 570 276 563 q 267 583 272 578 q 253 588 263 588 q 234 570 239 588 q 229 504 229 553 l 229 446 l 33 446 l 33 525 q 49 616 33 576 q 111 678 64 656 q 253 701 158 701 q 400 688 347 701 q 475 638 453 674 q 497 536 497 603 l 497 0 l 281 0 l 281 68 q 237 11 274 33 q 156 -11 200 -11 m 253 129 q 273 144 269 129 q 276 194 276 160 l 276 335 q 264 324 274 329 q 247 311 254 319 q 233 292 238 301 q 229 264 229 282 l 229 179 q 231 155 229 167 q 237 136 232 143 q 253 129 242 129 m 226 764 l 79 911 l 282 911 l 363 764 l 226 764 z "},"ả":{"ha":525,"x_min":19,"x_max":497,"o":"m 156 -11 q 86 -1 117 -11 q 38 39 56 10 q 19 124 19 68 l 19 236 q 55 336 19 297 q 179 403 90 375 q 240 427 219 417 q 269 455 261 438 q 276 507 276 472 l 276 551 q 274 570 276 563 q 267 583 272 578 q 253 588 263 588 q 234 570 239 588 q 229 504 229 553 l 229 446 l 33 446 l 33 525 q 49 616 33 576 q 111 678 64 656 q 253 701 158 701 q 400 688 347 701 q 475 638 453 674 q 497 536 497 603 l 497 0 l 281 0 l 281 68 q 237 11 274 33 q 156 -11 200 -11 m 253 129 q 273 144 269 129 q 276 194 276 160 l 276 335 q 264 324 274 329 q 247 311 254 319 q 233 292 238 301 q 229 264 229 282 l 229 179 q 231 155 229 167 q 237 136 232 143 q 253 129 242 129 m 208 764 l 208 776 q 222 808 208 797 q 250 828 236 819 q 264 853 264 838 l 264 863 q 261 880 264 871 q 249 889 258 889 q 233 861 233 889 l 140 875 q 172 942 143 919 q 258 964 201 964 q 353 948 321 964 q 385 867 385 932 l 385 861 q 369 817 385 829 q 338 799 353 806 q 322 776 322 793 l 322 764 l 208 764 z "},"ā":{"ha":525,"x_min":19,"x_max":497,"o":"m 156 -11 q 86 -1 117 -11 q 38 39 56 10 q 19 124 19 68 l 19 236 q 55 336 19 297 q 179 403 90 375 q 240 427 219 417 q 269 455 261 438 q 276 507 276 472 l 276 551 q 274 570 276 563 q 267 583 272 578 q 253 588 263 588 q 234 570 239 588 q 229 504 229 553 l 229 446 l 33 446 l 33 525 q 49 616 33 576 q 111 678 64 656 q 253 701 158 701 q 400 688 347 701 q 475 638 453 674 q 497 536 497 603 l 497 0 l 281 0 l 281 68 q 237 11 274 33 q 156 -11 200 -11 m 253 129 q 273 144 269 129 q 276 194 276 160 l 276 335 q 264 324 274 329 q 247 311 254 319 q 233 292 238 301 q 229 264 229 282 l 229 179 q 231 155 229 167 q 237 136 232 143 q 253 129 242 129 m 114 772 l 114 879 l 422 879 l 422 772 l 114 772 z "},"&":{"ha":624,"x_min":28,"x_max":596,"o":"m 256 -3 q 133 25 183 -3 q 55 103 82 53 q 28 226 28 154 q 53 329 28 281 q 131 389 78 378 q 106 457 115 421 q 100 538 97 493 q 150 664 106 621 q 283 707 194 707 q 375 701 328 707 q 459 687 422 694 q 510 674 496 679 l 510 519 q 481 526 507 521 q 417 537 454 532 q 344 542 381 542 q 310 531 324 542 q 292 504 297 521 q 292 467 288 488 q 308 428 296 447 q 319 410 314 419 q 331 393 325 401 q 342 376 336 385 q 356 360 349 368 q 369 344 363 353 l 371 450 l 596 450 l 596 318 l 507 318 q 506 292 507 306 q 503 264 506 278 q 499 235 501 250 q 547 209 518 224 q 596 188 576 194 l 596 -3 q 513 17 561 -3 q 424 64 464 38 q 379 27 404 42 q 324 5 354 13 q 256 -3 293 -3 m 265 144 q 290 147 279 144 q 311 156 301 150 q 252 215 281 183 q 200 281 224 247 q 196 267 197 274 q 194 250 194 260 q 211 174 190 203 q 265 144 232 144 z "},"ą":{"ha":525,"x_min":19,"x_max":526,"o":"m 156 -11 q 86 -1 117 -11 q 38 39 56 10 q 19 124 19 68 l 19 236 q 55 336 19 297 q 179 403 90 375 q 240 427 219 417 q 269 455 261 438 q 276 507 276 472 l 276 551 q 274 570 276 563 q 267 583 272 578 q 253 588 263 588 q 234 570 239 588 q 229 504 229 553 l 229 446 l 33 446 l 33 525 q 49 616 33 576 q 111 678 64 656 q 253 701 158 701 q 400 688 347 701 q 475 638 453 674 q 497 536 497 603 l 497 0 l 281 0 l 281 68 q 237 11 274 33 q 156 -11 200 -11 m 253 129 q 273 144 269 129 q 276 194 276 160 l 276 335 q 264 324 274 329 q 247 311 254 319 q 233 292 238 301 q 229 264 229 282 l 229 179 q 231 155 229 167 q 237 136 232 143 q 253 129 242 129 m 419 -210 q 325 -180 360 -210 q 290 -115 290 -150 q 324 -40 290 -76 q 415 3 358 -3 l 497 0 q 443 -35 460 -10 q 426 -85 426 -61 q 444 -124 426 -110 q 478 -137 461 -137 q 494 -135 488 -137 q 503 -133 500 -133 l 526 -185 q 496 -199 519 -189 q 419 -210 472 -210 z "},"≈":{"ha":768,"x_min":42,"x_max":726,"o":"m 522 404 q 426 424 471 407 q 337 458 382 440 q 238 478 292 475 q 175 458 199 481 q 147 407 151 435 l 42 407 q 65 508 42 461 q 135 585 89 556 q 244 613 181 615 q 338 595 294 611 q 422 564 381 579 q 507 546 464 549 q 583 563 564 543 q 608 607 603 583 l 726 607 q 695 476 726 521 q 617 416 664 431 q 522 404 569 401 m 522 106 q 426 125 471 108 q 337 159 382 142 q 238 179 292 176 q 175 159 199 182 q 147 108 151 136 l 42 108 q 65 210 42 163 q 135 287 89 257 q 244 314 181 317 q 338 297 294 313 q 422 265 381 281 q 507 247 464 250 q 583 265 564 244 q 608 308 603 285 l 726 308 q 695 177 726 222 q 617 117 664 132 q 522 106 569 103 z "},"å":{"ha":525,"x_min":19,"x_max":497,"o":"m 156 -11 q 86 -1 117 -11 q 38 39 56 10 q 19 124 19 68 l 19 236 q 55 336 19 297 q 179 403 90 375 q 240 427 219 417 q 269 455 261 438 q 276 507 276 472 l 276 551 q 274 570 276 563 q 267 583 272 578 q 253 588 263 588 q 234 570 239 588 q 229 504 229 553 l 229 446 l 33 446 l 33 525 q 49 616 33 576 q 111 678 64 656 q 253 701 158 701 q 400 688 347 701 q 475 638 453 674 q 497 536 497 603 l 497 0 l 281 0 l 281 68 q 237 11 274 33 q 156 -11 200 -11 m 253 129 q 273 144 269 129 q 276 194 276 160 l 276 335 q 264 324 274 329 q 247 311 254 319 q 233 292 238 301 q 229 264 229 282 l 229 179 q 231 155 229 167 q 237 136 232 143 q 253 129 242 129 m 268 749 q 176 784 213 749 q 139 869 139 819 q 176 958 139 922 q 268 993 213 993 q 359 957 321 993 q 397 869 397 921 q 359 784 397 819 q 268 749 321 749 m 268 831 q 299 842 286 831 q 311 869 311 853 q 299 901 311 889 q 268 913 286 913 q 238 901 250 913 q 225 869 225 889 q 238 842 225 853 q 268 831 250 831 z "},"^":{"ha":613,"x_min":42,"x_max":571,"o":"m 42 688 l 256 999 l 358 999 l 571 688 l 401 688 l 310 839 l 215 688 l 42 688 z "},"~":{"ha":768,"x_min":42,"x_max":726,"o":"m 522 704 q 426 723 471 707 q 337 756 382 739 q 238 778 292 774 q 175 758 199 781 q 147 707 151 735 l 42 707 q 65 809 42 761 q 135 886 89 857 q 244 913 181 915 q 338 895 294 911 q 422 864 381 879 q 507 846 464 849 q 583 863 564 843 q 608 907 603 883 l 726 907 q 695 776 726 821 q 617 717 664 732 q 522 704 569 703 z "},"*":{"ha":833,"x_min":49,"x_max":733,"o":"m 283 100 l 125 217 l 332 403 l 49 415 l 119 628 l 356 471 l 289 744 l 492 744 l 431 472 l 669 622 l 733 426 l 454 403 l 667 218 l 504 104 l 394 358 l 283 100 z "},"@":{"ha":1053,"x_min":64,"x_max":976,"o":"m 501 -96 q 237 -44 332 -96 q 103 108 142 8 q 64 349 64 207 q 171 698 64 574 q 513 824 278 822 q 751 783 646 825 q 916 649 856 740 q 976 411 976 558 q 947 217 976 290 q 869 112 917 144 q 768 79 822 79 q 688 95 728 79 q 619 146 647 111 q 588 238 592 181 l 632 218 q 576 126 613 154 q 474 99 539 99 q 365 135 406 99 q 324 257 324 171 q 331 324 324 294 q 370 379 338 354 q 482 424 403 404 q 537 449 517 432 q 557 478 557 467 q 557 494 557 486 q 557 511 557 503 q 551 549 557 540 q 521 558 544 558 q 490 547 499 558 q 482 503 482 535 l 482 461 l 338 461 l 338 511 q 350 590 338 561 q 401 632 363 619 q 518 644 440 644 q 646 628 603 644 q 704 580 689 613 q 719 494 719 547 l 719 263 q 741 181 719 203 q 794 158 763 158 q 833 178 815 158 q 862 247 851 197 q 872 385 872 296 q 834 576 872 496 q 718 698 796 656 q 521 740 640 740 q 324 703 401 740 q 208 581 246 667 q 171 347 171 494 q 196 166 171 236 q 267 58 221 96 q 377 6 313 21 q 521 -12 442 -10 q 597 -10 549 -14 q 700 2 646 -6 q 799 21 754 10 q 863 44 843 32 l 863 -33 q 782 -60 836 -44 q 656 -85 728 -75 q 501 -96 585 -96 m 521 210 q 553 220 544 210 q 565 243 563 231 q 567 264 567 256 l 567 363 q 522 356 540 363 q 493 342 503 350 q 481 328 486 336 q 474 307 476 319 q 471 276 471 294 q 477 228 471 246 q 521 210 483 210 z "},"ã":{"ha":525,"x_min":19,"x_max":497,"o":"m 156 -11 q 86 -1 117 -11 q 38 39 56 10 q 19 124 19 68 l 19 236 q 55 336 19 297 q 179 403 90 375 q 240 427 219 417 q 269 455 261 438 q 276 507 276 472 l 276 551 q 274 570 276 563 q 267 583 272 578 q 253 588 263 588 q 234 570 239 588 q 229 504 229 553 l 229 446 l 33 446 l 33 525 q 49 616 33 576 q 111 678 64 656 q 253 701 158 701 q 400 688 347 701 q 475 638 453 674 q 497 536 497 603 l 497 0 l 281 0 l 281 68 q 237 11 274 33 q 156 -11 200 -11 m 253 129 q 273 144 269 129 q 276 194 276 160 l 276 335 q 264 324 274 329 q 247 311 254 319 q 233 292 238 301 q 229 264 229 282 l 229 179 q 231 155 229 167 q 237 136 232 143 q 253 129 242 129 m 336 761 q 292 771 313 761 q 251 790 271 781 q 219 806 235 800 q 186 813 203 813 q 158 798 168 813 q 147 763 149 783 l 90 763 q 117 868 90 828 q 189 908 144 908 q 235 901 214 908 q 274 883 256 893 q 306 868 290 875 q 338 861 322 861 q 369 874 360 861 q 381 904 378 888 l 444 904 q 427 825 444 857 q 385 777 410 793 q 336 761 360 761 z "},"b":{"ha":543,"x_min":35,"x_max":515,"o":"m 326 -10 q 233 16 267 -10 q 192 60 200 42 l 188 0 l 35 0 l 35 875 l 251 875 l 251 636 q 289 677 264 656 q 365 699 314 699 q 434 688 400 699 q 492 642 468 676 q 515 540 515 608 l 515 214 q 501 90 515 135 q 460 24 486 44 q 401 -3 435 3 q 326 -10 367 -10 m 275 136 q 288 139 283 136 q 294 148 292 142 q 298 163 297 154 q 299 185 299 172 l 299 522 q 297 542 299 535 q 292 555 296 550 q 285 562 289 560 q 275 564 281 564 q 258 555 265 564 q 251 522 251 546 l 251 185 q 253 163 251 172 q 257 148 254 154 q 264 139 260 142 q 275 136 268 136 z "},"\\":{"ha":833,"x_min":42,"x_max":664,"o":"m 517 -61 l 42 875 l 190 875 l 664 -61 l 517 -61 z "},"|":{"ha":465,"x_min":139,"x_max":326,"o":"m 139 -329 l 139 875 l 326 875 l 326 -329 l 139 -329 z "},"б":{"ha":536,"x_min":28,"x_max":508,"o":"m 258 -10 q 145 1 197 -10 q 61 48 93 13 q 29 154 29 83 l 28 636 q 37 761 28 707 q 77 845 46 815 q 174 875 108 875 q 251 879 201 875 q 351 889 300 883 q 437 901 401 894 q 472 914 472 908 l 472 835 q 451 783 472 804 q 372 758 431 761 l 358 758 q 278 746 301 758 q 249 713 254 733 q 244 667 244 692 l 244 639 q 279 678 256 658 q 354 699 303 699 q 424 688 389 699 q 484 645 460 678 q 508 543 508 613 l 508 214 q 492 90 508 135 q 445 24 476 44 q 367 -3 414 3 q 258 -10 321 -10 m 268 115 q 281 119 276 115 q 289 132 286 122 q 292 157 292 142 l 292 525 q 289 551 292 542 q 281 563 286 560 q 268 567 276 567 q 258 565 263 567 q 251 558 254 563 q 246 545 247 553 q 244 525 244 538 l 244 157 q 247 132 244 142 q 256 119 250 122 q 268 115 261 115 z "},"{":{"ha":490,"x_min":69,"x_max":435,"o":"m 435 -189 q 216 -156 296 -189 q 103 -74 136 -124 q 69 25 69 -25 q 87 119 69 83 q 127 179 104 156 q 167 223 150 203 q 185 268 185 243 q 175 304 185 289 q 146 328 165 319 q 94 338 126 338 l 94 397 q 138 410 119 397 q 168 442 157 422 q 179 485 179 463 q 163 521 179 501 q 124 564 146 540 q 86 620 103 588 q 69 697 69 653 q 101 807 69 756 q 213 891 133 858 q 435 924 292 924 l 435 814 q 369 801 400 808 q 321 770 339 793 q 303 697 303 747 q 315 628 303 657 q 341 575 326 599 q 367 526 356 551 q 379 469 379 501 q 369 426 379 450 q 335 385 360 403 q 265 368 310 368 q 346 349 311 368 q 381 276 381 331 q 371 230 381 253 q 349 181 361 207 q 326 124 336 156 q 317 49 317 92 q 338 -29 317 -1 q 388 -68 360 -57 q 435 -79 415 -79 l 435 -189 z "},"}":{"ha":490,"x_min":56,"x_max":421,"o":"m 56 -189 l 56 -79 q 103 -68 75 -79 q 152 -29 131 -57 q 174 49 174 -1 q 164 124 174 92 q 142 181 154 156 q 119 230 129 207 q 110 276 110 253 q 144 349 110 331 q 225 368 179 368 q 156 385 181 368 q 121 426 131 403 q 111 469 111 450 q 123 526 111 501 q 149 575 135 551 q 176 628 164 599 q 188 697 188 657 q 169 770 188 747 q 122 801 151 793 q 56 814 92 808 l 56 924 q 278 891 199 924 q 389 807 357 858 q 421 697 421 756 q 404 620 421 653 q 366 564 388 588 q 328 521 344 540 q 311 485 311 501 q 322 442 311 463 q 353 410 333 422 q 396 397 372 397 l 396 338 q 345 328 365 338 q 315 304 325 319 q 306 268 306 289 q 323 223 306 243 q 363 179 340 203 q 403 119 386 156 q 421 25 421 83 q 388 -74 421 -25 q 274 -156 354 -124 q 56 -189 194 -189 z "},"[":{"ha":463,"x_min":56,"x_max":407,"o":"m 56 -79 l 56 875 l 407 875 l 407 764 l 260 764 l 260 32 l 407 32 l 407 -79 l 56 -79 z "},"]":{"ha":463,"x_min":56,"x_max":407,"o":"m 56 -79 l 56 32 l 203 32 l 203 764 l 56 764 l 56 875 l 407 875 l 407 -79 l 56 -79 z "},"˘":{"ha":396,"x_min":25,"x_max":372,"o":"m 196 765 q 85 791 122 765 q 37 852 49 817 q 25 915 25 888 l 139 915 q 157 878 139 890 q 197 865 175 865 q 238 877 221 865 q 257 915 256 889 l 372 915 q 354 840 372 874 q 298 785 336 806 q 196 765 260 765 z "},"̆":{"ha":0,"x_min":25,"x_max":372,"o":"m 196 765 q 85 791 122 765 q 37 852 49 817 q 25 915 25 888 l 139 915 q 157 878 139 890 q 197 865 175 865 q 238 877 221 865 q 257 915 256 889 l 372 915 q 354 840 372 874 q 298 785 336 806 q 196 765 260 765 z "},"¦":{"ha":326,"x_min":69,"x_max":257,"o":"m 69 -229 l 69 251 l 257 251 l 257 -229 l 69 -229 m 69 371 l 69 813 l 257 813 l 257 371 l 69 371 z "},"•":{"ha":490,"x_min":56,"x_max":435,"o":"m 246 199 q 150 224 193 199 q 81 293 107 250 q 56 389 56 336 q 81 484 56 442 q 150 552 107 526 q 246 578 193 578 q 341 552 299 578 q 409 484 383 526 q 435 389 435 442 q 409 293 435 336 q 341 224 383 250 q 246 199 299 199 z "},"c":{"ha":529,"x_min":28,"x_max":508,"o":"m 268 -11 q 140 4 194 -11 q 57 72 86 19 q 28 231 28 124 l 28 504 q 90 657 28 615 q 268 699 153 699 q 446 660 383 699 q 508 518 508 621 l 508 408 l 292 408 l 292 532 q 285 565 292 556 q 268 574 279 574 q 251 565 258 574 q 244 532 244 556 l 244 156 q 251 123 244 132 q 268 114 258 114 q 285 123 279 114 q 292 156 292 132 l 292 296 l 508 296 l 508 232 q 479 72 508 124 q 396 4 450 19 q 268 -11 342 -11 z "},"ć":{"ha":529,"x_min":28,"x_max":508,"o":"m 268 -11 q 140 4 194 -11 q 57 72 86 19 q 28 231 28 124 l 28 504 q 90 657 28 615 q 268 699 153 699 q 446 660 383 699 q 508 518 508 621 l 508 408 l 292 408 l 292 532 q 285 565 292 556 q 268 574 279 574 q 251 565 258 574 q 244 532 244 556 l 244 156 q 251 123 244 132 q 268 114 258 114 q 285 123 279 114 q 292 156 292 132 l 292 296 l 508 296 l 508 232 q 479 72 508 124 q 396 4 450 19 q 268 -11 342 -11 m 182 764 l 263 911 l 465 911 l 318 764 l 182 764 z "},"ˇ":{"ha":439,"x_min":0,"x_max":392,"o":"m 138 757 l 0 918 l 128 918 l 197 846 l 267 918 l 392 918 l 253 757 l 138 757 z "},"̌":{"ha":0,"x_min":0,"x_max":392,"o":"m 138 757 l 0 918 l 128 918 l 197 846 l 267 918 l 392 918 l 253 757 l 138 757 z "},"č":{"ha":529,"x_min":28,"x_max":508,"o":"m 268 -11 q 140 4 194 -11 q 57 72 86 19 q 28 231 28 124 l 28 504 q 90 657 28 615 q 268 699 153 699 q 446 660 383 699 q 508 518 508 621 l 508 408 l 292 408 l 292 532 q 285 565 292 556 q 268 574 279 574 q 251 565 258 574 q 244 532 244 556 l 244 156 q 251 123 244 132 q 268 114 258 114 q 285 123 279 114 q 292 156 292 132 l 292 296 l 508 296 l 508 232 q 479 72 508 124 q 396 4 450 19 q 268 -11 342 -11 m 207 757 l 69 918 l 197 918 l 267 846 l 336 918 l 461 918 l 322 757 l 207 757 z "},"ç":{"ha":529,"x_min":28,"x_max":508,"o":"m 268 -11 q 140 4 194 -11 q 57 72 86 19 q 28 231 28 124 l 28 504 q 90 657 28 615 q 268 699 153 699 q 446 660 383 699 q 508 518 508 621 l 508 408 l 292 408 l 292 532 q 285 565 292 556 q 268 574 279 574 q 251 565 258 574 q 244 532 244 556 l 244 156 q 251 123 244 132 q 268 114 258 114 q 285 123 279 114 q 292 156 292 132 l 292 296 l 508 296 l 508 232 q 479 72 508 124 q 396 4 450 19 q 268 -11 342 -11 m 258 -242 q 201 -230 228 -242 q 165 -212 175 -218 l 190 -147 q 217 -162 200 -156 q 249 -168 235 -168 q 276 -159 267 -168 q 286 -133 286 -150 q 279 -117 286 -122 q 263 -111 272 -111 q 249 -114 254 -111 q 242 -119 244 -117 l 185 -89 l 228 0 l 306 0 l 269 -74 l 260 -68 q 282 -59 268 -64 q 315 -54 296 -54 q 380 -81 357 -54 q 403 -137 403 -107 q 365 -210 403 -179 q 258 -242 328 -242 z "},"ċ":{"ha":529,"x_min":28,"x_max":508,"o":"m 268 -11 q 140 4 194 -11 q 57 72 86 19 q 28 231 28 124 l 28 504 q 90 657 28 615 q 268 699 153 699 q 446 660 383 699 q 508 518 508 621 l 508 408 l 292 408 l 292 532 q 285 565 292 556 q 268 574 279 574 q 251 565 258 574 q 244 532 244 556 l 244 156 q 251 123 244 132 q 268 114 258 114 q 285 123 279 114 q 292 156 292 132 l 292 296 l 508 296 l 508 232 q 479 72 508 124 q 396 4 450 19 q 268 -11 342 -11 m 264 754 q 190 784 221 754 q 158 857 160 814 q 190 928 158 899 q 265 958 222 958 q 341 928 310 958 q 372 856 372 899 q 341 784 374 814 q 264 754 308 754 z "},"¸":{"ha":338,"x_min":0,"x_max":238,"o":"m 93 -242 q 36 -230 63 -242 q 0 -212 10 -218 l 25 -147 q 52 -162 35 -156 q 83 -168 69 -168 q 111 -159 101 -168 q 121 -133 121 -150 q 114 -117 121 -122 q 97 -111 107 -111 q 84 -114 89 -111 q 76 -119 79 -117 l 19 -89 l 63 0 l 140 0 l 104 -74 l 94 -68 q 117 -59 103 -64 q 150 -54 131 -54 q 215 -81 192 -54 q 238 -137 238 -107 q 200 -210 238 -179 q 93 -242 163 -242 z "},"̧":{"ha":0,"x_min":0,"x_max":238,"o":"m 93 -242 q 36 -230 63 -242 q 0 -212 10 -218 l 25 -147 q 52 -162 35 -156 q 83 -168 69 -168 q 111 -159 101 -168 q 121 -133 121 -150 q 114 -117 121 -122 q 97 -111 107 -111 q 84 -114 89 -111 q 76 -119 79 -117 l 19 -89 l 63 0 l 140 0 l 104 -74 l 94 -68 q 117 -59 103 -64 q 150 -54 131 -54 q 215 -81 192 -54 q 238 -137 238 -107 q 200 -210 238 -179 q 93 -242 163 -242 z "},"¢":{"ha":531,"x_min":42,"x_max":489,"o":"m 203 -93 l 203 68 q 117 93 153 74 q 61 157 81 113 q 42 282 42 201 l 42 621 q 61 703 42 671 q 117 754 81 736 q 203 776 153 772 l 203 903 l 336 903 l 336 771 q 415 745 381 764 q 469 696 450 726 q 489 621 489 665 l 489 463 l 300 463 l 300 633 q 294 654 300 647 q 280 665 288 661 q 265 668 272 668 q 252 665 260 668 q 238 654 244 661 q 232 633 232 647 l 232 210 q 238 188 232 196 q 252 177 244 181 q 265 174 260 174 q 280 177 272 174 q 294 188 288 181 q 300 210 300 196 l 300 371 l 489 371 l 489 283 q 469 169 489 213 q 415 103 449 125 q 336 74 381 82 l 336 -93 l 203 -93 z "},"ч":{"ha":546,"x_min":31,"x_max":511,"o":"m 310 0 l 310 207 q 265 133 303 158 q 183 107 228 107 q 89 127 122 107 q 43 188 56 147 q 31 289 31 229 l 31 688 l 247 688 l 247 290 q 253 261 247 271 q 271 251 260 251 q 283 252 276 251 q 294 256 290 253 l 294 688 l 511 688 l 511 0 l 310 0 z "},"ˆ":{"ha":419,"x_min":14,"x_max":406,"o":"m 14 757 l 151 918 l 267 918 l 406 757 l 281 757 l 211 829 l 142 757 l 14 757 z "},"̂":{"ha":0,"x_min":14,"x_max":406,"o":"m 14 757 l 151 918 l 267 918 l 406 757 l 281 757 l 211 829 l 142 757 l 14 757 z "},":":{"ha":353,"x_min":69,"x_max":283,"o":"m 175 360 q 101 390 132 360 q 69 461 69 419 q 101 534 69 504 q 175 564 132 564 q 251 534 219 564 q 283 461 283 504 q 251 390 283 419 q 175 360 219 360 m 175 -15 q 101 15 132 -15 q 69 86 69 44 q 101 159 69 129 q 175 189 132 189 q 251 159 219 189 q 283 86 283 129 q 251 15 283 44 q 175 -15 219 -15 z "},",":{"ha":353,"x_min":69,"x_max":283,"o":"m 71 -236 q 114 -135 97 -179 q 131 -58 131 -92 q 115 -8 131 -26 q 85 27 100 10 q 69 76 69 44 q 101 147 69 117 q 179 176 132 176 q 255 146 226 176 q 283 68 283 115 q 265 -31 283 25 q 220 -140 247 -86 q 164 -236 193 -194 l 71 -236 z "},"̦":{"ha":0,"x_min":0,"x_max":182,"o":"m 0 -293 q 36 -233 24 -260 q 49 -190 49 -207 q 37 -171 49 -179 q 14 -150 25 -162 q 3 -117 3 -137 q 27 -71 3 -92 q 90 -50 51 -50 q 156 -72 131 -50 q 182 -126 182 -93 q 167 -178 182 -147 q 130 -240 151 -210 q 86 -293 108 -271 l 0 -293 z "},"̒":{"ha":0,"x_min":0,"x_max":182,"o":"m 182 997 q 147 938 160 964 q 133 894 133 911 q 145 875 133 883 q 168 855 157 867 q 179 821 179 843 q 155 775 179 796 q 92 754 131 754 q 26 776 51 754 q 0 831 0 797 q 15 883 0 853 q 53 944 31 914 q 96 997 75 975 l 182 997 z "},"©":{"ha":833,"x_min":35,"x_max":814,"o":"m 425 42 q 274 72 344 42 q 149 156 203 101 q 65 281 94 210 q 35 432 35 351 q 65 583 35 513 q 149 708 94 654 q 274 791 203 761 q 425 821 344 821 q 576 791 506 821 q 701 708 647 761 q 784 583 754 654 q 814 432 814 513 q 784 281 814 351 q 701 156 754 210 q 576 72 647 101 q 425 42 506 42 m 425 119 q 545 144 489 119 q 644 211 601 168 q 710 311 686 254 q 733 432 733 368 q 692 588 733 518 q 581 700 650 658 q 425 742 511 742 q 305 717 361 742 q 206 651 249 693 q 140 552 164 608 q 115 432 115 496 q 140 311 115 368 q 206 211 164 254 q 305 144 249 168 q 425 119 361 119 m 425 204 q 340 215 376 204 q 283 260 303 225 q 264 367 264 294 l 264 551 q 306 656 264 628 q 425 683 347 683 q 546 657 504 683 q 588 561 588 631 l 588 488 l 442 488 l 442 571 q 437 592 442 586 q 425 599 432 599 q 414 592 418 599 q 410 571 410 586 l 410 317 q 414 294 410 300 q 425 288 418 288 q 437 294 432 288 q 442 317 442 300 l 442 411 l 588 411 l 588 368 q 568 260 588 294 q 512 215 549 225 q 425 204 475 204 z "},"¤":{"ha":786,"x_min":42,"x_max":744,"o":"m 140 71 l 44 167 l 197 321 q 178 367 185 343 q 172 419 172 392 q 196 517 172 472 l 42 671 l 138 767 l 294 611 q 393 633 340 633 q 489 613 446 633 l 646 771 l 742 675 l 588 519 q 614 419 614 475 q 589 321 614 365 l 744 168 l 649 72 l 490 229 q 442 213 467 218 q 393 207 418 207 q 296 228 340 207 l 140 71 m 393 346 q 443 367 422 346 q 464 418 464 388 q 443 471 464 450 q 393 492 422 492 q 343 471 364 492 q 322 418 322 450 q 343 367 322 388 q 393 346 364 346 z "},"d":{"ha":543,"x_min":28,"x_max":508,"o":"m 217 -10 q 144 -3 178 -10 q 83 24 110 3 q 42 90 57 44 q 28 214 28 135 l 28 543 q 44 624 28 594 q 83 669 60 654 q 131 690 107 685 q 174 694 156 694 q 254 676 229 694 q 292 639 279 658 l 292 875 l 508 875 l 508 0 l 363 0 l 340 65 q 321 38 335 56 q 282 5 307 19 q 217 -10 257 -10 m 268 111 q 278 113 274 111 q 285 120 282 115 q 290 133 289 125 q 292 153 292 140 l 292 563 q 288 564 292 563 q 280 566 285 565 q 268 567 275 567 q 258 565 263 567 q 251 558 254 563 q 246 545 247 553 q 244 525 244 538 l 244 153 q 247 128 244 138 q 256 115 250 118 q 268 111 261 111 z "},"†":{"ha":550,"x_min":42,"x_max":510,"o":"m 182 -167 l 182 419 l 42 419 l 42 533 l 182 533 l 182 813 l 369 813 l 369 533 l 510 533 l 510 419 l 369 419 l 369 -167 l 182 -167 z "},"‡":{"ha":560,"x_min":42,"x_max":518,"o":"m 186 -167 l 186 160 l 42 160 l 42 289 l 186 289 l 186 443 l 42 443 l 42 572 l 186 572 l 186 875 l 375 875 l 375 572 l 518 572 l 518 443 l 375 443 l 375 289 l 518 289 l 518 160 l 375 160 l 375 -167 l 186 -167 z "},"ď":{"ha":689,"x_min":28,"x_max":707,"o":"m 217 -10 q 144 -3 178 -10 q 83 24 110 3 q 42 90 57 44 q 28 214 28 135 l 28 543 q 44 624 28 594 q 83 669 60 654 q 131 690 107 685 q 174 694 156 694 q 254 676 229 694 q 292 639 279 658 l 292 875 l 508 875 l 508 0 l 363 0 l 340 65 q 321 38 335 56 q 282 5 307 19 q 217 -10 257 -10 m 268 111 q 278 113 274 111 q 285 120 282 115 q 290 133 289 125 q 292 153 292 140 l 292 563 q 288 564 292 563 q 280 566 285 565 q 268 567 275 567 q 258 565 263 567 q 251 558 254 563 q 246 545 247 553 q 244 525 244 538 l 244 153 q 247 128 244 138 q 256 115 250 118 q 268 111 261 111 m 540 663 l 579 886 l 707 886 l 614 663 l 540 663 z "},"đ":{"ha":543,"x_min":28,"x_max":542,"o":"m 197 732 l 197 808 l 542 808 l 542 732 l 197 732 m 217 -10 q 144 -3 178 -10 q 83 24 110 3 q 42 90 57 44 q 28 214 28 135 l 28 543 q 44 624 28 594 q 83 669 60 654 q 131 690 107 685 q 174 694 156 694 q 254 676 229 694 q 292 639 279 658 l 292 875 l 508 875 l 508 0 l 363 0 l 340 65 q 321 38 335 56 q 282 5 307 19 q 217 -10 257 -10 m 268 111 q 278 113 274 111 q 285 120 282 115 q 290 133 289 125 q 292 153 292 140 l 292 563 q 288 564 292 563 q 280 566 285 565 q 268 567 275 567 q 258 565 263 567 q 251 558 254 563 q 246 545 247 553 q 244 525 244 538 l 244 153 q 247 128 244 138 q 256 115 250 118 q 268 111 261 111 z "},"д":{"ha":792,"x_min":21,"x_max":771,"o":"m 21 -165 l 21 125 l 60 125 q 96 142 74 128 q 138 188 118 157 q 163 271 157 219 l 213 688 l 661 688 l 661 125 l 771 125 l 771 -165 l 592 -165 l 592 -44 l 200 -44 l 200 -165 l 21 -165 m 331 125 l 431 125 l 431 533 l 410 533 l 374 269 q 359 181 368 225 q 331 125 350 136 z "},"°":{"ha":463,"x_min":42,"x_max":421,"o":"m 231 451 q 88 506 133 451 q 42 635 42 560 q 85 767 42 713 q 233 821 128 821 q 345 796 304 821 q 403 729 386 771 q 421 638 421 688 q 374 503 421 556 q 231 451 328 451 m 232 546 q 290 572 268 546 q 313 636 313 597 q 292 700 313 672 q 231 728 271 728 q 172 700 194 728 q 150 635 150 672 q 173 572 150 597 q 232 546 196 546 z "},"¨":{"ha":385,"x_min":0,"x_max":357,"o":"m 83 754 q 24 777 47 754 q 0 833 0 800 q 24 889 0 867 q 83 911 47 911 q 141 889 118 911 q 164 833 164 867 q 141 777 164 800 q 83 754 118 754 m 276 754 q 217 777 240 754 q 193 833 193 800 q 217 889 193 867 q 276 911 240 911 q 334 889 311 911 q 357 833 357 867 q 334 777 357 800 q 276 754 311 754 z "},"̈":{"ha":0,"x_min":0,"x_max":357,"o":"m 83 754 q 24 777 47 754 q 0 833 0 800 q 24 889 0 867 q 83 911 47 911 q 141 889 118 911 q 164 833 164 867 q 141 777 164 800 q 83 754 118 754 m 276 754 q 217 777 240 754 q 193 833 193 800 q 217 889 193 867 q 276 911 240 911 q 334 889 311 911 q 357 833 357 867 q 334 777 357 800 q 276 754 311 754 z "},"÷":{"ha":560,"x_min":56,"x_max":504,"o":"m 56 325 l 56 468 l 504 468 l 504 325 l 56 325 m 279 78 q 210 104 238 78 q 182 169 182 131 q 210 238 182 210 q 279 265 238 265 q 349 238 321 265 q 378 169 378 210 q 349 104 378 131 q 279 78 321 78 m 278 531 q 209 558 238 531 q 181 624 181 585 q 209 691 181 664 q 278 718 238 718 q 348 691 319 718 q 376 624 376 664 q 348 558 376 585 q 278 531 319 531 z "},"∕":{"ha":653,"x_min":22,"x_max":644,"o":"m 22 -214 l 496 1000 l 644 1000 l 169 -214 l 22 -214 z "},"ђ":{"ha":622,"x_min":6,"x_max":594,"o":"m 444 -126 q 382 -121 407 -126 q 342 -110 357 -115 l 344 -12 q 350 -15 347 -14 q 357 -15 353 -15 q 372 -6 367 -15 q 378 26 378 3 l 378 390 q 372 423 378 414 q 354 432 365 432 q 348 431 351 432 q 342 428 344 431 q 336 424 339 426 q 331 418 333 422 l 331 0 l 110 0 l 110 660 l 6 660 l 6 772 l 110 772 l 110 875 l 331 875 l 331 772 l 449 772 l 449 660 l 331 660 l 331 507 q 367 546 343 528 q 440 564 392 564 q 510 553 475 564 q 570 510 546 543 q 594 408 594 478 l 594 88 q 584 -15 594 26 q 555 -81 574 -56 q 508 -116 536 -106 q 444 -126 481 -126 z "},"$":{"ha":501,"x_min":31,"x_max":500,"o":"m 210 -82 l 210 65 q 100 99 139 72 q 46 171 61 125 q 31 282 31 217 l 31 329 l 236 329 l 236 233 q 238 202 236 215 q 244 183 239 189 q 258 176 249 176 q 272 181 268 176 q 278 195 276 186 q 281 214 281 204 l 281 278 q 267 329 281 313 q 228 356 253 346 q 172 381 204 367 q 114 412 143 393 q 66 463 85 431 q 47 547 47 496 l 47 586 q 83 719 47 671 q 210 779 118 767 l 210 894 l 325 894 l 325 782 q 465 720 429 772 q 500 572 500 668 l 500 528 l 303 528 l 303 615 q 299 656 303 643 q 279 669 294 669 q 261 659 265 669 q 257 633 257 649 l 257 568 q 276 519 257 536 q 323 494 296 503 q 375 476 350 486 q 434 447 406 465 q 481 397 463 428 q 500 318 500 367 l 500 268 q 484 166 500 208 q 430 99 468 124 q 325 65 392 74 l 325 -82 l 210 -82 z "},"˙":{"ha":192,"x_min":0,"x_max":215,"o":"m 106 754 q 32 784 63 754 q 0 857 1 814 q 32 928 0 899 q 107 958 64 958 q 183 928 151 958 q 214 856 214 899 q 183 784 215 814 q 106 754 150 754 z "},"̇":{"ha":0,"x_min":0,"x_max":215,"o":"m 106 754 q 32 784 63 754 q 0 857 1 814 q 32 928 0 899 q 107 958 64 958 q 183 928 151 958 q 214 856 214 899 q 183 784 215 814 q 106 754 150 754 z "},"̣":{"ha":0,"x_min":14,"x_max":181,"o":"m 96 -204 q 38 -181 61 -204 q 14 -125 14 -157 q 38 -68 14 -92 q 96 -44 61 -44 q 156 -68 131 -44 q 181 -125 181 -92 q 156 -181 181 -157 q 96 -204 131 -204 z "},"↓":{"ha":754,"x_min":42,"x_max":713,"o":"m 379 -1 l 42 431 l 146 535 l 289 374 l 296 1025 l 467 1024 l 464 378 l 608 533 l 713 429 l 379 -1 z "},"ѕ":{"ha":536,"x_min":19,"x_max":517,"o":"m 264 -19 q 144 -6 192 -19 q 69 35 96 8 q 31 104 42 63 q 19 200 19 146 l 19 247 l 238 247 l 238 151 q 239 120 238 133 q 246 101 240 107 q 261 94 251 94 q 276 99 271 94 q 283 113 281 104 q 285 132 285 122 l 285 196 q 270 248 285 231 q 229 275 256 265 q 169 299 203 285 q 108 330 139 311 q 58 381 78 349 q 38 465 38 414 l 38 504 q 90 652 38 603 q 282 701 142 701 q 427 678 376 701 q 497 608 478 654 q 517 490 517 561 l 517 446 l 307 446 l 307 533 q 303 574 307 561 q 283 588 299 588 q 265 577 269 588 q 260 551 260 567 l 260 486 q 280 438 260 454 q 329 413 300 421 q 383 394 358 404 q 447 365 417 383 q 497 315 478 346 q 517 236 517 285 l 517 186 q 494 72 517 118 q 416 3 471 26 q 264 -19 361 -19 z "},"џ":{"ha":550,"x_min":35,"x_max":515,"o":"m 196 -137 l 196 0 l 35 0 l 35 688 l 251 688 l 251 154 l 299 154 l 299 688 l 515 688 l 515 0 l 351 0 l 351 -137 l 196 -137 z "},"e":{"ha":529,"x_min":28,"x_max":508,"o":"m 268 -11 q 140 5 194 -11 q 57 74 86 21 q 28 236 28 126 l 28 518 q 90 660 28 621 q 268 699 153 699 q 446 660 383 699 q 508 518 508 621 l 508 324 l 244 324 l 244 142 q 251 109 244 118 q 268 100 258 100 q 285 109 279 100 q 292 142 292 118 l 292 267 l 508 267 l 508 238 q 479 74 508 126 q 396 5 450 21 q 268 -11 342 -11 m 244 417 l 292 417 l 292 546 q 285 578 292 569 q 268 588 279 588 q 251 578 258 588 q 244 546 244 569 l 244 417 z "},"é":{"ha":529,"x_min":28,"x_max":508,"o":"m 268 -11 q 140 5 194 -11 q 57 74 86 21 q 28 236 28 126 l 28 518 q 90 660 28 621 q 268 699 153 699 q 446 660 383 699 q 508 518 508 621 l 508 324 l 244 324 l 244 142 q 251 109 244 118 q 268 100 258 100 q 285 109 279 100 q 292 142 292 118 l 292 267 l 508 267 l 508 238 q 479 74 508 126 q 396 5 450 21 q 268 -11 342 -11 m 244 417 l 292 417 l 292 546 q 285 578 292 569 q 268 588 279 588 q 251 578 258 588 q 244 546 244 569 l 244 417 m 182 764 l 263 911 l 465 911 l 318 764 l 182 764 z "},"ě":{"ha":529,"x_min":28,"x_max":508,"o":"m 268 -11 q 140 5 194 -11 q 57 74 86 21 q 28 236 28 126 l 28 518 q 90 660 28 621 q 268 699 153 699 q 446 660 383 699 q 508 518 508 621 l 508 324 l 244 324 l 244 142 q 251 109 244 118 q 268 100 258 100 q 285 109 279 100 q 292 142 292 118 l 292 267 l 508 267 l 508 238 q 479 74 508 126 q 396 5 450 21 q 268 -11 342 -11 m 244 417 l 292 417 l 292 546 q 285 578 292 569 q 268 588 279 588 q 251 578 258 588 q 244 546 244 569 l 244 417 m 207 757 l 69 918 l 197 918 l 267 846 l 336 918 l 461 918 l 322 757 l 207 757 z "},"ê":{"ha":529,"x_min":28,"x_max":508,"o":"m 268 -11 q 140 5 194 -11 q 57 74 86 21 q 28 236 28 126 l 28 518 q 90 660 28 621 q 268 699 153 699 q 446 660 383 699 q 508 518 508 621 l 508 324 l 244 324 l 244 142 q 251 109 244 118 q 268 100 258 100 q 285 109 279 100 q 292 142 292 118 l 292 267 l 508 267 l 508 238 q 479 74 508 126 q 396 5 450 21 q 268 -11 342 -11 m 244 417 l 292 417 l 292 546 q 285 578 292 569 q 268 588 279 588 q 251 578 258 588 q 244 546 244 569 l 244 417 m 69 757 l 207 918 l 322 918 l 461 757 l 336 757 l 267 829 l 197 757 l 69 757 z "},"ế":{"ha":529,"x_min":28,"x_max":733,"o":"m 268 -11 q 140 5 194 -11 q 57 74 86 21 q 28 236 28 126 l 28 518 q 90 660 28 621 q 268 699 153 699 q 446 660 383 699 q 508 518 508 621 l 508 324 l 244 324 l 244 142 q 251 109 244 118 q 268 100 258 100 q 285 109 279 100 q 292 142 292 118 l 292 267 l 508 267 l 508 238 q 479 74 508 126 q 396 5 450 21 q 268 -11 342 -11 m 244 417 l 292 417 l 292 546 q 285 578 292 569 q 268 588 279 588 q 251 578 258 588 q 244 546 244 569 l 244 417 m 69 757 l 207 918 l 322 918 l 461 757 l 336 757 l 267 829 l 197 757 l 69 757 m 450 840 l 531 988 l 733 988 l 586 840 l 450 840 z "},"ệ":{"ha":529,"x_min":28,"x_max":508,"o":"m 268 -11 q 140 5 194 -11 q 57 74 86 21 q 28 236 28 126 l 28 518 q 90 660 28 621 q 268 699 153 699 q 446 660 383 699 q 508 518 508 621 l 508 324 l 244 324 l 244 142 q 251 109 244 118 q 268 100 258 100 q 285 109 279 100 q 292 142 292 118 l 292 267 l 508 267 l 508 238 q 479 74 508 126 q 396 5 450 21 q 268 -11 342 -11 m 244 417 l 292 417 l 292 546 q 285 578 292 569 q 268 588 279 588 q 251 578 258 588 q 244 546 244 569 l 244 417 m 264 -204 q 206 -181 229 -204 q 182 -125 182 -157 q 206 -68 182 -92 q 264 -44 229 -44 q 324 -68 299 -44 q 349 -125 349 -92 q 324 -181 349 -157 q 264 -204 299 -204 m 69 757 l 207 918 l 322 918 l 461 757 l 336 757 l 267 829 l 197 757 l 69 757 z "},"ề":{"ha":529,"x_min":28,"x_max":628,"o":"m 268 -11 q 140 5 194 -11 q 57 74 86 21 q 28 236 28 126 l 28 518 q 90 660 28 621 q 268 699 153 699 q 446 660 383 699 q 508 518 508 621 l 508 324 l 244 324 l 244 142 q 251 109 244 118 q 268 100 258 100 q 285 109 279 100 q 292 142 292 118 l 292 267 l 508 267 l 508 238 q 479 74 508 126 q 396 5 450 21 q 268 -11 342 -11 m 244 417 l 292 417 l 292 546 q 285 578 292 569 q 268 588 279 588 q 251 578 258 588 q 244 546 244 569 l 244 417 m 69 757 l 207 918 l 322 918 l 461 757 l 336 757 l 267 829 l 197 757 l 69 757 m 492 840 l 344 988 l 547 988 l 628 840 l 492 840 z "},"ể":{"ha":529,"x_min":28,"x_max":650,"o":"m 268 -11 q 140 5 194 -11 q 57 74 86 21 q 28 236 28 126 l 28 518 q 90 660 28 621 q 268 699 153 699 q 446 660 383 699 q 508 518 508 621 l 508 324 l 244 324 l 244 142 q 251 109 244 118 q 268 100 258 100 q 285 109 279 100 q 292 142 292 118 l 292 267 l 508 267 l 508 238 q 479 74 508 126 q 396 5 450 21 q 268 -11 342 -11 m 244 417 l 292 417 l 292 546 q 285 578 292 569 q 268 588 279 588 q 251 578 258 588 q 244 546 244 569 l 244 417 m 69 757 l 207 918 l 322 918 l 461 757 l 336 757 l 267 829 l 197 757 l 69 757 m 474 840 l 474 853 q 488 885 474 874 q 515 905 501 896 q 529 929 529 914 l 529 939 q 526 956 529 947 q 514 965 524 965 q 499 938 499 965 l 406 951 q 438 1018 408 996 q 524 1040 467 1040 q 618 1024 586 1040 q 650 943 650 1008 l 650 938 q 634 894 650 906 q 603 876 618 882 q 588 853 588 869 l 588 840 l 474 840 z "},"ễ":{"ha":529,"x_min":28,"x_max":508,"o":"m 268 -11 q 140 5 194 -11 q 57 74 86 21 q 28 236 28 126 l 28 518 q 90 660 28 621 q 268 699 153 699 q 446 660 383 699 q 508 518 508 621 l 508 324 l 244 324 l 244 142 q 251 109 244 118 q 268 100 258 100 q 285 109 279 100 q 292 142 292 118 l 292 267 l 508 267 l 508 238 q 479 74 508 126 q 396 5 450 21 q 268 -11 342 -11 m 244 417 l 292 417 l 292 546 q 285 578 292 569 q 268 588 279 588 q 251 578 258 588 q 244 546 244 569 l 244 417 m 69 757 l 207 918 l 322 918 l 461 757 l 336 757 l 267 829 l 197 757 l 69 757 m 335 953 q 290 963 311 953 q 250 982 269 972 q 217 998 233 992 q 185 1004 201 1004 q 157 990 167 1004 q 146 954 147 975 l 89 954 q 116 1060 89 1019 q 188 1100 143 1100 q 233 1092 213 1100 q 272 1075 254 1085 q 305 1060 289 1067 q 336 1053 321 1053 q 367 1066 358 1053 q 379 1096 376 1079 l 443 1096 q 426 1017 443 1049 q 383 969 408 985 q 335 953 358 953 z "},"ë":{"ha":529,"x_min":28,"x_max":508,"o":"m 268 -11 q 140 5 194 -11 q 57 74 86 21 q 28 236 28 126 l 28 518 q 90 660 28 621 q 268 699 153 699 q 446 660 383 699 q 508 518 508 621 l 508 324 l 244 324 l 244 142 q 251 109 244 118 q 268 100 258 100 q 285 109 279 100 q 292 142 292 118 l 292 267 l 508 267 l 508 238 q 479 74 508 126 q 396 5 450 21 q 268 -11 342 -11 m 244 417 l 292 417 l 292 546 q 285 578 292 569 q 268 588 279 588 q 251 578 258 588 q 244 546 244 569 l 244 417 m 169 754 q 110 777 133 754 q 86 833 86 800 q 110 889 86 867 q 169 911 133 911 q 227 889 204 911 q 250 833 250 867 q 227 777 250 800 q 169 754 204 754 m 363 754 q 303 777 326 754 q 279 833 279 800 q 303 889 279 867 q 363 911 326 911 q 420 889 397 911 q 443 833 443 867 q 420 777 443 800 q 363 754 397 754 z "},"ė":{"ha":529,"x_min":28,"x_max":508,"o":"m 268 -11 q 140 5 194 -11 q 57 74 86 21 q 28 236 28 126 l 28 518 q 90 660 28 621 q 268 699 153 699 q 446 660 383 699 q 508 518 508 621 l 508 324 l 244 324 l 244 142 q 251 109 244 118 q 268 100 258 100 q 285 109 279 100 q 292 142 292 118 l 292 267 l 508 267 l 508 238 q 479 74 508 126 q 396 5 450 21 q 268 -11 342 -11 m 244 417 l 292 417 l 292 546 q 285 578 292 569 q 268 588 279 588 q 251 578 258 588 q 244 546 244 569 l 244 417 m 264 754 q 190 784 221 754 q 158 857 160 814 q 190 928 158 899 q 265 958 222 958 q 341 928 310 958 q 372 856 372 899 q 341 784 374 814 q 264 754 308 754 z "},"ẹ":{"ha":529,"x_min":28,"x_max":508,"o":"m 268 -11 q 140 5 194 -11 q 57 74 86 21 q 28 236 28 126 l 28 518 q 90 660 28 621 q 268 699 153 699 q 446 660 383 699 q 508 518 508 621 l 508 324 l 244 324 l 244 142 q 251 109 244 118 q 268 100 258 100 q 285 109 279 100 q 292 142 292 118 l 292 267 l 508 267 l 508 238 q 479 74 508 126 q 396 5 450 21 q 268 -11 342 -11 m 244 417 l 292 417 l 292 546 q 285 578 292 569 q 268 588 279 588 q 251 578 258 588 q 244 546 244 569 l 244 417 m 264 -204 q 206 -181 229 -204 q 182 -125 182 -157 q 206 -68 182 -92 q 264 -44 229 -44 q 324 -68 299 -44 q 349 -125 349 -92 q 324 -181 349 -157 q 264 -204 299 -204 z "},"ф":{"ha":822,"x_min":28,"x_max":794,"o":"m 306 -160 l 306 -10 q 260 -10 283 -10 q 213 -10 236 -10 q 65 42 103 -10 q 28 189 28 94 l 28 461 q 43 561 28 519 q 99 625 58 603 q 215 647 139 647 q 270 645 244 647 q 306 640 296 643 l 306 821 l 521 821 l 521 640 q 555 645 528 643 q 606 647 582 647 q 723 625 682 647 q 779 561 764 603 q 794 461 794 519 l 794 189 q 756 42 794 94 q 610 -10 718 -10 q 565 -10 588 -10 q 521 -10 543 -10 l 521 -160 l 306 -160 m 268 101 q 284 103 275 101 q 300 113 293 106 q 307 131 307 119 l 307 474 q 303 515 307 501 q 290 532 299 528 q 269 536 282 536 q 253 531 258 536 q 247 510 249 526 q 246 461 246 494 l 246 143 q 249 117 246 126 q 257 105 251 108 q 268 101 263 101 m 560 101 q 572 105 567 101 q 579 118 576 108 q 582 143 582 128 l 582 461 q 581 508 582 492 q 576 531 581 524 q 560 538 571 538 q 540 533 549 538 q 526 515 531 528 q 521 474 521 501 l 521 143 q 527 118 521 128 q 542 105 533 108 q 560 101 551 101 z "},"è":{"ha":529,"x_min":28,"x_max":508,"o":"m 268 -11 q 140 5 194 -11 q 57 74 86 21 q 28 236 28 126 l 28 518 q 90 660 28 621 q 268 699 153 699 q 446 660 383 699 q 508 518 508 621 l 508 324 l 244 324 l 244 142 q 251 109 244 118 q 268 100 258 100 q 285 109 279 100 q 292 142 292 118 l 292 267 l 508 267 l 508 238 q 479 74 508 126 q 396 5 450 21 q 268 -11 342 -11 m 244 417 l 292 417 l 292 546 q 285 578 292 569 q 268 588 279 588 q 251 578 258 588 q 244 546 244 569 l 244 417 m 224 764 l 76 911 l 279 911 l 360 764 l 224 764 z "},"ẻ":{"ha":529,"x_min":28,"x_max":508,"o":"m 268 -11 q 140 5 194 -11 q 57 74 86 21 q 28 236 28 126 l 28 518 q 90 660 28 621 q 268 699 153 699 q 446 660 383 699 q 508 518 508 621 l 508 324 l 244 324 l 244 142 q 251 109 244 118 q 268 100 258 100 q 285 109 279 100 q 292 142 292 118 l 292 267 l 508 267 l 508 238 q 479 74 508 126 q 396 5 450 21 q 268 -11 342 -11 m 244 417 l 292 417 l 292 546 q 285 578 292 569 q 268 588 279 588 q 251 578 258 588 q 244 546 244 569 l 244 417 m 206 764 l 206 776 q 219 808 206 797 q 247 828 233 819 q 261 853 261 838 l 261 863 q 258 880 261 871 q 246 889 256 889 q 231 861 231 889 l 138 875 q 169 942 140 919 q 256 964 199 964 q 350 948 318 964 q 382 867 382 932 l 382 861 q 366 817 382 829 q 335 799 350 806 q 319 776 319 793 l 319 764 l 206 764 z "},"л":{"ha":654,"x_min":14,"x_max":619,"o":"m 14 0 l 14 110 q 64 144 39 110 q 92 217 89 178 l 133 688 l 619 688 l 619 0 l 399 0 l 399 536 l 353 536 l 313 161 q 307 108 310 136 q 291 55 304 79 q 247 15 278 31 q 158 0 217 0 l 14 0 z "},"…":{"ha":922,"x_min":69,"x_max":853,"o":"m 175 -15 q 101 15 132 -15 q 69 86 69 44 q 101 159 69 129 q 175 189 132 189 q 251 159 219 189 q 283 86 283 129 q 251 15 283 44 q 175 -15 219 -15 m 457 -15 q 383 15 414 -15 q 351 86 351 44 q 383 159 351 129 q 457 189 414 189 q 533 159 501 189 q 565 86 565 129 q 533 15 565 44 q 457 -15 501 -15 m 744 -15 q 670 15 701 -15 q 639 86 639 44 q 670 159 639 129 q 744 189 701 189 q 821 159 789 189 q 853 86 853 129 q 821 15 853 44 q 744 -15 789 -15 z "},"м":{"ha":731,"x_min":35,"x_max":696,"o":"m 35 0 l 35 688 l 307 688 l 365 268 l 424 688 l 696 688 l 696 0 l 522 0 l 522 439 l 438 0 l 294 0 l 208 439 l 208 0 l 35 0 z "},"ē":{"ha":529,"x_min":28,"x_max":508,"o":"m 268 -11 q 140 5 194 -11 q 57 74 86 21 q 28 236 28 126 l 28 518 q 90 660 28 621 q 268 699 153 699 q 446 660 383 699 q 508 518 508 621 l 508 324 l 244 324 l 244 142 q 251 109 244 118 q 268 100 258 100 q 285 109 279 100 q 292 142 292 118 l 292 267 l 508 267 l 508 238 q 479 74 508 126 q 396 5 450 21 q 268 -11 342 -11 m 244 417 l 292 417 l 292 546 q 285 578 292 569 q 268 588 279 588 q 251 578 258 588 q 244 546 244 569 l 244 417 m 111 772 l 111 879 l 419 879 l 419 772 l 111 772 z "},"—":{"ha":968,"x_min":42,"x_max":926,"o":"m 42 332 l 42 475 l 926 475 l 926 332 l 42 332 z "},"∅":{"ha":576,"x_min":21,"x_max":556,"o":"m 21 69 l 524 789 l 556 789 l 51 69 l 21 69 m 290 -18 q 160 11 215 -17 q 75 102 106 39 q 44 275 44 165 l 44 590 q 112 772 44 714 q 293 831 179 831 q 467 772 401 831 q 533 590 533 714 l 533 276 q 503 101 533 165 q 419 9 474 36 q 290 -18 364 -18 m 289 110 q 307 119 300 110 q 314 153 314 129 l 314 657 q 307 690 314 681 q 289 699 300 699 q 272 690 279 699 q 265 657 265 681 l 265 153 q 272 119 265 129 q 289 110 279 110 z "},"н":{"ha":550,"x_min":35,"x_max":515,"o":"m 35 0 l 35 688 l 251 688 l 251 435 l 301 435 l 301 688 l 515 688 l 515 0 l 301 0 l 301 272 l 251 272 l 251 0 l 35 0 z "},"–":{"ha":664,"x_min":42,"x_max":622,"o":"m 42 332 l 42 475 l 622 475 l 622 332 l 42 332 z "},"ŋ":{"ha":550,"x_min":35,"x_max":515,"o":"m 269 -161 q 228 -158 249 -161 q 188 -151 208 -156 l 188 -44 q 201 -44 189 -44 q 225 -44 213 -44 q 238 -44 238 -44 q 284 -29 269 -44 q 299 8 299 -14 l 299 507 q 296 529 299 521 q 288 542 293 538 q 275 546 283 546 q 267 546 272 546 q 258 545 263 546 q 251 542 254 544 l 251 0 l 35 0 l 35 688 l 219 688 l 236 597 q 283 669 249 640 q 363 697 318 697 q 457 677 424 697 q 503 617 490 657 q 515 515 515 576 l 515 92 q 481 -63 515 -7 q 390 -141 446 -119 q 269 -161 335 -162 z "},"ę":{"ha":529,"x_min":28,"x_max":508,"o":"m 268 -11 q 140 5 194 -11 q 57 74 86 21 q 28 236 28 126 l 28 518 q 90 660 28 621 q 268 699 153 699 q 446 660 383 699 q 508 518 508 621 l 508 324 l 244 324 l 244 142 q 251 109 244 118 q 268 100 258 100 q 285 109 279 100 q 292 142 292 118 l 292 267 l 508 267 l 508 238 q 479 74 508 126 q 396 5 450 21 q 268 -11 342 -11 m 244 417 l 292 417 l 292 546 q 285 578 292 569 q 268 588 279 588 q 251 578 258 588 q 244 546 244 569 l 244 417 m 289 -210 q 194 -180 229 -210 q 160 -115 160 -150 q 194 -40 160 -76 q 285 3 228 -3 l 367 0 q 313 -35 329 -10 q 296 -85 296 -61 q 313 -124 296 -110 q 347 -137 331 -137 q 363 -135 357 -137 q 372 -133 369 -133 l 396 -185 q 365 -199 389 -189 q 289 -210 342 -210 z "},"=":{"ha":643,"x_min":69,"x_max":574,"o":"m 69 439 l 69 582 l 574 582 l 574 439 l 69 439 m 69 165 l 69 308 l 574 308 l 574 165 l 69 165 z "},"р":{"ha":543,"x_min":35,"x_max":515,"o":"m 35 -161 l 35 688 l 251 688 l 251 639 q 287 678 264 658 q 361 699 310 699 q 431 688 396 699 q 491 644 467 678 q 515 543 515 611 l 515 214 q 494 74 515 122 q 439 9 474 26 q 363 -8 404 -8 q 290 10 315 -8 q 251 50 265 28 l 251 -161 l 35 -161 m 275 111 q 285 113 281 111 q 292 120 289 115 q 297 133 296 125 q 299 153 299 140 l 299 525 q 297 545 299 538 q 292 558 296 553 q 285 565 289 563 q 275 567 281 567 q 267 566 271 567 q 259 565 263 565 q 253 563 256 564 q 251 563 251 563 l 251 153 q 254 128 251 138 q 263 115 257 118 q 275 111 268 111 z "},"э":{"ha":550,"x_min":35,"x_max":515,"o":"m 275 -17 q 147 -1 201 -17 q 64 68 93 15 q 35 232 35 121 l 35 243 l 251 243 l 251 136 q 254 111 251 121 q 263 98 257 101 q 275 94 268 94 q 288 98 283 94 q 296 111 293 101 q 299 136 299 121 l 299 294 l 108 294 l 108 432 l 299 432 l 299 546 q 296 572 299 563 q 288 584 293 581 q 275 588 283 588 q 263 584 268 588 q 254 572 257 581 q 251 546 251 563 l 251 486 l 35 486 l 35 518 q 63 626 35 588 q 144 682 90 665 q 275 699 199 699 q 378 690 333 699 q 453 660 422 681 q 499 604 483 639 q 515 518 515 569 l 515 231 q 499 98 515 147 q 451 24 482 49 q 375 -8 419 0 q 275 -17 331 -17 z "},"с":{"ha":529,"x_min":28,"x_max":508,"o":"m 268 -11 q 140 4 194 -11 q 57 72 86 19 q 28 231 28 124 l 28 504 q 90 657 28 615 q 268 699 153 699 q 446 660 383 699 q 508 518 508 621 l 508 408 l 292 408 l 292 532 q 285 565 292 556 q 268 574 279 574 q 251 565 258 574 q 244 532 244 556 l 244 156 q 251 123 244 132 q 268 114 258 114 q 285 123 279 114 q 292 156 292 132 l 292 296 l 508 296 l 508 232 q 479 72 508 124 q 396 4 450 19 q 268 -11 342 -11 z "},"ð":{"ha":536,"x_min":28,"x_max":508,"o":"m 268 -11 q 168 -3 213 -11 q 92 30 124 6 q 44 103 61 54 q 28 236 28 153 l 28 485 q 55 593 28 554 q 131 649 82 632 q 244 665 179 665 q 267 665 256 665 q 289 665 278 665 q 280 721 289 694 q 251 764 271 747 q 199 781 232 781 q 143 778 169 781 q 78 768 117 775 l 78 904 q 142 915 106 911 q 239 919 179 919 q 376 899 324 919 q 458 829 429 878 q 497 699 486 781 q 508 497 508 618 l 508 238 q 492 104 508 154 q 444 30 475 54 q 368 -3 413 6 q 268 -11 324 -11 m 268 100 q 281 103 276 100 q 289 117 286 107 q 292 142 292 126 l 292 513 q 289 538 292 529 q 281 551 286 547 q 268 554 276 554 q 256 551 261 554 q 247 538 250 547 q 244 513 244 529 l 244 142 q 246 122 244 129 q 251 109 247 114 q 258 102 254 104 q 268 100 263 100 m 185 676 l 139 733 l 418 960 l 467 904 l 185 676 z "},"ẽ":{"ha":529,"x_min":28,"x_max":508,"o":"m 268 -11 q 140 5 194 -11 q 57 74 86 21 q 28 236 28 126 l 28 518 q 90 660 28 621 q 268 699 153 699 q 446 660 383 699 q 508 518 508 621 l 508 324 l 244 324 l 244 142 q 251 109 244 118 q 268 100 258 100 q 285 109 279 100 q 292 142 292 118 l 292 267 l 508 267 l 508 238 q 479 74 508 126 q 396 5 450 21 q 268 -11 342 -11 m 244 417 l 292 417 l 292 546 q 285 578 292 569 q 268 588 279 588 q 251 578 258 588 q 244 546 244 569 l 244 417 m 333 761 q 289 771 310 761 q 249 790 268 781 q 216 806 232 800 q 183 813 200 813 q 156 798 165 813 q 144 763 146 783 l 88 763 q 115 868 88 828 q 186 908 142 908 q 232 901 211 908 q 271 883 253 893 q 303 868 288 875 q 335 861 319 861 q 366 874 357 861 q 378 904 375 888 l 442 904 q 424 825 442 857 q 382 777 407 793 q 333 761 357 761 z "},"€":{"ha":667,"x_min":28,"x_max":625,"o":"m 381 -17 q 251 1 307 -17 q 166 75 196 19 q 136 240 136 131 l 136 314 l 29 314 l 64 389 l 136 389 l 136 428 l 28 428 l 63 503 l 136 503 l 136 643 q 166 753 136 713 q 251 813 196 794 q 381 831 307 831 q 510 813 456 831 q 595 753 565 794 q 625 643 625 713 l 625 592 l 404 592 l 404 657 q 401 683 404 674 q 394 695 399 692 q 381 699 389 699 q 368 695 374 699 q 360 683 363 692 q 357 657 357 674 l 357 503 l 544 503 l 508 428 l 357 428 l 357 389 l 490 389 l 456 314 l 357 314 l 357 153 q 360 128 357 138 q 368 115 363 118 q 381 111 374 111 q 394 115 389 111 q 401 128 399 118 q 404 153 404 138 l 404 254 l 625 254 l 625 242 q 595 75 625 131 q 510 1 565 19 q 381 -17 456 -17 z "},"!":{"ha":351,"x_min":56,"x_max":296,"o":"m 104 261 l 67 524 l 56 875 l 292 875 l 281 528 l 243 261 l 104 261 m 181 -11 q 99 19 132 -11 q 65 94 65 50 q 99 169 65 138 q 181 200 132 200 q 263 169 229 200 q 296 94 296 138 q 263 19 296 50 q 181 -11 229 -11 z "},"¡":{"ha":351,"x_min":56,"x_max":296,"o":"m 104 415 l 243 415 l 281 149 l 292 -199 l 56 -199 l 67 153 l 104 415 m 181 688 q 263 657 229 688 q 296 582 296 626 q 263 508 296 539 q 181 476 229 476 q 99 508 132 476 q 65 582 65 539 q 99 657 65 626 q 181 688 132 688 z "},"f":{"ha":400,"x_min":14,"x_max":386,"o":"m 58 0 l 58 540 l 14 540 l 14 661 l 58 661 l 58 711 q 74 803 58 769 q 116 851 90 836 q 172 871 142 867 q 231 875 201 875 q 296 873 263 875 q 355 869 329 871 q 386 867 381 867 l 386 769 q 363 772 386 769 q 313 774 340 774 q 283 753 290 774 q 275 713 275 733 l 275 661 l 386 661 l 386 540 l 275 540 l 275 0 l 58 0 z "},"ﬁ":{"ha":686,"x_min":14,"x_max":651,"o":"m 58 0 l 58 540 l 14 540 l 14 661 l 58 661 l 58 711 q 74 803 58 769 q 116 851 90 836 q 172 871 142 867 q 231 875 201 875 q 296 873 263 875 q 355 869 329 871 q 386 867 381 867 l 386 769 q 363 772 386 769 q 313 774 340 774 q 283 753 290 774 q 275 713 275 733 l 275 661 l 386 661 l 386 540 l 275 540 l 275 0 l 58 0 m 435 0 l 435 688 l 651 688 l 651 0 l 435 0 m 542 754 q 468 784 499 754 q 436 857 438 814 q 468 928 436 899 q 543 958 500 958 q 619 928 588 958 q 650 856 650 899 q 619 784 651 814 q 542 754 586 754 z "},"ﬂ":{"ha":686,"x_min":14,"x_max":651,"o":"m 58 0 l 58 540 l 14 540 l 14 661 l 58 661 l 58 711 q 74 803 58 769 q 116 851 90 836 q 172 871 142 867 q 231 875 201 875 q 296 873 263 875 q 355 869 329 871 q 386 867 381 867 l 386 769 q 363 772 386 769 q 313 774 340 774 q 283 753 290 774 q 275 713 275 733 l 275 661 l 386 661 l 386 540 l 275 540 l 275 0 l 58 0 m 435 0 l 435 875 l 651 875 l 651 0 l 435 0 z "},"ƒ":{"ha":550,"x_min":-110,"x_max":536,"o":"m 19 -197 q -26 -196 1 -197 q -78 -193 -54 -194 q -110 -190 -101 -192 l -96 -65 l -28 -75 q 33 -69 11 -76 q 67 -28 56 -61 q 86 76 79 4 l 138 518 l 47 518 l 60 633 l 150 633 l 163 706 q 226 838 179 801 q 326 874 274 874 q 370 873 340 874 q 433 872 400 872 q 495 869 467 871 q 536 867 524 868 l 522 742 q 482 750 513 744 q 418 756 451 756 q 378 730 386 756 q 367 671 371 704 l 363 633 l 497 633 l 485 518 l 350 518 l 292 10 q 210 -148 279 -99 q 19 -197 142 -197 z "},"⁴":{"ha":382,"x_min":14,"x_max":364,"o":"m 179 328 l 179 422 l 14 422 l 14 531 l 174 821 l 310 821 l 310 511 l 364 511 l 364 422 l 310 422 l 310 328 l 179 328 m 119 511 l 179 511 l 179 615 l 119 511 z "},"⁄":{"ha":529,"x_min":-153,"x_max":538,"o":"m -153 0 l 410 821 l 538 821 l -26 0 l -153 0 z "},"₣":{"ha":508,"x_min":14,"x_max":474,"o":"m 76 0 l 76 131 l 14 131 l 14 225 l 76 225 l 76 821 l 474 821 l 474 667 l 307 667 l 307 507 l 460 507 l 460 333 l 307 333 l 307 225 l 394 225 l 394 131 l 307 131 l 307 0 l 76 0 z "},"g":{"ha":543,"x_min":28,"x_max":508,"o":"m 281 -168 q 224 -166 257 -168 q 158 -161 190 -164 q 102 -156 125 -158 q 75 -151 79 -153 l 75 -39 q 135 -46 96 -43 q 200 -49 175 -49 q 233 -46 217 -49 q 262 -35 249 -43 q 283 -14 275 -28 q 292 22 292 0 l 292 124 q 277 94 286 114 q 244 59 268 75 q 169 43 221 43 q 113 50 139 43 q 67 79 86 57 q 38 147 49 101 q 28 272 28 193 l 28 543 q 44 624 28 594 q 83 669 60 654 q 131 690 107 685 q 174 694 156 694 q 247 687 217 694 q 292 639 278 679 l 314 688 l 508 688 l 508 138 q 503 39 508 92 q 478 -61 499 -14 q 412 -138 458 -108 q 281 -168 365 -168 m 268 169 q 281 173 275 169 q 289 186 286 176 q 292 211 292 196 l 292 563 q 286 565 289 564 q 279 566 283 565 q 268 567 275 567 q 251 558 258 567 q 244 525 244 549 l 244 213 q 246 192 244 200 q 251 178 247 183 q 258 172 254 174 q 268 169 263 169 z "},"ğ":{"ha":543,"x_min":28,"x_max":508,"o":"m 281 -168 q 224 -166 257 -168 q 158 -161 190 -164 q 102 -156 125 -158 q 75 -151 79 -153 l 75 -39 q 135 -46 96 -43 q 200 -49 175 -49 q 233 -46 217 -49 q 262 -35 249 -43 q 283 -14 275 -28 q 292 22 292 0 l 292 124 q 277 94 286 114 q 244 59 268 75 q 169 43 221 43 q 113 50 139 43 q 67 79 86 57 q 38 147 49 101 q 28 272 28 193 l 28 543 q 44 624 28 594 q 83 669 60 654 q 131 690 107 685 q 174 694 156 694 q 247 687 217 694 q 292 639 278 679 l 314 688 l 508 688 l 508 138 q 503 39 508 92 q 478 -61 499 -14 q 412 -138 458 -108 q 281 -168 365 -168 m 268 169 q 281 173 275 169 q 289 186 286 176 q 292 211 292 196 l 292 563 q 286 565 289 564 q 279 566 283 565 q 268 567 275 567 q 251 558 258 567 q 244 525 244 549 l 244 213 q 246 192 244 200 q 251 178 247 183 q 258 172 254 174 q 268 169 263 169 m 269 757 q 159 783 196 757 q 110 844 122 808 q 99 907 99 879 l 213 907 q 231 869 213 882 q 271 857 249 857 q 312 869 294 857 q 331 907 329 881 l 446 907 q 428 831 446 865 q 372 777 410 797 q 269 757 333 757 z "},"ģ":{"ha":543,"x_min":28,"x_max":508,"o":"m 357 997 q 322 938 335 964 q 308 894 308 911 q 320 875 308 883 q 343 855 332 867 q 354 821 354 843 q 330 775 354 796 q 267 754 306 754 q 201 776 226 754 q 175 831 175 797 q 190 883 175 853 q 228 944 206 914 q 271 997 250 975 l 357 997 m 281 -168 q 224 -166 257 -168 q 158 -161 190 -164 q 102 -156 125 -158 q 75 -151 79 -153 l 75 -39 q 135 -46 96 -43 q 200 -49 175 -49 q 233 -46 217 -49 q 262 -35 249 -43 q 283 -14 275 -28 q 292 22 292 0 l 292 124 q 277 94 286 114 q 244 59 268 75 q 169 43 221 43 q 113 50 139 43 q 67 79 86 57 q 38 147 49 101 q 28 272 28 193 l 28 543 q 44 624 28 594 q 83 669 60 654 q 131 690 107 685 q 174 694 156 694 q 247 687 217 694 q 292 639 278 679 l 314 688 l 508 688 l 508 138 q 503 39 508 92 q 478 -61 499 -14 q 412 -138 458 -108 q 281 -168 365 -168 m 268 169 q 281 173 275 169 q 289 186 286 176 q 292 211 292 196 l 292 563 q 286 565 289 564 q 279 566 283 565 q 268 567 275 567 q 251 558 258 567 q 244 525 244 549 l 244 213 q 246 192 244 200 q 251 178 247 183 q 258 172 254 174 q 268 169 263 169 z "},"ġ":{"ha":543,"x_min":28,"x_max":508,"o":"m 281 -168 q 224 -166 257 -168 q 158 -161 190 -164 q 102 -156 125 -158 q 75 -151 79 -153 l 75 -39 q 135 -46 96 -43 q 200 -49 175 -49 q 233 -46 217 -49 q 262 -35 249 -43 q 283 -14 275 -28 q 292 22 292 0 l 292 124 q 277 94 286 114 q 244 59 268 75 q 169 43 221 43 q 113 50 139 43 q 67 79 86 57 q 38 147 49 101 q 28 272 28 193 l 28 543 q 44 624 28 594 q 83 669 60 654 q 131 690 107 685 q 174 694 156 694 q 247 687 217 694 q 292 639 278 679 l 314 688 l 508 688 l 508 138 q 503 39 508 92 q 478 -61 499 -14 q 412 -138 458 -108 q 281 -168 365 -168 m 268 169 q 281 173 275 169 q 289 186 286 176 q 292 211 292 196 l 292 563 q 286 565 289 564 q 279 566 283 565 q 268 567 275 567 q 251 558 258 567 q 244 525 244 549 l 244 213 q 246 192 244 200 q 251 178 247 183 q 258 172 254 174 q 268 169 263 169 m 271 754 q 197 784 228 754 q 165 857 167 814 q 197 928 165 899 q 272 958 229 958 q 348 928 317 958 q 379 856 379 899 q 348 784 381 814 q 271 754 315 754 z "},"г":{"ha":418,"x_min":35,"x_max":404,"o":"m 35 0 l 35 688 l 404 688 l 404 533 l 265 533 l 265 0 l 35 0 z "},"ß":{"ha":693,"x_min":-65,"x_max":658,"o":"m 21 -204 q -24 -202 6 -204 q -65 -199 -54 -200 l -65 -76 q -56 -78 -60 -78 q -46 -79 -51 -78 q -28 -81 -39 -81 q -4 -82 -18 -82 q 64 -53 47 -82 q 81 17 81 -24 l 81 540 l 21 540 l 21 688 l 81 688 l 81 725 q 101 811 81 778 q 181 860 121 844 q 356 876 240 876 q 562 847 490 876 q 633 740 633 817 l 633 608 q 597 514 633 550 q 515 475 560 478 l 515 469 q 581 451 549 467 q 636 408 614 436 q 658 339 658 381 l 658 168 q 626 60 658 96 q 534 12 593 24 q 396 0 475 0 l 335 0 l 335 108 l 363 108 q 400 119 389 108 q 415 163 411 131 q 418 258 418 194 l 418 332 q 415 371 418 354 q 400 397 413 388 q 356 407 388 407 l 331 407 l 332 518 l 383 518 q 413 541 407 518 q 419 604 419 564 l 419 671 q 412 751 419 728 q 358 775 404 775 q 320 765 333 775 q 302 737 307 756 q 297 692 297 718 l 299 53 q 272 -83 299 -32 q 204 -160 246 -135 q 114 -195 163 -186 q 21 -204 65 -204 z "},"ѓ":{"ha":418,"x_min":35,"x_max":410,"o":"m 35 0 l 35 688 l 404 688 l 404 533 l 265 533 l 265 0 l 35 0 m 126 764 l 207 911 l 410 911 l 263 764 l 126 764 z "},"`":{"ha":335,"x_min":0,"x_max":283,"o":"m 147 764 l 0 911 l 203 911 l 283 764 l 147 764 z "},"̀":{"ha":0,"x_min":0,"x_max":283,"o":"m 147 764 l 0 911 l 203 911 l 283 764 l 147 764 z "},">":{"ha":426,"x_min":42,"x_max":385,"o":"m 42 167 l 42 358 l 208 461 l 42 563 l 42 749 l 385 515 l 385 401 l 42 167 z "},"≥":{"ha":426,"x_min":42,"x_max":385,"o":"m 42 -7 l 42 136 l 378 136 l 378 -7 l 42 -7 m 42 167 l 42 358 l 208 461 l 42 563 l 42 749 l 385 515 l 385 401 l 42 167 z "},"«":{"ha":785,"x_min":42,"x_max":743,"o":"m 554 138 l 364 410 l 553 682 l 743 682 l 554 410 l 743 138 l 554 138 m 232 138 l 42 410 l 231 682 l 421 682 l 232 410 l 421 138 l 232 138 z "},"»":{"ha":785,"x_min":42,"x_max":743,"o":"m 364 138 l 553 410 l 364 682 l 554 682 l 743 410 l 553 138 l 364 138 m 42 138 l 231 410 l 42 682 l 232 682 l 421 410 l 231 138 l 42 138 z "},"‹":{"ha":463,"x_min":42,"x_max":421,"o":"m 232 138 l 42 410 l 231 682 l 421 682 l 232 410 l 421 138 l 232 138 z "},"›":{"ha":463,"x_min":42,"x_max":421,"o":"m 42 138 l 231 410 l 42 682 l 232 682 l 421 410 l 231 138 l 42 138 z "},"h":{"ha":543,"x_min":35,"x_max":515,"o":"m 35 0 l 35 875 l 236 875 l 236 597 q 281 672 243 646 q 363 697 318 697 q 457 676 424 697 q 503 615 490 656 q 515 515 515 575 l 515 0 l 299 0 l 299 486 q 297 503 299 496 q 292 515 296 510 q 284 522 289 519 q 272 525 279 525 q 262 524 267 525 q 254 520 257 522 q 251 514 251 518 l 251 0 l 35 0 z "},"х":{"ha":511,"x_min":-7,"x_max":518,"o":"m -7 0 l 117 353 l 18 688 l 224 688 l 263 513 l 319 688 l 518 688 l 401 353 l 507 0 l 301 0 l 261 175 l 206 0 l -7 0 z "},"ъ":{"ha":597,"x_min":14,"x_max":563,"o":"m 82 0 l 82 561 l 14 561 l 14 688 l 299 688 l 299 472 l 408 472 q 478 462 443 472 q 538 419 514 451 q 563 317 563 386 l 563 224 q 548 99 563 144 q 508 33 533 54 q 448 6 482 13 q 374 0 414 0 l 82 0 m 299 110 l 322 110 q 338 114 333 110 q 344 128 343 118 q 346 153 346 138 l 346 286 q 344 320 346 308 q 338 336 343 332 q 322 340 333 340 l 299 340 l 299 110 z "},"ħ":{"ha":549,"x_min":-7,"x_max":515,"o":"m -7 721 l -7 825 l 325 825 l 325 721 l -7 721 m 35 0 l 35 875 l 236 875 l 236 597 q 281 672 243 646 q 363 697 318 697 q 457 676 424 697 q 503 615 490 656 q 515 515 515 575 l 515 0 l 299 0 l 299 486 q 297 503 299 496 q 292 515 296 510 q 284 522 289 519 q 272 525 279 525 q 262 524 267 525 q 254 520 257 522 q 251 514 251 518 l 251 0 l 35 0 z "},"̉":{"ha":0,"x_min":14,"x_max":258,"o":"m 82 764 l 82 776 q 96 808 82 797 q 124 828 110 819 q 138 853 138 838 l 138 863 q 135 880 138 871 q 122 889 132 889 q 107 861 107 889 l 14 875 q 46 942 17 919 q 132 964 75 964 q 226 948 194 964 q 258 867 258 932 l 258 861 q 242 817 258 829 q 211 799 226 806 q 196 776 196 793 l 196 764 l 82 764 z "},"̛":{"ha":0,"x_min":14,"x_max":240,"o":"m 14 596 l 14 688 l 43 688 q 101 753 101 688 l 101 781 l 240 781 l 240 753 q 184 631 240 665 q 14 596 128 596 z "},"˝":{"ha":357,"x_min":0,"x_max":357,"o":"m 0 764 l 11 911 l 172 911 l 82 764 l 0 764 m 157 764 l 196 911 l 357 911 l 253 764 l 157 764 z "},"̋":{"ha":0,"x_min":0,"x_max":357,"o":"m 0 764 l 11 911 l 172 911 l 82 764 l 0 764 m 157 764 l 196 911 l 357 911 l 253 764 l 157 764 z "},"-":{"ha":378,"x_min":42,"x_max":336,"o":"m 42 332 l 42 475 l 336 475 l 336 332 l 42 332 z "},"i":{"ha":286,"x_min":35,"x_max":251,"o":"m 35 0 l 35 688 l 251 688 l 251 0 l 35 0 m 142 754 q 68 784 99 754 q 36 857 38 814 q 68 928 36 899 q 143 958 100 958 q 219 928 188 958 q 250 856 250 899 q 219 784 251 814 q 142 754 186 754 z "},"і":{"ha":286,"x_min":35,"x_max":251,"o":"m 35 0 l 35 688 l 251 688 l 251 0 l 35 0 m 142 754 q 68 784 99 754 q 36 857 38 814 q 68 928 36 899 q 143 958 100 958 q 219 928 188 958 q 250 856 250 899 q 219 784 251 814 q 142 754 186 754 z "},"я":{"ha":589,"x_min":7,"x_max":554,"o":"m 7 0 l 83 215 q 124 284 103 268 q 174 303 146 300 q 86 343 114 311 q 58 453 58 375 l 58 501 q 99 640 58 592 q 232 688 140 688 l 554 688 l 554 0 l 324 0 l 324 281 l 314 244 q 293 159 304 201 q 271 74 282 117 l 253 0 l 7 0 m 307 361 l 324 361 l 324 571 l 303 571 q 281 542 285 571 q 278 483 278 513 l 278 467 q 287 381 279 401 q 307 361 294 361 z "},"í":{"ha":286,"x_min":35,"x_max":343,"o":"m 35 0 l 35 688 l 251 688 l 251 0 l 35 0 m 60 764 l 140 911 l 343 911 l 196 764 l 60 764 z "},"ǐ":{"ha":286,"x_min":-53,"x_max":339,"o":"m 35 0 l 35 688 l 251 688 l 251 0 l 35 0 m 85 757 l -53 918 l 75 918 l 144 846 l 214 918 l 339 918 l 200 757 l 85 757 z "},"î":{"ha":286,"x_min":-53,"x_max":339,"o":"m 35 0 l 35 688 l 251 688 l 251 0 l 35 0 m -53 757 l 85 918 l 200 918 l 339 757 l 214 757 l 144 829 l 75 757 l -53 757 z "},"ï":{"ha":286,"x_min":-36,"x_max":321,"o":"m 35 0 l 35 688 l 251 688 l 251 0 l 35 0 m 47 754 q -12 777 11 754 q -36 833 -36 800 q -12 889 -36 867 q 47 911 11 911 q 105 889 82 911 q 128 833 128 867 q 105 777 128 800 q 47 754 82 754 m 240 754 q 181 777 204 754 q 157 833 157 800 q 181 889 157 867 q 240 911 204 911 q 298 889 275 911 q 321 833 321 867 q 298 777 321 800 q 240 754 275 754 z "},"ị":{"ha":286,"x_min":35,"x_max":251,"o":"m 35 0 l 35 688 l 251 688 l 251 0 l 35 0 m 142 754 q 68 784 99 754 q 36 857 38 814 q 68 928 36 899 q 143 958 100 958 q 219 928 188 958 q 250 856 250 899 q 219 784 251 814 q 142 754 186 754 m 142 -204 q 83 -181 107 -204 q 60 -125 60 -157 q 83 -68 60 -92 q 142 -44 107 -44 q 201 -68 176 -44 q 226 -125 226 -92 q 201 -181 226 -157 q 142 -204 176 -204 z "},"ı":{"ha":286,"x_min":35,"x_max":251,"o":"m 35 0 l 35 688 l 251 688 l 251 0 l 35 0 z "},"е":{"ha":529,"x_min":28,"x_max":508,"o":"m 268 -11 q 140 5 194 -11 q 57 74 86 21 q 28 236 28 126 l 28 518 q 90 660 28 621 q 268 699 153 699 q 446 660 383 699 q 508 518 508 621 l 508 324 l 244 324 l 244 142 q 251 109 244 118 q 268 100 258 100 q 285 109 279 100 q 292 142 292 118 l 292 267 l 508 267 l 508 238 q 479 74 508 126 q 396 5 450 21 q 268 -11 342 -11 m 244 417 l 292 417 l 292 546 q 285 578 292 569 q 268 588 279 588 q 251 578 258 588 q 244 546 244 569 l 244 417 z "},"ѐ":{"ha":529,"x_min":28,"x_max":508,"o":"m 268 -11 q 140 5 194 -11 q 57 74 86 21 q 28 236 28 126 l 28 518 q 90 660 28 621 q 268 699 153 699 q 446 660 383 699 q 508 518 508 621 l 508 324 l 244 324 l 244 142 q 251 109 244 118 q 268 100 258 100 q 285 109 279 100 q 292 142 292 118 l 292 267 l 508 267 l 508 238 q 479 74 508 126 q 396 5 450 21 q 268 -11 342 -11 m 244 417 l 292 417 l 292 546 q 285 578 292 569 q 268 588 279 588 q 251 578 258 588 q 244 546 244 569 l 244 417 m 224 764 l 76 911 l 279 911 l 360 764 l 224 764 z "},"ì":{"ha":286,"x_min":-46,"x_max":251,"o":"m 35 0 l 35 688 l 251 688 l 251 0 l 35 0 m 101 764 l -46 911 l 157 911 l 238 764 l 101 764 z "},"ỉ":{"ha":286,"x_min":15,"x_max":260,"o":"m 35 0 l 35 688 l 251 688 l 251 0 l 35 0 m 83 764 l 83 776 q 97 808 83 797 q 125 828 111 819 q 139 853 139 838 l 139 863 q 136 880 139 871 q 124 889 133 889 q 108 861 108 889 l 15 875 q 47 942 18 919 q 133 964 76 964 q 228 948 196 964 q 260 867 260 932 l 260 861 q 244 817 260 829 q 213 799 228 806 q 197 776 197 793 l 197 764 l 83 764 z "},"и":{"ha":546,"x_min":35,"x_max":511,"o":"m 35 0 l 35 688 l 224 688 l 224 386 l 324 688 l 511 688 l 511 0 l 322 0 l 322 354 q 265 177 293 265 q 207 0 236 89 l 35 0 z "},"ѝ":{"ha":546,"x_min":35,"x_max":511,"o":"m 35 0 l 35 688 l 224 688 l 224 386 l 324 688 l 511 688 l 511 0 l 322 0 l 322 354 q 265 177 293 265 q 207 0 236 89 l 35 0 m 232 764 l 85 911 l 288 911 l 368 764 l 232 764 z "},"й":{"ha":546,"x_min":35,"x_max":511,"o":"m 35 0 l 35 688 l 224 688 l 224 386 l 324 688 l 511 688 l 511 0 l 322 0 l 322 354 q 265 177 293 265 q 207 0 236 89 l 35 0 m 271 757 q 160 783 197 757 q 112 844 124 808 q 100 907 100 879 l 214 907 q 232 869 214 882 q 272 857 250 857 q 313 869 296 857 q 332 907 331 881 l 447 907 q 429 831 447 865 q 373 777 411 797 q 271 757 335 757 z "},"ī":{"ha":286,"x_min":-11,"x_max":297,"o":"m 35 0 l 35 688 l 251 688 l 251 0 l 35 0 m -11 772 l -11 879 l 297 879 l 297 772 l -11 772 z "},"∞":{"ha":954,"x_min":42,"x_max":913,"o":"m 226 131 q 85 184 129 131 q 42 344 42 238 q 85 505 42 451 q 226 558 129 558 q 333 535 285 558 q 417 480 381 511 q 475 424 453 449 q 533 478 496 447 q 619 534 569 510 q 728 558 669 558 q 869 505 825 558 q 913 344 913 451 q 869 184 913 238 q 728 131 825 131 q 621 155 669 131 q 536 212 572 179 q 478 268 500 244 q 419 209 457 242 q 333 153 382 176 q 226 131 285 131 m 233 256 q 314 283 282 256 q 388 344 346 310 q 333 390 358 372 q 283 417 307 408 q 233 426 260 426 q 175 406 194 426 q 156 342 156 385 q 175 277 156 299 q 233 256 194 256 m 721 263 q 779 283 760 263 q 799 347 799 304 q 779 412 799 390 q 721 433 760 433 q 678 426 697 433 q 640 406 658 418 q 605 377 622 393 q 567 344 588 361 q 622 299 597 317 q 672 272 647 281 q 721 263 696 263 z "},"∫":{"ha":565,"x_min":-158,"x_max":551,"o":"m -56 -419 q -107 -415 -82 -418 q -158 -401 -132 -411 l -135 -265 l -40 -279 q -6 -258 -15 -276 q 8 -218 4 -239 l 171 711 q 226 824 185 789 q 325 867 267 858 q 446 875 383 875 q 505 870 478 875 q 551 857 532 865 l 528 721 l 431 735 q 396 713 406 732 q 382 674 386 694 l 219 -256 q 165 -368 206 -333 q 66 -411 124 -403 q -56 -419 8 -419 z "},"ё":{"ha":529,"x_min":28,"x_max":508,"o":"m 268 -11 q 140 5 194 -11 q 57 74 86 21 q 28 236 28 126 l 28 518 q 90 660 28 621 q 268 699 153 699 q 446 660 383 699 q 508 518 508 621 l 508 324 l 244 324 l 244 142 q 251 109 244 118 q 268 100 258 100 q 285 109 279 100 q 292 142 292 118 l 292 267 l 508 267 l 508 238 q 479 74 508 126 q 396 5 450 21 q 268 -11 342 -11 m 244 417 l 292 417 l 292 546 q 285 578 292 569 q 268 588 279 588 q 251 578 258 588 q 244 546 244 569 l 244 417 m 169 754 q 110 777 133 754 q 86 833 86 800 q 110 889 86 867 q 169 911 133 911 q 227 889 204 911 q 250 833 250 867 q 227 777 250 800 q 169 754 204 754 m 363 754 q 303 777 326 754 q 279 833 279 800 q 303 889 279 867 q 363 911 326 911 q 420 889 397 911 q 443 833 443 867 q 420 777 443 800 q 363 754 397 754 z "},"į":{"ha":286,"x_min":35,"x_max":281,"o":"m 35 0 l 35 688 l 251 688 l 251 0 l 35 0 m 142 754 q 68 784 99 754 q 36 857 38 814 q 68 928 36 899 q 143 958 100 958 q 219 928 188 958 q 250 856 250 899 q 219 784 251 814 q 142 754 186 754 m 174 -210 q 79 -180 114 -210 q 44 -115 44 -150 q 78 -40 44 -76 q 169 3 113 -3 l 251 0 q 197 -35 214 -10 q 181 -85 181 -61 q 198 -124 181 -110 q 232 -137 215 -137 q 248 -135 242 -137 q 257 -133 254 -133 l 281 -185 q 250 -199 274 -189 q 174 -210 226 -210 z "},"ĩ":{"ha":286,"x_min":-35,"x_max":319,"o":"m 35 0 l 35 688 l 251 688 l 251 0 l 35 0 m 211 761 q 167 771 188 761 q 126 790 146 781 q 94 806 110 800 q 61 813 78 813 q 33 798 43 813 q 22 763 24 783 l -35 763 q -8 868 -35 828 q 64 908 19 908 q 110 901 89 908 q 149 883 131 893 q 181 868 165 875 q 213 861 197 861 q 244 874 235 861 q 256 904 253 888 l 319 904 q 302 825 319 857 q 260 777 285 793 q 211 761 235 761 z "},"ю":{"ha":833,"x_min":35,"x_max":800,"o":"m 560 -17 q 432 -1 486 -17 q 349 68 378 15 q 319 231 319 121 l 319 518 q 347 626 319 588 q 429 682 375 665 q 560 699 483 699 q 691 682 638 699 q 772 626 744 665 q 800 518 800 588 l 800 232 q 771 68 800 121 q 688 -1 742 15 q 560 -17 633 -17 m 35 0 l 35 688 l 251 688 l 251 435 l 396 435 l 396 272 l 251 272 l 251 0 l 35 0 m 560 94 q 572 98 567 94 q 581 111 578 101 q 583 136 583 121 l 583 546 q 581 572 583 563 q 572 584 578 581 q 560 588 567 588 q 547 584 553 588 q 539 572 542 581 q 536 546 536 563 l 536 136 q 539 111 536 121 q 547 98 542 101 q 560 94 553 94 z "},"j":{"ha":281,"x_min":-92,"x_max":251,"o":"m -28 -157 q -62 -154 -39 -156 q -92 -151 -85 -153 l -92 -39 q -56 -38 -76 -39 q -26 -36 -36 -37 q 20 -13 6 -33 q 35 28 35 7 l 35 688 l 251 688 l 251 96 q 211 -71 251 -14 q 108 -146 171 -128 q -28 -157 44 -164 m 139 754 q 65 784 96 754 q 33 857 35 814 q 65 928 33 899 q 140 958 97 958 q 216 928 185 958 q 247 856 247 899 q 216 784 249 814 q 139 754 183 754 z "},"ȷ":{"ha":281,"x_min":-92,"x_max":251,"o":"m -28 -157 q -62 -154 -39 -156 q -92 -151 -85 -153 l -92 -39 q -56 -38 -76 -39 q -26 -36 -36 -37 q 20 -13 6 -33 q 35 28 35 7 l 35 688 l 251 688 l 251 96 q 211 -71 251 -14 q 108 -146 171 -128 q -28 -157 44 -164 z "},"ј":{"ha":281,"x_min":-92,"x_max":251,"o":"m -28 -157 q -62 -154 -39 -156 q -92 -151 -85 -153 l -92 -39 q -56 -38 -76 -39 q -26 -36 -36 -37 q 20 -13 6 -33 q 35 28 35 7 l 35 688 l 251 688 l 251 96 q 211 -71 251 -14 q 108 -146 171 -128 q -28 -157 44 -164 m 139 754 q 65 784 96 754 q 33 857 35 814 q 65 928 33 899 q 140 958 97 958 q 216 928 185 958 q 247 856 247 899 q 216 784 249 814 q 139 754 183 754 z "},"k":{"ha":578,"x_min":35,"x_max":575,"o":"m 336 0 l 250 397 l 361 688 l 575 688 l 454 393 l 571 0 l 336 0 m 35 0 l 35 875 l 251 875 l 251 0 l 35 0 z "},"к":{"ha":610,"x_min":35,"x_max":582,"o":"m 35 0 l 35 688 l 253 688 l 253 500 q 340 609 289 564 q 453 675 390 654 q 582 685 515 696 l 582 544 q 527 527 550 540 q 489 499 504 514 q 474 481 481 490 q 461 461 467 472 l 579 0 l 329 0 l 268 221 q 260 208 264 215 q 253 194 257 201 l 253 0 l 35 0 z "},"ķ":{"ha":578,"x_min":35,"x_max":575,"o":"m 336 0 l 250 397 l 361 688 l 575 688 l 454 393 l 571 0 l 336 0 m 35 0 l 35 875 l 251 875 l 251 0 l 35 0 m 196 -293 q 232 -233 219 -260 q 244 -190 244 -207 q 233 -171 244 -179 q 210 -150 221 -162 q 199 -117 199 -137 q 223 -71 199 -92 q 286 -50 247 -50 q 352 -72 326 -50 q 378 -126 378 -93 q 363 -178 378 -147 q 326 -240 347 -210 q 282 -293 304 -271 l 196 -293 z "},"ќ":{"ha":610,"x_min":35,"x_max":582,"o":"m 35 0 l 35 688 l 253 688 l 253 500 q 340 609 289 564 q 453 675 390 654 q 582 685 515 696 l 582 544 q 527 527 550 540 q 489 499 504 514 q 474 481 481 490 q 461 461 467 472 l 579 0 l 329 0 l 268 221 q 260 208 264 215 q 253 194 257 201 l 253 0 l 35 0 m 222 764 l 303 911 l 506 911 l 358 764 l 222 764 z "},"l":{"ha":286,"x_min":35,"x_max":251,"o":"m 35 0 l 35 875 l 251 875 l 251 0 l 35 0 z "},"ĺ":{"ha":286,"x_min":35,"x_max":344,"o":"m 35 0 l 35 875 l 251 875 l 251 0 l 35 0 m 46 936 l 153 1079 l 344 1079 l 164 936 l 46 936 z "},"ľ":{"ha":439,"x_min":35,"x_max":450,"o":"m 35 0 l 35 875 l 251 875 l 251 0 l 35 0 m 283 692 l 322 915 l 450 915 l 357 692 l 283 692 z "},"ļ":{"ha":286,"x_min":35,"x_max":251,"o":"m 35 0 l 35 875 l 251 875 l 251 0 l 35 0 m 50 -293 q 86 -233 74 -260 q 99 -190 99 -207 q 87 -171 99 -179 q 64 -150 75 -162 q 53 -117 53 -137 q 77 -71 53 -92 q 140 -50 101 -50 q 206 -72 181 -50 q 232 -126 232 -93 q 217 -178 232 -147 q 180 -240 201 -210 q 136 -293 158 -271 l 50 -293 z "},"←":{"ha":1110,"x_min":42,"x_max":1068,"o":"m 472 0 l 42 333 l 474 671 l 578 567 l 417 424 l 1068 417 l 1067 246 l 421 249 l 576 104 l 472 0 z "},"↔":{"ha":1444,"x_min":40,"x_max":1401,"o":"m 472 96 l 40 429 l 472 767 l 576 663 l 415 519 l 1026 519 l 865 663 l 969 767 l 1401 429 l 969 96 l 865 200 l 1019 342 l 422 342 l 576 200 l 472 96 z "},"<":{"ha":426,"x_min":42,"x_max":385,"o":"m 385 167 l 42 400 l 42 514 l 385 749 l 385 557 l 218 454 l 385 353 l 385 167 z "},"≤":{"ha":428,"x_min":43,"x_max":388,"o":"m 386 167 l 43 401 l 43 515 l 386 749 l 386 563 l 219 461 l 386 358 l 386 167 m 388 -7 l 51 -7 l 51 136 l 388 136 l 388 -7 z "},"љ":{"ha":918,"x_min":14,"x_max":883,"o":"m 14 0 l 14 110 q 64 144 39 110 q 92 217 89 178 l 133 688 l 619 688 l 619 472 l 729 472 q 799 462 764 472 q 859 419 835 451 q 883 317 883 386 l 883 224 q 869 99 883 144 q 828 33 854 54 q 769 6 803 13 q 694 0 735 0 l 399 0 l 399 536 l 353 536 l 313 161 q 307 108 310 136 q 291 55 304 79 q 247 15 278 31 q 158 0 217 0 l 14 0 m 619 110 l 643 110 q 659 114 654 110 q 665 128 664 118 q 667 153 667 138 l 667 286 q 665 320 667 308 q 659 336 664 332 q 643 340 654 340 l 619 340 l 619 110 z "},"¬":{"ha":775,"x_min":50,"x_max":733,"o":"m 596 132 l 596 411 l 50 411 l 50 568 l 733 568 l 733 132 l 596 132 z "},"ſ":{"ha":553,"x_min":7,"x_max":493,"o":"m 131 -197 q 70 -197 101 -199 q 7 -189 39 -194 l 7 -82 l 57 -82 q 78 -78 68 -82 q 96 -67 88 -74 q 109 -52 103 -60 q 117 -35 115 -44 l 117 486 l 57 486 l 57 611 l 117 611 l 117 711 q 150 824 117 789 q 238 867 183 858 q 356 875 293 875 q 427 869 392 875 q 493 856 463 863 l 475 733 q 422 747 446 744 q 372 750 399 750 q 342 726 349 750 q 335 681 335 701 l 335 54 q 307 -88 335 -35 q 233 -167 279 -142 q 131 -197 188 -192 z "},"◊":{"ha":686,"x_min":42,"x_max":644,"o":"m 275 -47 l 42 406 l 275 857 l 411 857 l 644 406 l 411 -47 l 275 -47 m 343 154 l 461 410 l 346 660 l 226 404 l 343 154 z "},"ł":{"ha":417,"x_min":21,"x_max":396,"o":"m 99 0 l 99 218 l 21 183 l 21 272 l 99 307 l 99 875 l 315 875 l 315 403 l 396 439 l 396 351 l 315 315 l 315 0 l 99 0 z "},"m":{"ha":807,"x_min":35,"x_max":779,"o":"m 35 0 l 35 688 l 219 688 l 236 597 q 283 669 249 640 q 363 697 318 697 q 473 664 440 697 q 514 567 506 631 l 494 568 q 537 659 499 621 q 626 697 575 697 q 749 651 718 697 q 779 515 779 606 l 779 0 l 563 0 l 563 507 q 556 536 563 526 q 539 546 550 546 q 526 545 533 546 q 515 542 519 544 l 515 0 l 299 0 l 299 507 q 292 536 299 526 q 275 546 286 546 q 263 545 269 546 q 251 542 256 544 l 251 0 l 35 0 z "},"¯":{"ha":336,"x_min":14,"x_max":322,"o":"m 14 772 l 14 879 l 322 879 l 322 772 l 14 772 z "},"̄":{"ha":0,"x_min":14,"x_max":322,"o":"m 14 772 l 14 879 l 322 879 l 322 772 l 14 772 z "},"µ":{"ha":564,"x_min":42,"x_max":522,"o":"m 42 -179 l 42 688 l 258 688 l 258 146 q 269 142 263 143 q 282 142 276 142 q 295 146 290 142 q 303 159 300 150 q 306 181 306 168 l 306 688 l 522 688 l 522 172 q 510 72 522 113 q 464 10 497 31 q 369 -10 431 -10 q 290 19 325 -10 q 243 90 256 47 l 226 -179 l 42 -179 z "},"−":{"ha":833,"x_min":97,"x_max":621,"o":"m 97 290 l 97 433 l 621 433 l 621 290 l 97 290 z "},"×":{"ha":572,"x_min":42,"x_max":531,"o":"m 431 118 l 286 261 l 143 119 l 42 219 l 186 363 l 42 506 l 143 607 l 286 464 l 431 608 l 531 507 l 388 363 l 531 218 l 431 118 z "},"n":{"ha":543,"x_min":35,"x_max":515,"o":"m 35 0 l 35 688 l 219 688 l 236 597 q 283 669 249 640 q 363 697 318 697 q 457 676 424 697 q 503 615 490 656 q 515 515 515 575 l 515 0 l 299 0 l 299 507 q 297 524 299 517 q 293 535 296 531 q 286 543 290 540 q 275 546 282 546 q 267 545 272 546 q 258 544 263 544 q 251 542 254 543 l 251 0 l 35 0 z "},"ń":{"ha":543,"x_min":35,"x_max":515,"o":"m 35 0 l 35 688 l 219 688 l 236 597 q 283 669 249 640 q 363 697 318 697 q 457 676 424 697 q 503 615 490 656 q 515 515 515 575 l 515 0 l 299 0 l 299 507 q 297 524 299 517 q 293 535 296 531 q 286 543 290 540 q 275 546 282 546 q 267 545 272 546 q 258 544 263 544 q 251 542 254 543 l 251 0 l 35 0 m 189 764 l 269 911 l 472 911 l 325 764 l 189 764 z "},"ň":{"ha":543,"x_min":35,"x_max":515,"o":"m 35 0 l 35 688 l 219 688 l 236 597 q 283 669 249 640 q 363 697 318 697 q 457 676 424 697 q 503 615 490 656 q 515 515 515 575 l 515 0 l 299 0 l 299 507 q 297 524 299 517 q 293 535 296 531 q 286 543 290 540 q 275 546 282 546 q 267 545 272 546 q 258 544 263 544 q 251 542 254 543 l 251 0 l 35 0 m 214 757 l 76 918 l 204 918 l 274 846 l 343 918 l 468 918 l 329 757 l 214 757 z "},"ņ":{"ha":543,"x_min":35,"x_max":515,"o":"m 35 0 l 35 688 l 219 688 l 236 597 q 283 669 249 640 q 363 697 318 697 q 457 676 424 697 q 503 615 490 656 q 515 515 515 575 l 515 0 l 299 0 l 299 507 q 297 524 299 517 q 293 535 296 531 q 286 543 290 540 q 275 546 282 546 q 267 545 272 546 q 258 544 263 544 q 251 542 254 543 l 251 0 l 35 0 m 179 -293 q 215 -233 203 -260 q 228 -190 228 -207 q 216 -171 228 -179 q 193 -150 204 -162 q 182 -117 182 -137 q 206 -71 182 -92 q 269 -50 231 -50 q 335 -72 310 -50 q 361 -126 361 -93 q 346 -178 361 -147 q 309 -240 331 -210 q 265 -293 288 -271 l 179 -293 z "},"њ":{"ha":814,"x_min":35,"x_max":779,"o":"m 35 0 l 35 688 l 251 688 l 251 435 l 301 435 l 301 688 l 515 688 l 515 472 l 625 472 q 695 462 660 472 q 755 419 731 451 q 779 317 779 386 l 779 224 q 765 99 779 144 q 724 33 750 54 q 665 6 699 13 q 590 0 631 0 l 301 0 l 301 272 l 251 272 l 251 0 l 35 0 m 515 110 l 539 110 q 555 114 550 110 q 561 128 560 118 q 563 153 563 138 l 563 286 q 561 320 563 308 q 555 336 560 332 q 539 340 550 340 l 515 340 l 515 110 z "},"↗":{"ha":779,"x_min":-18,"x_max":771,"o":"m 104 69 l -18 192 l 443 646 l 229 639 l 229 786 l 771 854 l 703 311 l 556 311 l 569 525 l 104 69 z "},"↖":{"ha":833,"x_min":56,"x_max":840,"o":"m 718 33 l 264 493 l 272 281 l 125 281 l 56 821 l 600 754 l 600 607 l 385 619 l 840 154 l 718 33 z "},"≠":{"ha":593,"x_min":42,"x_max":551,"o":"m 42 -35 l 151 165 l 99 165 l 99 308 l 231 308 l 303 439 l 99 439 l 99 582 l 382 582 l 461 725 l 551 725 l 472 582 l 547 582 l 547 439 l 393 439 l 321 308 l 547 308 l 547 165 l 242 165 l 131 -35 l 42 -35 z "},"ñ":{"ha":543,"x_min":35,"x_max":515,"o":"m 35 0 l 35 688 l 219 688 l 236 597 q 283 669 249 640 q 363 697 318 697 q 457 676 424 697 q 503 615 490 656 q 515 515 515 575 l 515 0 l 299 0 l 299 507 q 297 524 299 517 q 293 535 296 531 q 286 543 290 540 q 275 546 282 546 q 267 545 272 546 q 258 544 263 544 q 251 542 254 543 l 251 0 l 35 0 m 340 761 q 296 771 317 761 q 256 790 275 781 q 223 806 239 800 q 190 813 207 813 q 163 798 172 813 q 151 763 153 783 l 94 763 q 122 868 94 828 q 193 908 149 908 q 239 901 218 908 q 278 883 260 893 q 310 868 294 875 q 342 861 326 861 q 373 874 364 861 q 385 904 382 888 l 449 904 q 431 825 449 857 q 389 777 414 793 q 340 761 364 761 z "},"#":{"ha":1028,"x_min":35,"x_max":993,"o":"m 172 0 l 243 225 l 35 225 l 76 357 l 285 357 l 328 492 l 115 493 l 157 625 l 369 625 l 424 797 l 563 797 l 507 625 l 656 625 l 711 797 l 850 797 l 794 625 l 993 625 l 951 492 l 753 492 l 711 357 l 913 357 l 871 224 l 669 224 l 599 0 l 460 0 l 531 224 l 382 225 l 311 0 l 172 0 m 424 357 l 572 357 l 614 492 l 465 492 l 424 357 z "},"o":{"ha":536,"x_min":28,"x_max":508,"o":"m 268 -11 q 140 5 194 -11 q 57 74 86 21 q 28 236 28 126 l 28 504 q 56 622 28 579 q 138 681 83 664 q 268 699 192 699 q 399 681 346 699 q 481 622 453 664 q 508 504 508 579 l 508 238 q 479 74 508 126 q 396 5 450 21 q 268 -11 342 -11 m 268 114 q 281 117 275 114 q 289 131 286 121 q 292 156 292 140 l 292 532 q 289 558 292 549 q 281 570 286 567 q 268 574 275 574 q 256 570 261 574 q 247 558 250 567 q 244 532 244 549 l 244 156 q 247 131 244 140 q 256 117 250 121 q 268 114 261 114 z "},"о":{"ha":536,"x_min":28,"x_max":508,"o":"m 268 -11 q 140 5 194 -11 q 57 74 86 21 q 28 236 28 126 l 28 504 q 56 622 28 579 q 138 681 83 664 q 268 699 192 699 q 399 681 346 699 q 481 622 453 664 q 508 504 508 579 l 508 238 q 479 74 508 126 q 396 5 450 21 q 268 -11 342 -11 m 268 114 q 281 117 275 114 q 289 131 286 121 q 292 156 292 140 l 292 532 q 289 558 292 549 q 281 570 286 567 q 268 574 275 574 q 256 570 261 574 q 247 558 250 567 q 244 532 244 549 l 244 156 q 247 131 244 140 q 256 117 250 121 q 268 114 261 114 z "},"ó":{"ha":536,"x_min":28,"x_max":508,"o":"m 268 -11 q 140 5 194 -11 q 57 74 86 21 q 28 236 28 126 l 28 504 q 56 622 28 579 q 138 681 83 664 q 268 699 192 699 q 399 681 346 699 q 481 622 453 664 q 508 504 508 579 l 508 238 q 479 74 508 126 q 396 5 450 21 q 268 -11 342 -11 m 268 114 q 281 117 275 114 q 289 131 286 121 q 292 156 292 140 l 292 532 q 289 558 292 549 q 281 570 286 567 q 268 574 275 574 q 256 570 261 574 q 247 558 250 567 q 244 532 244 549 l 244 156 q 247 131 244 140 q 256 117 250 121 q 268 114 261 114 m 185 764 l 265 911 l 468 911 l 321 764 l 185 764 z "},"ǒ":{"ha":536,"x_min":28,"x_max":508,"o":"m 268 -11 q 140 5 194 -11 q 57 74 86 21 q 28 236 28 126 l 28 504 q 56 622 28 579 q 138 681 83 664 q 268 699 192 699 q 399 681 346 699 q 481 622 453 664 q 508 504 508 579 l 508 238 q 479 74 508 126 q 396 5 450 21 q 268 -11 342 -11 m 268 114 q 281 117 275 114 q 289 131 286 121 q 292 156 292 140 l 292 532 q 289 558 292 549 q 281 570 286 567 q 268 574 275 574 q 256 570 261 574 q 247 558 250 567 q 244 532 244 549 l 244 156 q 247 131 244 140 q 256 117 250 121 q 268 114 261 114 m 210 757 l 72 918 l 200 918 l 269 846 l 339 918 l 464 918 l 325 757 l 210 757 z "},"ô":{"ha":536,"x_min":28,"x_max":508,"o":"m 268 -11 q 140 5 194 -11 q 57 74 86 21 q 28 236 28 126 l 28 504 q 56 622 28 579 q 138 681 83 664 q 268 699 192 699 q 399 681 346 699 q 481 622 453 664 q 508 504 508 579 l 508 238 q 479 74 508 126 q 396 5 450 21 q 268 -11 342 -11 m 268 114 q 281 117 275 114 q 289 131 286 121 q 292 156 292 140 l 292 532 q 289 558 292 549 q 281 570 286 567 q 268 574 275 574 q 256 570 261 574 q 247 558 250 567 q 244 532 244 549 l 244 156 q 247 131 244 140 q 256 117 250 121 q 268 114 261 114 m 72 757 l 210 918 l 325 918 l 464 757 l 339 757 l 269 829 l 200 757 l 72 757 z "},"ố":{"ha":536,"x_min":28,"x_max":736,"o":"m 268 -11 q 140 5 194 -11 q 57 74 86 21 q 28 236 28 126 l 28 504 q 56 622 28 579 q 138 681 83 664 q 268 699 192 699 q 399 681 346 699 q 481 622 453 664 q 508 504 508 579 l 508 238 q 479 74 508 126 q 396 5 450 21 q 268 -11 342 -11 m 268 114 q 281 117 275 114 q 289 131 286 121 q 292 156 292 140 l 292 532 q 289 558 292 549 q 281 570 286 567 q 268 574 275 574 q 256 570 261 574 q 247 558 250 567 q 244 532 244 549 l 244 156 q 247 131 244 140 q 256 117 250 121 q 268 114 261 114 m 72 757 l 210 918 l 325 918 l 464 757 l 339 757 l 269 829 l 200 757 l 72 757 m 453 840 l 533 988 l 736 988 l 589 840 l 453 840 z "},"ộ":{"ha":536,"x_min":28,"x_max":508,"o":"m 268 -11 q 140 5 194 -11 q 57 74 86 21 q 28 236 28 126 l 28 504 q 56 622 28 579 q 138 681 83 664 q 268 699 192 699 q 399 681 346 699 q 481 622 453 664 q 508 504 508 579 l 508 238 q 479 74 508 126 q 396 5 450 21 q 268 -11 342 -11 m 268 114 q 281 117 275 114 q 289 131 286 121 q 292 156 292 140 l 292 532 q 289 558 292 549 q 281 570 286 567 q 268 574 275 574 q 256 570 261 574 q 247 558 250 567 q 244 532 244 549 l 244 156 q 247 131 244 140 q 256 117 250 121 q 268 114 261 114 m 267 -204 q 208 -181 232 -204 q 185 -125 185 -157 q 208 -68 185 -92 q 267 -44 232 -44 q 326 -68 301 -44 q 351 -125 351 -92 q 326 -181 351 -157 q 267 -204 301 -204 m 72 757 l 210 918 l 325 918 l 464 757 l 339 757 l 269 829 l 200 757 l 72 757 z "},"ồ":{"ha":536,"x_min":28,"x_max":631,"o":"m 268 -11 q 140 5 194 -11 q 57 74 86 21 q 28 236 28 126 l 28 504 q 56 622 28 579 q 138 681 83 664 q 268 699 192 699 q 399 681 346 699 q 481 622 453 664 q 508 504 508 579 l 508 238 q 479 74 508 126 q 396 5 450 21 q 268 -11 342 -11 m 268 114 q 281 117 275 114 q 289 131 286 121 q 292 156 292 140 l 292 532 q 289 558 292 549 q 281 570 286 567 q 268 574 275 574 q 256 570 261 574 q 247 558 250 567 q 244 532 244 549 l 244 156 q 247 131 244 140 q 256 117 250 121 q 268 114 261 114 m 72 757 l 210 918 l 325 918 l 464 757 l 339 757 l 269 829 l 200 757 l 72 757 m 494 840 l 347 988 l 550 988 l 631 840 l 494 840 z "},"ổ":{"ha":536,"x_min":28,"x_max":653,"o":"m 268 -11 q 140 5 194 -11 q 57 74 86 21 q 28 236 28 126 l 28 504 q 56 622 28 579 q 138 681 83 664 q 268 699 192 699 q 399 681 346 699 q 481 622 453 664 q 508 504 508 579 l 508 238 q 479 74 508 126 q 396 5 450 21 q 268 -11 342 -11 m 268 114 q 281 117 275 114 q 289 131 286 121 q 292 156 292 140 l 292 532 q 289 558 292 549 q 281 570 286 567 q 268 574 275 574 q 256 570 261 574 q 247 558 250 567 q 244 532 244 549 l 244 156 q 247 131 244 140 q 256 117 250 121 q 268 114 261 114 m 72 757 l 210 918 l 325 918 l 464 757 l 339 757 l 269 829 l 200 757 l 72 757 m 476 840 l 476 853 q 490 885 476 874 q 518 905 504 896 q 532 929 532 914 l 532 939 q 529 956 532 947 q 517 965 526 965 q 501 938 501 965 l 408 951 q 440 1018 411 996 q 526 1040 469 1040 q 621 1024 589 1040 q 653 943 653 1008 l 653 938 q 637 894 653 906 q 606 876 621 882 q 590 853 590 869 l 590 840 l 476 840 z "},"ỗ":{"ha":536,"x_min":28,"x_max":508,"o":"m 268 -11 q 140 5 194 -11 q 57 74 86 21 q 28 236 28 126 l 28 504 q 56 622 28 579 q 138 681 83 664 q 268 699 192 699 q 399 681 346 699 q 481 622 453 664 q 508 504 508 579 l 508 238 q 479 74 508 126 q 396 5 450 21 q 268 -11 342 -11 m 268 114 q 281 117 275 114 q 289 131 286 121 q 292 156 292 140 l 292 532 q 289 558 292 549 q 281 570 286 567 q 268 574 275 574 q 256 570 261 574 q 247 558 250 567 q 244 532 244 549 l 244 156 q 247 131 244 140 q 256 117 250 121 q 268 114 261 114 m 72 757 l 210 918 l 325 918 l 464 757 l 339 757 l 269 829 l 200 757 l 72 757 m 338 953 q 293 963 314 953 q 253 982 272 972 q 220 998 236 992 q 188 1004 204 1004 q 160 990 169 1004 q 149 954 150 975 l 92 954 q 119 1060 92 1019 q 190 1100 146 1100 q 236 1092 215 1100 q 275 1075 257 1085 q 308 1060 292 1067 q 339 1053 324 1053 q 370 1066 361 1053 q 382 1096 379 1079 l 446 1096 q 428 1017 446 1049 q 386 969 411 985 q 338 953 361 953 z "}}}
